<svg width="302" height="110" viewBox="0 0 302 110" fill="none" xmlns="http://www.w3.org/2000/svg">
<path d="M54.5439 19.095V48H46.5079V32.051L41.0549 48H34.3309L28.8369 31.928V48H20.8009V19.095H30.5179L37.7749 37.873L44.8679 19.095H54.5439ZM77.4043 43.285H67.1543L65.5963 48H57.1503L67.6873 19.095H76.9533L87.4493 48H78.9623L77.4043 43.285ZM75.3953 37.135L72.2793 27.787L69.2043 37.135H75.3953ZM100.974 48.287C97.6125 48.287 94.8518 47.4943 92.6925 45.909C90.5331 44.2963 89.3715 42.0003 89.2075 39.021H97.7765C97.8585 40.0323 98.1591 40.7703 98.6785 41.235C99.1978 41.6997 99.8675 41.932 100.687 41.932C101.425 41.932 102.027 41.7543 102.491 41.399C102.983 41.0163 103.229 40.497 103.229 39.841C103.229 38.9937 102.833 38.3377 102.04 37.873C101.248 37.4083 99.9631 36.889 98.1865 36.315C96.3005 35.6863 94.7698 35.085 93.5945 34.511C92.4465 33.9097 91.4351 33.0487 90.5605 31.928C89.7131 30.78 89.2895 29.2903 89.2895 27.459C89.2895 25.6003 89.7541 24.015 90.6835 22.703C91.6128 21.3637 92.8975 20.3523 94.5375 19.669C96.1775 18.9857 98.0361 18.644 100.113 18.644C103.475 18.644 106.154 19.4367 108.149 21.022C110.172 22.58 111.252 24.7803 111.388 27.623H102.655C102.628 26.7483 102.355 26.0923 101.835 25.655C101.343 25.2177 100.701 24.999 99.9085 24.999C99.3071 24.999 98.8151 25.1767 98.4325 25.532C98.0498 25.8873 97.8585 26.393 97.8585 27.049C97.8585 27.5957 98.0635 28.074 98.4735 28.484C98.9108 28.8667 99.4438 29.2083 100.072 29.509C100.701 29.7823 101.63 30.1377 102.86 30.575C104.692 31.2037 106.195 31.8323 107.37 32.461C108.573 33.0623 109.598 33.9233 110.445 35.044C111.32 36.1373 111.757 37.5313 111.757 39.226C111.757 40.948 111.32 42.4923 110.445 43.859C109.598 45.2257 108.354 46.3053 106.714 47.098C105.102 47.8907 103.188 48.287 100.974 48.287ZM137.264 19.095V25.491H129.556V48H121.52V25.491H113.894V19.095H137.264ZM148.273 25.532V30.247H157.498V36.356H148.273V41.563H158.728V48H140.237V19.095H158.728V25.532H148.273ZM177.336 48L171.596 37.34H170.735V48H162.699V19.095H175.368C177.692 19.095 179.66 19.505 181.272 20.325C182.885 21.1177 184.101 22.2247 184.921 23.646C185.741 25.04 186.151 26.6117 186.151 28.361C186.151 30.329 185.605 32.0647 184.511 33.568C183.445 35.044 181.874 36.0963 179.796 36.725L186.315 48H177.336ZM170.735 31.846H174.712C175.806 31.846 176.626 31.5863 177.172 31.067C177.719 30.5477 177.992 29.796 177.992 28.812C177.992 27.8827 177.705 27.1583 177.131 26.639C176.585 26.0923 175.778 25.819 174.712 25.819H170.735V31.846ZM224.426 48H216.39L205.689 31.846V48H197.653V19.095H205.689L216.39 35.454V19.095H224.426V48ZM237.04 25.532V30.247H246.265V36.356H237.04V41.563H247.495V48H229.004V19.095H247.495V25.532H237.04ZM265.324 48.287C262.618 48.287 260.131 47.6583 257.862 46.401C255.593 45.1163 253.789 43.3533 252.45 41.112C251.138 38.8433 250.482 36.2877 250.482 33.445C250.482 30.6023 251.138 28.0603 252.45 25.819C253.789 23.5503 255.593 21.7873 257.862 20.53C260.131 19.2727 262.618 18.644 265.324 18.644C268.057 18.644 270.545 19.2727 272.786 20.53C275.055 21.7873 276.845 23.5503 278.157 25.819C279.469 28.0603 280.125 30.6023 280.125 33.445C280.125 36.2877 279.469 38.8433 278.157 41.112C276.845 43.3533 275.055 45.1163 272.786 46.401C270.517 47.6583 268.03 48.287 265.324 48.287ZM265.324 40.825C267.374 40.825 268.987 40.1553 270.162 38.816C271.365 37.4767 271.966 35.6863 271.966 33.445C271.966 31.149 271.365 29.345 270.162 28.033C268.987 26.6937 267.374 26.024 265.324 26.024C263.247 26.024 261.62 26.6937 260.445 28.033C259.27 29.345 258.682 31.149 258.682 33.445C258.682 35.7137 259.27 37.5177 260.445 38.857C261.62 40.169 263.247 40.825 265.324 40.825Z" fill="url(#paint0_linear_137_409)"/>
<path d="M20.648 65.678V85.514H20.068V67.099L11.861 85.514H11.281L3.045 67.099V85.514H2.465V65.678H3.045L11.571 84.76L20.068 65.678H20.648ZM34.5934 85.746C32.718 85.746 31.036 85.311 29.5474 84.441C28.078 83.5517 26.9277 82.3144 26.0964 80.729C25.265 79.1437 24.8494 77.3457 24.8494 75.335C24.8494 73.3244 25.265 71.5264 26.0964 69.941C26.9277 68.3557 28.078 67.128 29.5474 66.258C31.036 65.3687 32.718 64.924 34.5934 64.924C36.4687 64.924 38.141 65.3687 39.6104 66.258C41.099 67.128 42.259 68.3557 43.0904 69.941C43.9217 71.5264 44.3374 73.3244 44.3374 75.335C44.3374 77.3457 43.9217 79.1437 43.0904 80.729C42.259 82.3144 41.099 83.5517 39.6104 84.441C38.141 85.311 36.4687 85.746 34.5934 85.746ZM34.5934 85.224C36.2947 85.224 37.8414 84.8277 39.2334 84.035C40.6254 83.223 41.7177 82.0727 42.5104 80.584C43.3224 79.076 43.7284 77.3264 43.7284 75.335C43.7284 73.3437 43.3224 71.6037 42.5104 70.115C41.7177 68.607 40.6254 67.4567 39.2334 66.664C37.8414 65.852 36.2947 65.446 34.5934 65.446C32.892 65.446 31.3454 65.852 29.9534 66.664C28.5614 67.4567 27.4594 68.607 26.6474 70.115C25.8547 71.6037 25.4584 73.3437 25.4584 75.335C25.4584 77.3264 25.8547 79.076 26.6474 80.584C27.4594 82.0727 28.5614 83.223 29.9534 84.035C31.3454 84.8277 32.892 85.224 34.5934 85.224ZM53.9071 65.098C57.4258 65.098 60.1035 65.9874 61.9401 67.766C63.7768 69.5447 64.6951 72.058 64.6951 75.306C64.6951 78.554 63.7768 81.0674 61.9401 82.846C60.1035 84.6247 57.4258 85.514 53.9071 85.514H48.5421V65.098H53.9071ZM53.9071 84.992C57.2711 84.992 59.8135 84.1414 61.5341 82.44C63.2548 80.7387 64.1151 78.3607 64.1151 75.306C64.1151 72.2514 63.2548 69.8734 61.5341 68.172C59.8135 66.4707 57.2711 65.62 53.9071 65.62H49.1221V84.992H53.9071ZM69.4845 65.62V75.045H78.0105V75.567H69.4845V84.992H78.8805V85.514H68.9045V65.098H78.8805V65.62H69.4845ZM93.9464 85.514L88.4944 76.611H87.9434H83.3614V85.514H82.7814V65.098H87.8854C90.1281 65.098 91.7907 65.6104 92.8734 66.635C93.9754 67.6597 94.5264 69.0614 94.5264 70.84C94.5264 72.4834 94.0624 73.798 93.1344 74.784C92.2064 75.77 90.8821 76.3597 89.1614 76.553L94.6714 85.514H93.9464ZM87.9434 76.06C89.9347 76.06 91.4234 75.5864 92.4094 74.639C93.4147 73.6917 93.9174 72.4254 93.9174 70.84C93.9174 67.3987 91.9067 65.678 87.8854 65.678H83.3614V76.06H87.9434ZM109.611 79.888H99.5189L97.3729 85.514H96.7059L104.275 65.707H104.855L112.395 85.514H111.728L109.611 79.888ZM109.408 79.366L104.565 66.635L99.7219 79.366H109.408ZM126.303 65.098V65.62H120.358V85.514H119.778V65.62H113.833V65.098H126.303ZM129.92 65.098V85.514H129.34V65.098H129.92ZM143.881 85.746C142.006 85.746 140.324 85.311 138.835 84.441C137.366 83.5517 136.216 82.3144 135.384 80.729C134.553 79.1437 134.137 77.3457 134.137 75.335C134.137 73.3244 134.553 71.5264 135.384 69.941C136.216 68.3557 137.366 67.128 138.835 66.258C140.324 65.3687 142.006 64.924 143.881 64.924C145.757 64.924 147.429 65.3687 148.898 66.258C150.387 67.128 151.547 68.3557 152.378 69.941C153.21 71.5264 153.625 73.3244 153.625 75.335C153.625 77.3457 153.21 79.1437 152.378 80.729C151.547 82.3144 150.387 83.5517 148.898 84.441C147.429 85.311 145.757 85.746 143.881 85.746ZM143.881 85.224C145.583 85.224 147.129 84.8277 148.521 84.035C149.913 83.223 151.006 82.0727 151.798 80.584C152.61 79.076 153.016 77.3264 153.016 75.335C153.016 73.3437 152.61 71.6037 151.798 70.115C151.006 68.607 149.913 67.4567 148.521 66.664C147.129 65.852 145.583 65.446 143.881 65.446C142.18 65.446 140.633 65.852 139.241 66.664C137.849 67.4567 136.747 68.607 135.935 70.115C135.143 71.6037 134.746 73.3437 134.746 75.335C134.746 77.3264 135.143 79.076 135.935 80.584C136.747 82.0727 137.849 83.223 139.241 84.035C140.633 84.8277 142.18 85.224 143.881 85.224ZM171.663 85.514H171.083L158.41 66.171V85.514H157.83V65.127H158.41L171.083 84.441V65.127H171.663V85.514ZM196.328 79.888H186.236L184.09 85.514H183.423L190.992 65.707H191.572L199.112 85.514H198.445L196.328 79.888ZM196.125 79.366L191.282 66.635L186.439 79.366H196.125ZM219.951 71.159C219.332 69.4577 218.269 68.085 216.761 67.041C215.272 65.9777 213.503 65.446 211.454 65.446C209.752 65.446 208.206 65.852 206.814 66.664C205.422 67.4567 204.32 68.607 203.508 70.115C202.715 71.6037 202.319 73.3437 202.319 75.335C202.319 77.3264 202.715 79.076 203.508 80.584C204.32 82.0727 205.422 83.223 206.814 84.035C208.206 84.8277 209.752 85.224 211.454 85.224C213.116 85.224 214.634 84.8374 216.007 84.064C217.399 83.2907 218.51 82.179 219.342 80.729C220.173 79.2597 220.608 77.5584 220.647 75.625H211.019V75.103H221.198V75.335C221.198 77.3457 220.782 79.1437 219.951 80.729C219.119 82.3144 217.959 83.5517 216.471 84.441C215.001 85.311 213.329 85.746 211.454 85.746C209.578 85.746 207.896 85.311 206.408 84.441C204.938 83.5517 203.788 82.3144 202.957 80.729C202.125 79.1437 201.71 77.3457 201.71 75.335C201.71 73.3244 202.125 71.5264 202.957 69.941C203.788 68.3557 204.938 67.128 206.408 66.258C207.896 65.3687 209.578 64.924 211.454 64.924C213.658 64.924 215.543 65.4847 217.109 66.606C218.675 67.7274 219.815 69.245 220.531 71.159H219.951ZM225.983 65.62V75.045H234.509V75.567H225.983V84.992H235.379V85.514H225.403V65.098H235.379V65.62H225.983ZM253.112 85.514H252.532L239.859 66.171V85.514H239.279V65.127H239.859L252.532 84.441V65.127H253.112V85.514ZM257.331 75.335C257.331 73.305 257.737 71.507 258.549 69.941C259.361 68.3557 260.492 67.1184 261.942 66.229C263.392 65.3397 265.025 64.895 266.843 64.895C269.221 64.895 271.183 65.446 272.73 66.548C274.296 67.65 275.436 69.1774 276.152 71.13H275.572C274.953 69.4094 273.899 68.027 272.411 66.983C270.922 65.939 269.066 65.417 266.843 65.417C265.18 65.417 263.672 65.823 262.319 66.635C260.965 67.4277 259.892 68.578 259.1 70.086C258.326 71.5747 257.94 73.3244 257.94 75.335C257.94 77.3264 258.326 79.0664 259.1 80.555C259.892 82.0437 260.965 83.194 262.319 84.006C263.691 84.7987 265.199 85.195 266.843 85.195C269.066 85.195 270.922 84.6827 272.411 83.658C273.899 82.614 274.953 81.2317 275.572 79.511H276.152C275.436 81.4637 274.296 82.991 272.73 84.093C271.183 85.1757 269.221 85.717 266.843 85.717C265.025 85.717 263.392 85.282 261.942 84.412C260.492 83.5227 259.361 82.295 258.549 80.729C257.737 79.1437 257.331 77.3457 257.331 75.335ZM292.031 65.098L285.709 76.959V85.514H285.129V76.959L278.749 65.098H279.445L285.39 76.321L291.335 65.098H292.031Z" fill="white"/>
<path d="M52.542 101.299V101.817H51.212V106.178H50.575V101.817H49.238V101.299H52.542ZM55.2301 102.272C55.5194 102.272 55.7808 102.335 56.0141 102.461C56.2474 102.582 56.4294 102.766 56.5601 103.014C56.6954 103.261 56.7631 103.562 56.7631 103.917V106.178H56.1331V104.008C56.1331 103.625 56.0374 103.333 55.8461 103.133C55.6548 102.927 55.3934 102.825 55.0621 102.825C54.7261 102.825 54.4578 102.93 54.2571 103.14C54.0611 103.35 53.9631 103.655 53.9631 104.057V106.178H53.3261V100.998H53.9631V102.888C54.0891 102.692 54.2618 102.54 54.4811 102.433C54.7051 102.325 54.9548 102.272 55.2301 102.272ZM61.3036 104.113C61.3036 104.234 61.2966 104.362 61.2826 104.498H58.2166C58.24 104.876 58.3683 105.172 58.6016 105.387C58.8396 105.597 59.1266 105.702 59.4626 105.702C59.738 105.702 59.9666 105.639 60.1486 105.513C60.3353 105.382 60.466 105.209 60.5406 104.995H61.2266C61.124 105.363 60.9186 105.664 60.6106 105.898C60.3026 106.126 59.92 106.241 59.4626 106.241C59.0986 106.241 58.772 106.159 58.4826 105.996C58.198 105.832 57.974 105.601 57.8106 105.303C57.6473 104.999 57.5656 104.649 57.5656 104.253C57.5656 103.856 57.645 103.508 57.8036 103.21C57.9623 102.911 58.184 102.682 58.4686 102.524C58.758 102.36 59.0893 102.279 59.4626 102.279C59.8266 102.279 60.1486 102.358 60.4286 102.517C60.7086 102.675 60.9233 102.895 61.0726 103.175C61.2266 103.45 61.3036 103.763 61.3036 104.113ZM60.6456 103.98C60.6456 103.737 60.592 103.529 60.4846 103.357C60.3773 103.179 60.2303 103.046 60.0436 102.958C59.8616 102.864 59.6586 102.818 59.4346 102.818C59.1126 102.818 58.8373 102.92 58.6086 103.126C58.3846 103.331 58.2563 103.616 58.2236 103.98H60.6456ZM65.4387 105.59L66.6287 102.342H67.3077L65.8027 106.178H65.0607L63.5557 102.342H64.2417L65.4387 105.59ZM71.4345 104.113C71.4345 104.234 71.4275 104.362 71.4135 104.498H68.3475C68.3708 104.876 68.4992 105.172 68.7325 105.387C68.9705 105.597 69.2575 105.702 69.5935 105.702C69.8688 105.702 70.0975 105.639 70.2795 105.513C70.4662 105.382 70.5968 105.209 70.6715 104.995H71.3575C71.2548 105.363 71.0495 105.664 70.7415 105.898C70.4335 106.126 70.0508 106.241 69.5935 106.241C69.2295 106.241 68.9028 106.159 68.6135 105.996C68.3288 105.832 68.1048 105.601 67.9415 105.303C67.7782 104.999 67.6965 104.649 67.6965 104.253C67.6965 103.856 67.7758 103.508 67.9345 103.21C68.0932 102.911 68.3148 102.682 68.5995 102.524C68.8888 102.36 69.2202 102.279 69.5935 102.279C69.9575 102.279 70.2795 102.358 70.5595 102.517C70.8395 102.675 71.0542 102.895 71.2035 103.175C71.3575 103.45 71.4345 103.763 71.4345 104.113ZM70.7765 103.98C70.7765 103.737 70.7228 103.529 70.6155 103.357C70.5082 103.179 70.3612 103.046 70.1745 102.958C69.9925 102.864 69.7895 102.818 69.5655 102.818C69.2435 102.818 68.9682 102.92 68.7395 103.126C68.5155 103.331 68.3872 103.616 68.3545 103.98H70.7765ZM72.9123 102.965C73.0243 102.745 73.183 102.575 73.3883 102.454C73.5983 102.332 73.8527 102.272 74.1513 102.272V102.93H73.9833C73.2693 102.93 72.9123 103.317 72.9123 104.092V106.178H72.2753V102.342H72.9123V102.965ZM78.1907 102.342L75.8807 107.984H75.2227L75.9787 106.136L74.4317 102.342H75.1387L76.3427 105.45L77.5327 102.342H78.1907ZM82.2582 102.867H81.4532V106.178H80.8162V102.867H80.3192V102.342H80.8162V102.069C80.8162 101.639 80.9259 101.327 81.1452 101.131C81.3692 100.93 81.7262 100.83 82.2162 100.83V101.362C81.9362 101.362 81.7379 101.418 81.6212 101.53C81.5092 101.637 81.4532 101.817 81.4532 102.069V102.342H82.2582V102.867ZM83.3299 101.719C83.2086 101.719 83.1059 101.677 83.0219 101.593C82.9379 101.509 82.8959 101.406 82.8959 101.285C82.8959 101.163 82.9379 101.061 83.0219 100.977C83.1059 100.893 83.2086 100.851 83.3299 100.851C83.4466 100.851 83.5446 100.893 83.6239 100.977C83.7079 101.061 83.7499 101.163 83.7499 101.285C83.7499 101.406 83.7079 101.509 83.6239 101.593C83.5446 101.677 83.4466 101.719 83.3299 101.719ZM83.6379 102.342V106.178H83.0009V102.342H83.6379ZM85.3606 102.965C85.4726 102.745 85.6312 102.575 85.8366 102.454C86.0466 102.332 86.3009 102.272 86.5996 102.272V102.93H86.4316C85.7176 102.93 85.3606 103.317 85.3606 104.092V106.178H84.7236V102.342H85.3606V102.965ZM88.6929 106.241C88.3989 106.241 88.1352 106.192 87.9019 106.094C87.6686 105.991 87.4842 105.851 87.3489 105.674C87.2136 105.492 87.1389 105.284 87.1249 105.051H87.7829C87.8016 105.242 87.8902 105.398 88.0489 105.52C88.2122 105.641 88.4246 105.702 88.6859 105.702C88.9286 105.702 89.1199 105.648 89.2599 105.541C89.3999 105.433 89.4699 105.298 89.4699 105.135C89.4699 104.967 89.3952 104.843 89.2459 104.764C89.0966 104.68 88.8656 104.598 88.5529 104.519C88.2682 104.444 88.0349 104.369 87.8529 104.295C87.6756 104.215 87.5216 104.101 87.3909 103.952C87.2649 103.798 87.2019 103.597 87.2019 103.35C87.2019 103.154 87.2602 102.974 87.3769 102.811C87.4936 102.647 87.6592 102.519 87.8739 102.426C88.0886 102.328 88.3336 102.279 88.6089 102.279C89.0336 102.279 89.3766 102.386 89.6379 102.601C89.8992 102.815 90.0392 103.109 90.0579 103.483H89.4209C89.4069 103.282 89.3252 103.121 89.1759 103C89.0312 102.878 88.8352 102.818 88.5879 102.818C88.3592 102.818 88.1772 102.867 88.0419 102.965C87.9066 103.063 87.8389 103.191 87.8389 103.35C87.8389 103.476 87.8786 103.581 87.9579 103.665C88.0419 103.744 88.1446 103.809 88.2659 103.861C88.3919 103.907 88.5646 103.961 88.7839 104.022C89.0592 104.096 89.2832 104.171 89.4559 104.246C89.6286 104.316 89.7756 104.423 89.8969 104.568C90.0229 104.712 90.0882 104.901 90.0929 105.135C90.0929 105.345 90.0346 105.534 89.9179 105.702C89.8012 105.87 89.6356 106.003 89.4209 106.101C89.2109 106.194 88.9682 106.241 88.6929 106.241ZM91.7691 102.867V105.128C91.7691 105.314 91.8088 105.447 91.8881 105.527C91.9675 105.601 92.1051 105.639 92.3011 105.639H92.7701V106.178H92.1961C91.8415 106.178 91.5755 106.096 91.3981 105.933C91.2208 105.769 91.1321 105.501 91.1321 105.128V102.867H90.6351V102.342H91.1321V101.376H91.7691V102.342H92.7701V102.867H91.7691ZM98.9081 104.113C98.9081 104.234 98.9011 104.362 98.8871 104.498H95.8211C95.8445 104.876 95.9728 105.172 96.2061 105.387C96.4441 105.597 96.7311 105.702 97.0671 105.702C97.3425 105.702 97.5711 105.639 97.7531 105.513C97.9398 105.382 98.0705 105.209 98.1451 104.995H98.8311C98.7285 105.363 98.5231 105.664 98.2151 105.898C97.9071 106.126 97.5245 106.241 97.0671 106.241C96.7031 106.241 96.3765 106.159 96.0871 105.996C95.8025 105.832 95.5785 105.601 95.4151 105.303C95.2518 104.999 95.1701 104.649 95.1701 104.253C95.1701 103.856 95.2495 103.508 95.4081 103.21C95.5668 102.911 95.7885 102.682 96.0731 102.524C96.3625 102.36 96.6938 102.279 97.0671 102.279C97.4311 102.279 97.7531 102.358 98.0331 102.517C98.3131 102.675 98.5278 102.895 98.6771 103.175C98.8311 103.45 98.9081 103.763 98.9081 104.113ZM98.2501 103.98C98.2501 103.737 98.1965 103.529 98.0891 103.357C97.9818 103.179 97.8348 103.046 97.6481 102.958C97.4661 102.864 97.2631 102.818 97.0391 102.818C96.7171 102.818 96.4418 102.92 96.2131 103.126C95.9891 103.331 95.8608 103.616 95.8281 103.98H98.2501ZM101.177 105.59L102.367 102.342H103.046L101.541 106.178H100.799L99.294 102.342H99.98L101.177 105.59ZM107.173 104.113C107.173 104.234 107.166 104.362 107.152 104.498H104.086C104.109 104.876 104.237 105.172 104.471 105.387C104.709 105.597 104.996 105.702 105.332 105.702C105.607 105.702 105.836 105.639 106.018 105.513C106.204 105.382 106.335 105.209 106.41 104.995H107.096C106.993 105.363 106.788 105.664 106.48 105.898C106.172 106.126 105.789 106.241 105.332 106.241C104.968 106.241 104.641 106.159 104.352 105.996C104.067 105.832 103.843 105.601 103.68 105.303C103.516 104.999 103.435 104.649 103.435 104.253C103.435 103.856 103.514 103.508 103.673 103.21C103.831 102.911 104.053 102.682 104.338 102.524C104.627 102.36 104.958 102.279 105.332 102.279C105.696 102.279 106.018 102.358 106.298 102.517C106.578 102.675 106.792 102.895 106.942 103.175C107.096 103.45 107.173 103.763 107.173 104.113ZM106.515 103.98C106.515 103.737 106.461 103.529 106.354 103.357C106.246 103.179 106.099 103.046 105.913 102.958C105.731 102.864 105.528 102.818 105.304 102.818C104.982 102.818 104.706 102.92 104.478 103.126C104.254 103.331 104.125 103.616 104.093 103.98H106.515ZM108.651 102.965C108.763 102.745 108.921 102.575 109.127 102.454C109.337 102.332 109.591 102.272 109.89 102.272V102.93H109.722C109.008 102.93 108.651 103.317 108.651 104.092V106.178H108.014V102.342H108.651V102.965ZM112.253 104.253C112.253 103.856 112.332 103.511 112.491 103.217C112.65 102.918 112.869 102.687 113.149 102.524C113.434 102.36 113.758 102.279 114.122 102.279C114.593 102.279 114.981 102.393 115.284 102.622C115.592 102.85 115.795 103.168 115.893 103.574H115.207C115.142 103.34 115.013 103.156 114.822 103.021C114.635 102.885 114.402 102.818 114.122 102.818C113.758 102.818 113.464 102.944 113.24 103.196C113.016 103.443 112.904 103.795 112.904 104.253C112.904 104.715 113.016 105.072 113.24 105.324C113.464 105.576 113.758 105.702 114.122 105.702C114.402 105.702 114.635 105.636 114.822 105.506C115.009 105.375 115.137 105.188 115.207 104.946H115.893C115.79 105.338 115.585 105.653 115.277 105.891C114.969 106.124 114.584 106.241 114.122 106.241C113.758 106.241 113.434 106.159 113.149 105.996C112.869 105.832 112.65 105.601 112.491 105.303C112.332 105.004 112.253 104.654 112.253 104.253ZM117.38 102.965C117.492 102.745 117.651 102.575 117.856 102.454C118.066 102.332 118.32 102.272 118.619 102.272V102.93H118.451C117.737 102.93 117.38 103.317 117.38 104.092V106.178H116.743V102.342H117.38V102.965ZM122.854 104.113C122.854 104.234 122.847 104.362 122.833 104.498H119.767C119.791 104.876 119.919 105.172 120.152 105.387C120.39 105.597 120.677 105.702 121.013 105.702C121.289 105.702 121.517 105.639 121.699 105.513C121.886 105.382 122.017 105.209 122.091 104.995H122.777C122.675 105.363 122.469 105.664 122.161 105.898C121.853 106.126 121.471 106.241 121.013 106.241C120.649 106.241 120.323 106.159 120.033 105.996C119.749 105.832 119.525 105.601 119.361 105.303C119.198 104.999 119.116 104.649 119.116 104.253C119.116 103.856 119.196 103.508 119.354 103.21C119.513 102.911 119.735 102.682 120.019 102.524C120.309 102.36 120.64 102.279 121.013 102.279C121.377 102.279 121.699 102.358 121.979 102.517C122.259 102.675 122.474 102.895 122.623 103.175C122.777 103.45 122.854 103.763 122.854 104.113ZM122.196 103.98C122.196 103.737 122.143 103.529 122.035 103.357C121.928 103.179 121.781 103.046 121.594 102.958C121.412 102.864 121.209 102.818 120.985 102.818C120.663 102.818 120.388 102.92 120.159 103.126C119.935 103.331 119.807 103.616 119.774 103.98H122.196ZM123.457 104.246C123.457 103.854 123.537 103.511 123.695 103.217C123.854 102.918 124.071 102.687 124.346 102.524C124.626 102.36 124.937 102.279 125.277 102.279C125.613 102.279 125.905 102.351 126.152 102.496C126.4 102.64 126.584 102.822 126.705 103.042V102.342H127.349V106.178H126.705V105.464C126.579 105.688 126.39 105.874 126.138 106.024C125.891 106.168 125.602 106.241 125.27 106.241C124.93 106.241 124.622 106.157 124.346 105.989C124.071 105.821 123.854 105.585 123.695 105.282C123.537 104.978 123.457 104.633 123.457 104.246ZM126.705 104.253C126.705 103.963 126.647 103.711 126.53 103.497C126.414 103.282 126.255 103.119 126.054 103.007C125.858 102.89 125.641 102.832 125.403 102.832C125.165 102.832 124.948 102.888 124.752 103C124.556 103.112 124.4 103.275 124.283 103.49C124.167 103.704 124.108 103.956 124.108 104.246C124.108 104.54 124.167 104.796 124.283 105.016C124.4 105.23 124.556 105.396 124.752 105.513C124.948 105.625 125.165 105.681 125.403 105.681C125.641 105.681 125.858 105.625 126.054 105.513C126.255 105.396 126.414 105.23 126.53 105.016C126.647 104.796 126.705 104.542 126.705 104.253ZM129.203 102.867V105.128C129.203 105.314 129.242 105.447 129.322 105.527C129.401 105.601 129.539 105.639 129.735 105.639H130.204V106.178H129.63C129.275 106.178 129.009 106.096 128.832 105.933C128.654 105.769 128.566 105.501 128.566 105.128V102.867H128.069V102.342H128.566V101.376H129.203V102.342H130.204V102.867H129.203ZM134.476 104.113C134.476 104.234 134.469 104.362 134.455 104.498H131.389C131.412 104.876 131.54 105.172 131.774 105.387C132.012 105.597 132.299 105.702 132.635 105.702C132.91 105.702 133.139 105.639 133.321 105.513C133.507 105.382 133.638 105.209 133.713 104.995H134.399C134.296 105.363 134.091 105.664 133.783 105.898C133.475 106.126 133.092 106.241 132.635 106.241C132.271 106.241 131.944 106.159 131.655 105.996C131.37 105.832 131.146 105.601 130.983 105.303C130.819 104.999 130.738 104.649 130.738 104.253C130.738 103.856 130.817 103.508 130.976 103.21C131.134 102.911 131.356 102.682 131.641 102.524C131.93 102.36 132.261 102.279 132.635 102.279C132.999 102.279 133.321 102.358 133.601 102.517C133.881 102.675 134.095 102.895 134.245 103.175C134.399 103.45 134.476 103.763 134.476 104.113ZM133.818 103.98C133.818 103.737 133.764 103.529 133.657 103.357C133.549 103.179 133.402 103.046 133.216 102.958C133.034 102.864 132.831 102.818 132.607 102.818C132.285 102.818 132.009 102.92 131.781 103.126C131.557 103.331 131.428 103.616 131.396 103.98H133.818ZM135.078 104.246C135.078 103.854 135.158 103.511 135.316 103.217C135.475 102.918 135.692 102.687 135.967 102.524C136.247 102.36 136.56 102.279 136.905 102.279C137.204 102.279 137.482 102.349 137.738 102.489C137.995 102.624 138.191 102.804 138.326 103.028V100.998H138.97V106.178H138.326V105.457C138.2 105.685 138.014 105.874 137.766 106.024C137.519 106.168 137.23 106.241 136.898 106.241C136.558 106.241 136.247 106.157 135.967 105.989C135.692 105.821 135.475 105.585 135.316 105.282C135.158 104.978 135.078 104.633 135.078 104.246ZM138.326 104.253C138.326 103.963 138.268 103.711 138.151 103.497C138.035 103.282 137.876 103.119 137.675 103.007C137.479 102.89 137.262 102.832 137.024 102.832C136.786 102.832 136.569 102.888 136.373 103C136.177 103.112 136.021 103.275 135.904 103.49C135.788 103.704 135.729 103.956 135.729 104.246C135.729 104.54 135.788 104.796 135.904 105.016C136.021 105.23 136.177 105.396 136.373 105.513C136.569 105.625 136.786 105.681 137.024 105.681C137.262 105.681 137.479 105.625 137.675 105.513C137.876 105.396 138.035 105.23 138.151 105.016C138.268 104.796 138.326 104.542 138.326 104.253ZM146.526 102.272C146.825 102.272 147.091 102.335 147.324 102.461C147.557 102.582 147.742 102.766 147.877 103.014C148.012 103.261 148.08 103.562 148.08 103.917V106.178H147.45V104.008C147.45 103.625 147.354 103.333 147.163 103.133C146.976 102.927 146.722 102.825 146.4 102.825C146.069 102.825 145.805 102.932 145.609 103.147C145.413 103.357 145.315 103.662 145.315 104.064V106.178H144.685V104.008C144.685 103.625 144.589 103.333 144.398 103.133C144.211 102.927 143.957 102.825 143.635 102.825C143.304 102.825 143.04 102.932 142.844 103.147C142.648 103.357 142.55 103.662 142.55 104.064V106.178H141.913V102.342H142.55V102.895C142.676 102.694 142.844 102.54 143.054 102.433C143.269 102.325 143.504 102.272 143.761 102.272C144.083 102.272 144.368 102.344 144.615 102.489C144.862 102.633 145.047 102.846 145.168 103.126C145.275 102.855 145.453 102.645 145.7 102.496C145.947 102.346 146.223 102.272 146.526 102.272ZM150.798 106.241C150.439 106.241 150.112 106.159 149.818 105.996C149.529 105.832 149.3 105.601 149.132 105.303C148.969 104.999 148.887 104.649 148.887 104.253C148.887 103.861 148.971 103.515 149.139 103.217C149.312 102.913 149.545 102.682 149.839 102.524C150.133 102.36 150.462 102.279 150.826 102.279C151.19 102.279 151.519 102.36 151.813 102.524C152.107 102.682 152.338 102.911 152.506 103.21C152.679 103.508 152.765 103.856 152.765 104.253C152.765 104.649 152.676 104.999 152.499 105.303C152.326 105.601 152.091 105.832 151.792 105.996C151.493 106.159 151.162 106.241 150.798 106.241ZM150.798 105.681C151.027 105.681 151.241 105.627 151.442 105.52C151.643 105.412 151.804 105.251 151.925 105.037C152.051 104.822 152.114 104.561 152.114 104.253C152.114 103.945 152.053 103.683 151.932 103.469C151.811 103.254 151.652 103.095 151.456 102.993C151.26 102.885 151.048 102.832 150.819 102.832C150.586 102.832 150.371 102.885 150.175 102.993C149.984 103.095 149.83 103.254 149.713 103.469C149.596 103.683 149.538 103.945 149.538 104.253C149.538 104.565 149.594 104.829 149.706 105.044C149.823 105.258 149.977 105.419 150.168 105.527C150.359 105.629 150.569 105.681 150.798 105.681ZM153.364 104.246C153.364 103.854 153.444 103.511 153.602 103.217C153.761 102.918 153.978 102.687 154.253 102.524C154.533 102.36 154.846 102.279 155.191 102.279C155.49 102.279 155.768 102.349 156.024 102.489C156.281 102.624 156.477 102.804 156.612 103.028V100.998H157.256V106.178H156.612V105.457C156.486 105.685 156.3 105.874 156.052 106.024C155.805 106.168 155.516 106.241 155.184 106.241C154.844 106.241 154.533 106.157 154.253 105.989C153.978 105.821 153.761 105.585 153.602 105.282C153.444 104.978 153.364 104.633 153.364 104.246ZM156.612 104.253C156.612 103.963 156.554 103.711 156.437 103.497C156.321 103.282 156.162 103.119 155.961 103.007C155.765 102.89 155.548 102.832 155.31 102.832C155.072 102.832 154.855 102.888 154.659 103C154.463 103.112 154.307 103.275 154.19 103.49C154.074 103.704 154.015 103.956 154.015 104.246C154.015 104.54 154.074 104.796 154.19 105.016C154.307 105.23 154.463 105.396 154.659 105.513C154.855 105.625 155.072 105.681 155.31 105.681C155.548 105.681 155.765 105.625 155.961 105.513C156.162 105.396 156.321 105.23 156.437 105.016C156.554 104.796 156.612 104.542 156.612 104.253ZM161.833 104.113C161.833 104.234 161.826 104.362 161.812 104.498H158.746C158.769 104.876 158.898 105.172 159.131 105.387C159.369 105.597 159.656 105.702 159.992 105.702C160.267 105.702 160.496 105.639 160.678 105.513C160.865 105.382 160.995 105.209 161.07 104.995H161.756C161.653 105.363 161.448 105.664 161.14 105.898C160.832 106.126 160.449 106.241 159.992 106.241C159.628 106.241 159.301 106.159 159.012 105.996C158.727 105.832 158.503 105.601 158.34 105.303C158.177 104.999 158.095 104.649 158.095 104.253C158.095 103.856 158.174 103.508 158.333 103.21C158.492 102.911 158.713 102.682 158.998 102.524C159.287 102.36 159.619 102.279 159.992 102.279C160.356 102.279 160.678 102.358 160.958 102.517C161.238 102.675 161.453 102.895 161.602 103.175C161.756 103.45 161.833 103.763 161.833 104.113ZM161.175 103.98C161.175 103.737 161.121 103.529 161.014 103.357C160.907 103.179 160.76 103.046 160.573 102.958C160.391 102.864 160.188 102.818 159.964 102.818C159.642 102.818 159.367 102.92 159.138 103.126C158.914 103.331 158.786 103.616 158.753 103.98H161.175ZM163.311 102.965C163.423 102.745 163.581 102.575 163.787 102.454C163.997 102.332 164.251 102.272 164.55 102.272V102.93H164.382C163.668 102.93 163.311 103.317 163.311 104.092V106.178H162.674V102.342H163.311V102.965ZM165.047 104.246C165.047 103.854 165.126 103.511 165.285 103.217C165.444 102.918 165.661 102.687 165.936 102.524C166.216 102.36 166.526 102.279 166.867 102.279C167.203 102.279 167.495 102.351 167.742 102.496C167.989 102.64 168.174 102.822 168.295 103.042V102.342H168.939V106.178H168.295V105.464C168.169 105.688 167.98 105.874 167.728 106.024C167.481 106.168 167.191 106.241 166.86 106.241C166.519 106.241 166.211 106.157 165.936 105.989C165.661 105.821 165.444 105.585 165.285 105.282C165.126 104.978 165.047 104.633 165.047 104.246ZM168.295 104.253C168.295 103.963 168.237 103.711 168.12 103.497C168.003 103.282 167.845 103.119 167.644 103.007C167.448 102.89 167.231 102.832 166.993 102.832C166.755 102.832 166.538 102.888 166.342 103C166.146 103.112 165.99 103.275 165.873 103.49C165.756 103.704 165.698 103.956 165.698 104.246C165.698 104.54 165.756 104.796 165.873 105.016C165.99 105.23 166.146 105.396 166.342 105.513C166.538 105.625 166.755 105.681 166.993 105.681C167.231 105.681 167.448 105.625 167.644 105.513C167.845 105.396 168.003 105.23 168.12 105.016C168.237 104.796 168.295 104.542 168.295 104.253ZM170.793 102.867V105.128C170.793 105.314 170.832 105.447 170.912 105.527C170.991 105.601 171.129 105.639 171.325 105.639H171.794V106.178H171.22C170.865 106.178 170.599 106.096 170.422 105.933C170.244 105.769 170.156 105.501 170.156 105.128V102.867H169.659V102.342H170.156V101.376H170.793V102.342H171.794V102.867H170.793ZM172.894 101.719C172.773 101.719 172.67 101.677 172.586 101.593C172.502 101.509 172.46 101.406 172.46 101.285C172.46 101.163 172.502 101.061 172.586 100.977C172.67 100.893 172.773 100.851 172.894 100.851C173.011 100.851 173.109 100.893 173.188 100.977C173.272 101.061 173.314 101.163 173.314 101.285C173.314 101.406 173.272 101.509 173.188 101.593C173.109 101.677 173.011 101.719 172.894 101.719ZM173.202 102.342V106.178H172.565V102.342H173.202ZM175.961 106.241C175.602 106.241 175.275 106.159 174.981 105.996C174.692 105.832 174.463 105.601 174.295 105.303C174.132 104.999 174.05 104.649 174.05 104.253C174.05 103.861 174.134 103.515 174.302 103.217C174.475 102.913 174.708 102.682 175.002 102.524C175.296 102.36 175.625 102.279 175.989 102.279C176.353 102.279 176.682 102.36 176.976 102.524C177.27 102.682 177.501 102.911 177.669 103.21C177.842 103.508 177.928 103.856 177.928 104.253C177.928 104.649 177.839 104.999 177.662 105.303C177.489 105.601 177.254 105.832 176.955 105.996C176.656 106.159 176.325 106.241 175.961 106.241ZM175.961 105.681C176.19 105.681 176.404 105.627 176.605 105.52C176.806 105.412 176.967 105.251 177.088 105.037C177.214 104.822 177.277 104.561 177.277 104.253C177.277 103.945 177.216 103.683 177.095 103.469C176.974 103.254 176.815 103.095 176.619 102.993C176.423 102.885 176.211 102.832 175.982 102.832C175.749 102.832 175.534 102.885 175.338 102.993C175.147 103.095 174.993 103.254 174.876 103.469C174.759 103.683 174.701 103.945 174.701 104.253C174.701 104.565 174.757 104.829 174.869 105.044C174.986 105.258 175.14 105.419 175.331 105.527C175.522 105.629 175.732 105.681 175.961 105.681ZM180.635 102.272C181.101 102.272 181.479 102.414 181.769 102.699C182.058 102.979 182.203 103.385 182.203 103.917V106.178H181.573V104.008C181.573 103.625 181.477 103.333 181.286 103.133C181.094 102.927 180.833 102.825 180.502 102.825C180.166 102.825 179.897 102.93 179.697 103.14C179.501 103.35 179.403 103.655 179.403 104.057V106.178H178.766V102.342H179.403V102.888C179.529 102.692 179.699 102.54 179.914 102.433C180.133 102.325 180.373 102.272 180.635 102.272ZM185.746 103.049C185.872 102.829 186.059 102.647 186.306 102.503C186.558 102.353 186.85 102.279 187.181 102.279C187.522 102.279 187.83 102.36 188.105 102.524C188.385 102.687 188.605 102.918 188.763 103.217C188.922 103.511 189.001 103.854 189.001 104.246C189.001 104.633 188.922 104.978 188.763 105.282C188.605 105.585 188.385 105.821 188.105 105.989C187.83 106.157 187.522 106.241 187.181 106.241C186.855 106.241 186.565 106.168 186.313 106.024C186.066 105.874 185.877 105.69 185.746 105.471V107.998H185.109V102.342H185.746V103.049ZM188.35 104.246C188.35 103.956 188.292 103.704 188.175 103.49C188.059 103.275 187.9 103.112 187.699 103C187.503 102.888 187.286 102.832 187.048 102.832C186.815 102.832 186.598 102.89 186.397 103.007C186.201 103.119 186.043 103.284 185.921 103.504C185.805 103.718 185.746 103.968 185.746 104.253C185.746 104.542 185.805 104.796 185.921 105.016C186.043 105.23 186.201 105.396 186.397 105.513C186.598 105.625 186.815 105.681 187.048 105.681C187.286 105.681 187.503 105.625 187.699 105.513C187.9 105.396 188.059 105.23 188.175 105.016C188.292 104.796 188.35 104.54 188.35 104.246ZM190.477 102.965C190.589 102.745 190.747 102.575 190.953 102.454C191.163 102.332 191.417 102.272 191.716 102.272V102.93H191.548C190.834 102.93 190.477 103.317 190.477 104.092V106.178H189.84V102.342H190.477V102.965ZM194.124 106.241C193.765 106.241 193.438 106.159 193.144 105.996C192.855 105.832 192.626 105.601 192.458 105.303C192.295 104.999 192.213 104.649 192.213 104.253C192.213 103.861 192.297 103.515 192.465 103.217C192.638 102.913 192.871 102.682 193.165 102.524C193.459 102.36 193.788 102.279 194.152 102.279C194.516 102.279 194.845 102.36 195.139 102.524C195.433 102.682 195.664 102.911 195.832 103.21C196.005 103.508 196.091 103.856 196.091 104.253C196.091 104.649 196.002 104.999 195.825 105.303C195.652 105.601 195.417 105.832 195.118 105.996C194.819 106.159 194.488 106.241 194.124 106.241ZM194.124 105.681C194.353 105.681 194.567 105.627 194.768 105.52C194.969 105.412 195.13 105.251 195.251 105.037C195.377 104.822 195.44 104.561 195.44 104.253C195.44 103.945 195.379 103.683 195.258 103.469C195.137 103.254 194.978 103.095 194.782 102.993C194.586 102.885 194.374 102.832 194.145 102.832C193.912 102.832 193.697 102.885 193.501 102.993C193.31 103.095 193.156 103.254 193.039 103.469C192.922 103.683 192.864 103.945 192.864 104.253C192.864 104.565 192.92 104.829 193.032 105.044C193.149 105.258 193.303 105.419 193.494 105.527C193.685 105.629 193.895 105.681 194.124 105.681ZM198.357 105.59L199.547 102.342H200.226L198.721 106.178H197.979L196.474 102.342H197.16L198.357 105.59ZM201.181 101.719C201.06 101.719 200.957 101.677 200.873 101.593C200.789 101.509 200.747 101.406 200.747 101.285C200.747 101.163 200.789 101.061 200.873 100.977C200.957 100.893 201.06 100.851 201.181 100.851C201.298 100.851 201.396 100.893 201.475 100.977C201.559 101.061 201.601 101.163 201.601 101.285C201.601 101.406 201.559 101.509 201.475 101.593C201.396 101.677 201.298 101.719 201.181 101.719ZM201.489 102.342V106.178H200.852V102.342H201.489ZM202.337 104.246C202.337 103.854 202.416 103.511 202.575 103.217C202.734 102.918 202.951 102.687 203.226 102.524C203.506 102.36 203.819 102.279 204.164 102.279C204.463 102.279 204.74 102.349 204.997 102.489C205.254 102.624 205.45 102.804 205.585 103.028V100.998H206.229V106.178H205.585V105.457C205.459 105.685 205.272 105.874 205.025 106.024C204.778 106.168 204.488 106.241 204.157 106.241C203.816 106.241 203.506 106.157 203.226 105.989C202.951 105.821 202.734 105.585 202.575 105.282C202.416 104.978 202.337 104.633 202.337 104.246ZM205.585 104.253C205.585 103.963 205.527 103.711 205.41 103.497C205.293 103.282 205.135 103.119 204.934 103.007C204.738 102.89 204.521 102.832 204.283 102.832C204.045 102.832 203.828 102.888 203.632 103C203.436 103.112 203.28 103.275 203.163 103.49C203.046 103.704 202.988 103.956 202.988 104.246C202.988 104.54 203.046 104.796 203.163 105.016C203.28 105.23 203.436 105.396 203.632 105.513C203.828 105.625 204.045 105.681 204.283 105.681C204.521 105.681 204.738 105.625 204.934 105.513C205.135 105.396 205.293 105.23 205.41 105.016C205.527 104.796 205.585 104.542 205.585 104.253ZM207.635 101.719C207.513 101.719 207.411 101.677 207.327 101.593C207.243 101.509 207.201 101.406 207.201 101.285C207.201 101.163 207.243 101.061 207.327 100.977C207.411 100.893 207.513 100.851 207.635 100.851C207.751 100.851 207.849 100.893 207.929 100.977C208.013 101.061 208.055 101.163 208.055 101.285C208.055 101.406 208.013 101.509 207.929 101.593C207.849 101.677 207.751 101.719 207.635 101.719ZM207.943 102.342V106.178H207.306V102.342H207.943ZM210.897 102.272C211.364 102.272 211.742 102.414 212.031 102.699C212.321 102.979 212.465 103.385 212.465 103.917V106.178H211.835V104.008C211.835 103.625 211.74 103.333 211.548 103.133C211.357 102.927 211.096 102.825 210.764 102.825C210.428 102.825 210.16 102.93 209.959 103.14C209.763 103.35 209.665 103.655 209.665 104.057V106.178H209.028V102.342H209.665V102.888C209.791 102.692 209.962 102.54 210.176 102.433C210.396 102.325 210.636 102.272 210.897 102.272ZM215.088 102.279C215.419 102.279 215.708 102.351 215.956 102.496C216.208 102.64 216.394 102.822 216.516 103.042V102.342H217.16V106.262C217.16 106.612 217.085 106.922 216.936 107.193C216.786 107.468 216.572 107.683 216.292 107.837C216.016 107.991 215.694 108.068 215.326 108.068C214.822 108.068 214.402 107.949 214.066 107.711C213.73 107.473 213.531 107.148 213.471 106.738H214.101C214.171 106.971 214.315 107.158 214.535 107.298C214.754 107.442 215.018 107.515 215.326 107.515C215.676 107.515 215.96 107.405 216.18 107.186C216.404 106.966 216.516 106.658 216.516 106.262V105.457C216.39 105.681 216.203 105.867 215.956 106.017C215.708 106.166 215.419 106.241 215.088 106.241C214.747 106.241 214.437 106.157 214.157 105.989C213.881 105.821 213.664 105.585 213.506 105.282C213.347 104.978 213.268 104.633 213.268 104.246C213.268 103.854 213.347 103.511 213.506 103.217C213.664 102.918 213.881 102.687 214.157 102.524C214.437 102.36 214.747 102.279 215.088 102.279ZM216.516 104.253C216.516 103.963 216.457 103.711 216.341 103.497C216.224 103.282 216.065 103.119 215.865 103.007C215.669 102.89 215.452 102.832 215.214 102.832C214.976 102.832 214.759 102.888 214.563 103C214.367 103.112 214.21 103.275 214.094 103.49C213.977 103.704 213.919 103.956 213.919 104.246C213.919 104.54 213.977 104.796 214.094 105.016C214.21 105.23 214.367 105.396 214.563 105.513C214.759 105.625 214.976 105.681 215.214 105.681C215.452 105.681 215.669 105.625 215.865 105.513C216.065 105.396 216.224 105.23 216.341 105.016C216.457 104.796 216.516 104.542 216.516 104.253ZM222.986 105.093H220.858L220.466 106.178H219.794L221.558 101.327H222.293L224.05 106.178H223.378L222.986 105.093ZM222.804 104.575L221.922 102.111L221.04 104.575H222.804ZM226.401 102.279C226.733 102.279 227.022 102.351 227.269 102.496C227.521 102.64 227.708 102.822 227.829 103.042V102.342H228.473V106.262C228.473 106.612 228.399 106.922 228.249 107.193C228.1 107.468 227.885 107.683 227.605 107.837C227.33 107.991 227.008 108.068 226.639 108.068C226.135 108.068 225.715 107.949 225.379 107.711C225.043 107.473 224.845 107.148 224.784 106.738H225.414C225.484 106.971 225.629 107.158 225.848 107.298C226.068 107.442 226.331 107.515 226.639 107.515C226.989 107.515 227.274 107.405 227.493 107.186C227.717 106.966 227.829 106.658 227.829 106.262V105.457C227.703 105.681 227.517 105.867 227.269 106.017C227.022 106.166 226.733 106.241 226.401 106.241C226.061 106.241 225.75 106.157 225.47 105.989C225.195 105.821 224.978 105.585 224.819 105.282C224.661 104.978 224.581 104.633 224.581 104.246C224.581 103.854 224.661 103.511 224.819 103.217C224.978 102.918 225.195 102.687 225.47 102.524C225.75 102.36 226.061 102.279 226.401 102.279ZM227.829 104.253C227.829 103.963 227.771 103.711 227.654 103.497C227.538 103.282 227.379 103.119 227.178 103.007C226.982 102.89 226.765 102.832 226.527 102.832C226.289 102.832 226.072 102.888 225.876 103C225.68 103.112 225.524 103.275 225.407 103.49C225.291 103.704 225.232 103.956 225.232 104.246C225.232 104.54 225.291 104.796 225.407 105.016C225.524 105.23 225.68 105.396 225.876 105.513C226.072 105.625 226.289 105.681 226.527 105.681C226.765 105.681 226.982 105.625 227.178 105.513C227.379 105.396 227.538 105.23 227.654 105.016C227.771 104.796 227.829 104.542 227.829 104.253ZM233.05 104.113C233.05 104.234 233.043 104.362 233.029 104.498H229.963C229.986 104.876 230.114 105.172 230.348 105.387C230.586 105.597 230.873 105.702 231.209 105.702C231.484 105.702 231.713 105.639 231.895 105.513C232.081 105.382 232.212 105.209 232.287 104.995H232.973C232.87 105.363 232.665 105.664 232.357 105.898C232.049 106.126 231.666 106.241 231.209 106.241C230.845 106.241 230.518 106.159 230.229 105.996C229.944 105.832 229.72 105.601 229.557 105.303C229.393 104.999 229.312 104.649 229.312 104.253C229.312 103.856 229.391 103.508 229.55 103.21C229.708 102.911 229.93 102.682 230.215 102.524C230.504 102.36 230.835 102.279 231.209 102.279C231.573 102.279 231.895 102.358 232.175 102.517C232.455 102.675 232.669 102.895 232.819 103.175C232.973 103.45 233.05 103.763 233.05 104.113ZM232.392 103.98C232.392 103.737 232.338 103.529 232.231 103.357C232.123 103.179 231.976 103.046 231.79 102.958C231.608 102.864 231.405 102.818 231.181 102.818C230.859 102.818 230.583 102.92 230.355 103.126C230.131 103.331 230.002 103.616 229.97 103.98H232.392ZM235.76 102.272C236.226 102.272 236.604 102.414 236.894 102.699C237.183 102.979 237.328 103.385 237.328 103.917V106.178H236.698V104.008C236.698 103.625 236.602 103.333 236.411 103.133C236.219 102.927 235.958 102.825 235.627 102.825C235.291 102.825 235.022 102.93 234.822 103.14C234.626 103.35 234.528 103.655 234.528 104.057V106.178H233.891V102.342H234.528V102.888C234.654 102.692 234.824 102.54 235.039 102.433C235.258 102.325 235.498 102.272 235.76 102.272ZM238.13 104.253C238.13 103.856 238.209 103.511 238.368 103.217C238.527 102.918 238.746 102.687 239.026 102.524C239.311 102.36 239.635 102.279 239.999 102.279C240.47 102.279 240.858 102.393 241.161 102.622C241.469 102.85 241.672 103.168 241.77 103.574H241.084C241.019 103.34 240.89 103.156 240.699 103.021C240.512 102.885 240.279 102.818 239.999 102.818C239.635 102.818 239.341 102.944 239.117 103.196C238.893 103.443 238.781 103.795 238.781 104.253C238.781 104.715 238.893 105.072 239.117 105.324C239.341 105.576 239.635 105.702 239.999 105.702C240.279 105.702 240.512 105.636 240.699 105.506C240.886 105.375 241.014 105.188 241.084 104.946H241.77C241.667 105.338 241.462 105.653 241.154 105.891C240.846 106.124 240.461 106.241 239.999 106.241C239.635 106.241 239.311 106.159 239.026 105.996C238.746 105.832 238.527 105.601 238.368 105.303C238.209 105.004 238.13 104.654 238.13 104.253ZM245.924 102.342L243.614 107.984H242.956L243.712 106.136L242.165 102.342H242.872L244.076 105.45L245.266 102.342H245.924ZM246.767 106.22C246.646 106.22 246.543 106.178 246.459 106.094C246.375 106.01 246.333 105.907 246.333 105.786C246.333 105.664 246.375 105.562 246.459 105.478C246.543 105.394 246.646 105.352 246.767 105.352C246.884 105.352 246.982 105.394 247.061 105.478C247.145 105.562 247.187 105.664 247.187 105.786C247.187 105.907 247.145 106.01 247.061 106.094C246.982 106.178 246.884 106.22 246.767 106.22Z" fill="#FCFCFC"/>
<defs>
<linearGradient id="paint0_linear_137_409" x1="282.71" y1="20.8178" x2="282.71" y2="66.8224" gradientUnits="userSpaceOnUse">
<stop stop-color="#FCFCFC" stop-opacity="0.99"/>
<stop offset="1" stop-color="#FCFCFC" stop-opacity="0"/>
</linearGradient>
</defs>
</svg>
