<svg width="160" height="118" viewBox="0 0 160 118" fill="none" xmlns="http://www.w3.org/2000/svg">
<g filter="url(#filter0_b_131_446)">
<rect width="160" height="117.209" rx="9.30233" fill="white" fill-opacity="0.04"/>
</g>
<path d="M43.7183 48.776C43.7183 47.944 43.8983 47.204 44.2583 46.556C44.6183 45.9 45.1183 45.392 45.7583 45.032C46.4063 44.664 47.1383 44.48 47.9543 44.48C48.9543 44.48 49.8103 44.744 50.5223 45.272C51.2343 45.8 51.7103 46.52 51.9503 47.432H49.6943C49.5263 47.08 49.2863 46.812 48.9743 46.628C48.6703 46.444 48.3223 46.352 47.9303 46.352C47.2983 46.352 46.7863 46.572 46.3943 47.012C46.0023 47.452 45.8063 48.04 45.8063 48.776C45.8063 49.512 46.0023 50.1 46.3943 50.54C46.7863 50.98 47.2983 51.2 47.9303 51.2C48.3223 51.2 48.6703 51.108 48.9743 50.924C49.2863 50.74 49.5263 50.472 49.6943 50.12H51.9503C51.7103 51.032 51.2343 51.752 50.5223 52.28C49.8103 52.8 48.9543 53.06 47.9543 53.06C47.1383 53.06 46.4063 52.88 45.7583 52.52C45.1183 52.152 44.6183 51.644 44.2583 50.996C43.8983 50.348 43.7183 49.608 43.7183 48.776ZM56.2549 53.096C55.5989 53.096 55.0069 52.956 54.4789 52.676C53.9589 52.396 53.5469 51.996 53.2429 51.476C52.9469 50.956 52.7989 50.348 52.7989 49.652C52.7989 48.964 52.9509 48.36 53.2549 47.84C53.5589 47.312 53.9749 46.908 54.5029 46.628C55.0309 46.348 55.6229 46.208 56.2789 46.208C56.9349 46.208 57.5269 46.348 58.0549 46.628C58.5829 46.908 58.9989 47.312 59.3029 47.84C59.6069 48.36 59.7589 48.964 59.7589 49.652C59.7589 50.34 59.6029 50.948 59.2909 51.476C58.9869 51.996 58.5669 52.396 58.0309 52.676C57.5029 52.956 56.9109 53.096 56.2549 53.096ZM56.2549 51.32C56.6469 51.32 56.9789 51.176 57.2509 50.888C57.5309 50.6 57.6709 50.188 57.6709 49.652C57.6709 49.116 57.5349 48.704 57.2629 48.416C56.9989 48.128 56.6709 47.984 56.2789 47.984C55.8789 47.984 55.5469 48.128 55.2829 48.416C55.0189 48.696 54.8869 49.108 54.8869 49.652C54.8869 50.188 55.0149 50.6 55.2709 50.888C55.5349 51.176 55.8629 51.32 56.2549 51.32ZM69.3915 46.232C70.2235 46.232 70.8835 46.484 71.3715 46.988C71.8675 47.492 72.1155 48.192 72.1155 49.088V53H70.0755V49.364C70.0755 48.932 69.9595 48.6 69.7275 48.368C69.5035 48.128 69.1915 48.008 68.7915 48.008C68.3915 48.008 68.0755 48.128 67.8435 48.368C67.6195 48.6 67.5075 48.932 67.5075 49.364V53H65.4675V49.364C65.4675 48.932 65.3515 48.6 65.1195 48.368C64.8955 48.128 64.5835 48.008 64.1835 48.008C63.7835 48.008 63.4675 48.128 63.2355 48.368C63.0115 48.6 62.8995 48.932 62.8995 49.364V53H60.8475V46.304H62.8995V47.144C63.1075 46.864 63.3795 46.644 63.7155 46.484C64.0515 46.316 64.4315 46.232 64.8555 46.232C65.3595 46.232 65.8075 46.34 66.1995 46.556C66.5995 46.772 66.9115 47.08 67.1355 47.48C67.3675 47.112 67.6835 46.812 68.0835 46.58C68.4835 46.348 68.9195 46.232 69.3915 46.232ZM82.0946 46.232C82.9266 46.232 83.5866 46.484 84.0746 46.988C84.5706 47.492 84.8186 48.192 84.8186 49.088V53H82.7786V49.364C82.7786 48.932 82.6626 48.6 82.4306 48.368C82.2066 48.128 81.8946 48.008 81.4946 48.008C81.0946 48.008 80.7786 48.128 80.5466 48.368C80.3226 48.6 80.2106 48.932 80.2106 49.364V53H78.1706V49.364C78.1706 48.932 78.0546 48.6 77.8226 48.368C77.5986 48.128 77.2866 48.008 76.8866 48.008C76.4866 48.008 76.1706 48.128 75.9386 48.368C75.7146 48.6 75.6026 48.932 75.6026 49.364V53H73.5506V46.304H75.6026V47.144C75.8106 46.864 76.0826 46.644 76.4186 46.484C76.7546 46.316 77.1346 46.232 77.5586 46.232C78.0626 46.232 78.5106 46.34 78.9026 46.556C79.3026 46.772 79.6146 47.08 79.8386 47.48C80.0706 47.112 80.3866 46.812 80.7866 46.58C81.1866 46.348 81.6226 46.232 82.0946 46.232ZM92.8658 46.304V53H90.8138V52.088C90.6058 52.384 90.3218 52.624 89.9618 52.808C89.6098 52.984 89.2178 53.072 88.7858 53.072C88.2738 53.072 87.8218 52.96 87.4298 52.736C87.0378 52.504 86.7338 52.172 86.5178 51.74C86.3018 51.308 86.1938 50.8 86.1938 50.216V46.304H88.2338V49.94C88.2338 50.388 88.3498 50.736 88.5818 50.984C88.8138 51.232 89.1258 51.356 89.5178 51.356C89.9178 51.356 90.2338 51.232 90.4658 50.984C90.6978 50.736 90.8138 50.388 90.8138 49.94V46.304H92.8658ZM98.4197 46.232C99.2037 46.232 99.8277 46.488 100.292 47C100.764 47.504 101 48.2 101 49.088V53H98.9597V49.364C98.9597 48.916 98.8437 48.568 98.6117 48.32C98.3797 48.072 98.0677 47.948 97.6757 47.948C97.2837 47.948 96.9717 48.072 96.7397 48.32C96.5077 48.568 96.3917 48.916 96.3917 49.364V53H94.3397V46.304H96.3917V47.192C96.5997 46.896 96.8797 46.664 97.2317 46.496C97.5837 46.32 97.9797 46.232 98.4197 46.232ZM103.458 45.608C103.098 45.608 102.802 45.504 102.57 45.296C102.346 45.08 102.234 44.816 102.234 44.504C102.234 44.184 102.346 43.92 102.57 43.712C102.802 43.496 103.098 43.388 103.458 43.388C103.81 43.388 104.098 43.496 104.322 43.712C104.554 43.92 104.67 44.184 104.67 44.504C104.67 44.816 104.554 45.08 104.322 45.296C104.098 45.504 103.81 45.608 103.458 45.608ZM104.478 46.304V53H102.426V46.304H104.478ZM109.697 51.26V53H108.653C107.909 53 107.329 52.82 106.913 52.46C106.497 52.092 106.289 51.496 106.289 50.672V48.008H105.473V46.304H106.289V44.672H108.341V46.304H109.685V48.008H108.341V50.696C108.341 50.896 108.389 51.04 108.485 51.128C108.581 51.216 108.741 51.26 108.965 51.26H109.697ZM117.68 46.304L113.48 56.18H111.272L112.808 52.772L110.084 46.304H112.376L113.924 50.492L115.46 46.304H117.68ZM68.605 63.576V65.22H65.173V66.996H67.741V68.592H65.173V72H63.121V63.576H68.605ZM72.7315 72.096C72.0755 72.096 71.4835 71.956 70.9555 71.676C70.4355 71.396 70.0235 70.996 69.7195 70.476C69.4235 69.956 69.2755 69.348 69.2755 68.652C69.2755 67.964 69.4275 67.36 69.7315 66.84C70.0355 66.312 70.4515 65.908 70.9795 65.628C71.5075 65.348 72.0995 65.208 72.7555 65.208C73.4115 65.208 74.0035 65.348 74.5315 65.628C75.0595 65.908 75.4755 66.312 75.7795 66.84C76.0835 67.36 76.2355 67.964 76.2355 68.652C76.2355 69.34 76.0795 69.948 75.7675 70.476C75.4635 70.996 75.0435 71.396 74.5075 71.676C73.9795 71.956 73.3875 72.096 72.7315 72.096ZM72.7315 70.32C73.1235 70.32 73.4555 70.176 73.7275 69.888C74.0075 69.6 74.1475 69.188 74.1475 68.652C74.1475 68.116 74.0115 67.704 73.7395 67.416C73.4755 67.128 73.1475 66.984 72.7555 66.984C72.3555 66.984 72.0235 67.128 71.7595 67.416C71.4955 67.696 71.3635 68.108 71.3635 68.652C71.3635 69.188 71.4915 69.6 71.7475 69.888C72.0115 70.176 72.3395 70.32 72.7315 70.32ZM76.9161 68.652C76.9161 67.956 77.0561 67.348 77.3361 66.828C77.6241 66.308 78.0201 65.908 78.5241 65.628C79.0361 65.348 79.6201 65.208 80.2761 65.208C81.1161 65.208 81.8161 65.428 82.3761 65.868C82.9441 66.308 83.3161 66.928 83.4921 67.728H81.3081C81.1241 67.216 80.7681 66.96 80.2401 66.96C79.8641 66.96 79.5641 67.108 79.3401 67.404C79.1161 67.692 79.0041 68.108 79.0041 68.652C79.0041 69.196 79.1161 69.616 79.3401 69.912C79.5641 70.2 79.8641 70.344 80.2401 70.344C80.7681 70.344 81.1241 70.088 81.3081 69.576H83.4921C83.3161 70.36 82.9441 70.976 82.3761 71.424C81.8081 71.872 81.1081 72.096 80.2761 72.096C79.6201 72.096 79.0361 71.956 78.5241 71.676C78.0201 71.396 77.6241 70.996 77.3361 70.476C77.0561 69.956 76.9161 69.348 76.9161 68.652ZM91.2017 65.304V72H89.1497V71.088C88.9417 71.384 88.6577 71.624 88.2977 71.808C87.9457 71.984 87.5537 72.072 87.1217 72.072C86.6097 72.072 86.1577 71.96 85.7657 71.736C85.3737 71.504 85.0697 71.172 84.8537 70.74C84.6377 70.308 84.5297 69.8 84.5297 69.216V65.304H86.5697V68.94C86.5697 69.388 86.6857 69.736 86.9177 69.984C87.1497 70.232 87.4617 70.356 87.8537 70.356C88.2537 70.356 88.5697 70.232 88.8017 69.984C89.0337 69.736 89.1497 69.388 89.1497 68.94V65.304H91.2017ZM95.3996 72.096C94.8156 72.096 94.2956 71.996 93.8396 71.796C93.3836 71.596 93.0236 71.324 92.7596 70.98C92.4956 70.628 92.3476 70.236 92.3156 69.804H94.3436C94.3676 70.036 94.4756 70.224 94.6676 70.368C94.8596 70.512 95.0956 70.584 95.3756 70.584C95.6316 70.584 95.8276 70.536 95.9636 70.44C96.1076 70.336 96.1796 70.204 96.1796 70.044C96.1796 69.852 96.0796 69.712 95.8796 69.624C95.6796 69.528 95.3556 69.424 94.9076 69.312C94.4276 69.2 94.0276 69.084 93.7076 68.964C93.3876 68.836 93.1116 68.64 92.8796 68.376C92.6476 68.104 92.5316 67.74 92.5316 67.284C92.5316 66.9 92.6356 66.552 92.8436 66.24C93.0596 65.92 93.3716 65.668 93.7796 65.484C94.1956 65.3 94.6876 65.208 95.2556 65.208C96.0956 65.208 96.7556 65.416 97.2356 65.832C97.7236 66.248 98.0036 66.8 98.0756 67.488H96.1796C96.1476 67.256 96.0436 67.072 95.8676 66.936C95.6996 66.8 95.4756 66.732 95.1956 66.732C94.9556 66.732 94.7716 66.78 94.6436 66.876C94.5156 66.964 94.4516 67.088 94.4516 67.248C94.4516 67.44 94.5516 67.584 94.7516 67.68C94.9596 67.776 95.2796 67.872 95.7116 67.968C96.2076 68.096 96.6116 68.224 96.9236 68.352C97.2356 68.472 97.5076 68.672 97.7396 68.952C97.9796 69.224 98.1036 69.592 98.1116 70.056C98.1116 70.448 97.9996 70.8 97.7756 71.112C97.5596 71.416 97.2436 71.656 96.8276 71.832C96.4196 72.008 95.9436 72.096 95.3996 72.096Z" fill="#FCFCFC"/>
<defs>
<filter id="filter0_b_131_446" x="-9.30233" y="-9.30233" width="178.605" height="135.814" filterUnits="userSpaceOnUse" color-interpolation-filters="sRGB">
<feFlood flood-opacity="0" result="BackgroundImageFix"/>
<feGaussianBlur in="BackgroundImage" stdDeviation="4.65116"/>
<feComposite in2="SourceAlpha" operator="in" result="effect1_backgroundBlur_131_446"/>
<feBlend mode="normal" in="SourceGraphic" in2="effect1_backgroundBlur_131_446" result="shape"/>
</filter>
</defs>
</svg>
