<svg width="160" height="118" viewBox="0 0 160 118" fill="none" xmlns="http://www.w3.org/2000/svg">
<g filter="url(#filter0_b_131_430)">
<rect width="160" height="117.209" rx="9.30233" fill="white" fill-opacity="0.04"/>
</g>
<path d="M56.652 54.576L53.664 63H51.096L48.108 54.576H50.292L52.38 60.936L54.48 54.576H56.652ZM63.8216 59.544C63.8216 59.736 63.8096 59.936 63.7856 60.144H59.1416C59.1736 60.56 59.3056 60.88 59.5376 61.104C59.7776 61.32 60.0696 61.428 60.4136 61.428C60.9256 61.428 61.2816 61.212 61.4816 60.78H63.6656C63.5536 61.22 63.3496 61.616 63.0536 61.968C62.7656 62.32 62.4016 62.596 61.9616 62.796C61.5216 62.996 61.0296 63.096 60.4856 63.096C59.8296 63.096 59.2456 62.956 58.7336 62.676C58.2216 62.396 57.8216 61.996 57.5336 61.476C57.2456 60.956 57.1016 60.348 57.1016 59.652C57.1016 58.956 57.2416 58.348 57.5216 57.828C57.8096 57.308 58.2096 56.908 58.7216 56.628C59.2336 56.348 59.8216 56.208 60.4856 56.208C61.1336 56.208 61.7096 56.344 62.2136 56.616C62.7176 56.888 63.1096 57.276 63.3896 57.78C63.6776 58.284 63.8216 58.872 63.8216 59.544ZM61.7216 59.004C61.7216 58.652 61.6016 58.372 61.3616 58.164C61.1216 57.956 60.8216 57.852 60.4616 57.852C60.1176 57.852 59.8256 57.952 59.5856 58.152C59.3536 58.352 59.2096 58.636 59.1536 59.004H61.7216ZM66.9562 57.42C67.1962 57.052 67.4962 56.764 67.8562 56.556C68.2162 56.34 68.6162 56.232 69.0562 56.232V58.404H68.4922C67.9802 58.404 67.5962 58.516 67.3402 58.74C67.0842 58.956 66.9562 59.34 66.9562 59.892V63H64.9042V56.304H66.9562V57.42ZM72.761 63.096C72.177 63.096 71.657 62.996 71.201 62.796C70.745 62.596 70.385 62.324 70.121 61.98C69.857 61.628 69.709 61.236 69.677 60.804H71.705C71.729 61.036 71.837 61.224 72.029 61.368C72.221 61.512 72.457 61.584 72.737 61.584C72.993 61.584 73.189 61.536 73.325 61.44C73.469 61.336 73.541 61.204 73.541 61.044C73.541 60.852 73.441 60.712 73.241 60.624C73.041 60.528 72.717 60.424 72.269 60.312C71.789 60.2 71.389 60.084 71.069 59.964C70.749 59.836 70.473 59.64 70.241 59.376C70.009 59.104 69.893 58.74 69.893 58.284C69.893 57.9 69.997 57.552 70.205 57.24C70.421 56.92 70.733 56.668 71.141 56.484C71.557 56.3 72.049 56.208 72.617 56.208C73.457 56.208 74.117 56.416 74.597 56.832C75.085 57.248 75.365 57.8 75.437 58.488H73.541C73.509 58.256 73.405 58.072 73.229 57.936C73.061 57.8 72.837 57.732 72.557 57.732C72.317 57.732 72.133 57.78 72.005 57.876C71.877 57.964 71.813 58.088 71.813 58.248C71.813 58.44 71.913 58.584 72.113 58.68C72.321 58.776 72.641 58.872 73.073 58.968C73.569 59.096 73.973 59.224 74.285 59.352C74.597 59.472 74.869 59.672 75.101 59.952C75.341 60.224 75.465 60.592 75.473 61.056C75.473 61.448 75.361 61.8 75.137 62.112C74.921 62.416 74.605 62.656 74.189 62.832C73.781 63.008 73.305 63.096 72.761 63.096ZM76.3204 59.64C76.3204 58.952 76.4484 58.348 76.7044 57.828C76.9684 57.308 77.3244 56.908 77.7724 56.628C78.2204 56.348 78.7204 56.208 79.2724 56.208C79.7444 56.208 80.1564 56.304 80.5084 56.496C80.8684 56.688 81.1444 56.94 81.3364 57.252V56.304H83.3884V63H81.3364V62.052C81.1364 62.364 80.8564 62.616 80.4964 62.808C80.1444 63 79.7324 63.096 79.2604 63.096C78.7164 63.096 78.2204 62.956 77.7724 62.676C77.3244 62.388 76.9684 61.984 76.7044 61.464C76.4484 60.936 76.3204 60.328 76.3204 59.64ZM81.3364 59.652C81.3364 59.14 81.1924 58.736 80.9044 58.44C80.6244 58.144 80.2804 57.996 79.8724 57.996C79.4644 57.996 79.1164 58.144 78.8284 58.44C78.5484 58.728 78.4084 59.128 78.4084 59.64C78.4084 60.152 78.5484 60.56 78.8284 60.864C79.1164 61.16 79.4644 61.308 79.8724 61.308C80.2804 61.308 80.6244 61.16 80.9044 60.864C81.1924 60.568 81.3364 60.164 81.3364 59.652ZM88.6049 61.26V63H87.5609C86.8169 63 86.2369 62.82 85.8209 62.46C85.4049 62.092 85.1969 61.496 85.1969 60.672V58.008H84.3809V56.304H85.1969V54.672H87.2489V56.304H88.5929V58.008H87.2489V60.696C87.2489 60.896 87.2969 61.04 87.3929 61.128C87.4889 61.216 87.6489 61.26 87.8729 61.26H88.6049ZM90.7799 55.608C90.4199 55.608 90.1239 55.504 89.8919 55.296C89.6679 55.08 89.5559 54.816 89.5559 54.504C89.5559 54.184 89.6679 53.92 89.8919 53.712C90.1239 53.496 90.4199 53.388 90.7799 53.388C91.1319 53.388 91.4199 53.496 91.6439 53.712C91.8759 53.92 91.9919 54.184 91.9919 54.504C91.9919 54.816 91.8759 55.08 91.6439 55.296C91.4199 55.504 91.1319 55.608 90.7799 55.608ZM91.7999 56.304V63H89.7479V56.304H91.7999ZM95.339 54.12V63H93.287V54.12H95.339ZM97.858 55.608C97.498 55.608 97.202 55.504 96.97 55.296C96.746 55.08 96.634 54.816 96.634 54.504C96.634 54.184 96.746 53.92 96.97 53.712C97.202 53.496 97.498 53.388 97.858 53.388C98.21 53.388 98.498 53.496 98.722 53.712C98.954 53.92 99.07 54.184 99.07 54.504C99.07 54.816 98.954 55.08 98.722 55.296C98.498 55.504 98.21 55.608 97.858 55.608ZM98.878 56.304V63H96.826V56.304H98.878ZM104.097 61.26V63H103.053C102.309 63 101.729 62.82 101.313 62.46C100.897 62.092 100.689 61.496 100.689 60.672V58.008H99.8731V56.304H100.689V54.672H102.741V56.304H104.085V58.008H102.741V60.696C102.741 60.896 102.789 61.04 102.885 61.128C102.981 61.216 103.141 61.26 103.365 61.26H104.097ZM112.08 56.304L107.88 66.18H105.672L107.208 62.772L104.484 56.304H106.776L108.324 60.492L109.86 56.304H112.08Z" fill="#FCFCFC"/>
<defs>
<filter id="filter0_b_131_430" x="-9.30233" y="-9.30233" width="178.605" height="135.814" filterUnits="userSpaceOnUse" color-interpolation-filters="sRGB">
<feFlood flood-opacity="0" result="BackgroundImageFix"/>
<feGaussianBlur in="BackgroundImage" stdDeviation="4.65116"/>
<feComposite in2="SourceAlpha" operator="in" result="effect1_backgroundBlur_131_430"/>
<feBlend mode="normal" in="SourceGraphic" in2="effect1_backgroundBlur_131_430" result="shape"/>
</filter>
</defs>
</svg>
