<svg width="160" height="118" viewBox="0 0 160 118" fill="none" xmlns="http://www.w3.org/2000/svg">
<g filter="url(#filter0_b_131_440)">
<rect width="160" height="117.209" rx="9.30233" fill="white" fill-opacity="0.04"/>
</g>
<path d="M60.9168 44.576V53H58.8648V47.948L56.9808 53H55.3248L53.4288 47.936V53H51.3768V44.576H53.8008L56.1648 50.408L58.5048 44.576H60.9168ZM69.0044 46.304V53H66.9524V52.088C66.7444 52.384 66.4604 52.624 66.1004 52.808C65.7484 52.984 65.3564 53.072 64.9244 53.072C64.4124 53.072 63.9604 52.96 63.5684 52.736C63.1764 52.504 62.8724 52.172 62.6564 51.74C62.4404 51.308 62.3324 50.8 62.3324 50.216V46.304H64.3724V49.94C64.3724 50.388 64.4884 50.736 64.7204 50.984C64.9524 51.232 65.2644 51.356 65.6564 51.356C66.0564 51.356 66.3724 51.232 66.6044 50.984C66.8364 50.736 66.9524 50.388 66.9524 49.94V46.304H69.0044ZM72.5304 44.12V53H70.4784V44.12H72.5304ZM77.7494 51.26V53H76.7054C75.9614 53 75.3814 52.82 74.9654 52.46C74.5494 52.092 74.3414 51.496 74.3414 50.672V48.008H73.5254V46.304H74.3414V44.672H76.3934V46.304H77.7374V48.008H76.3934V50.696C76.3934 50.896 76.4414 51.04 76.5374 51.128C76.6334 51.216 76.7934 51.26 77.0174 51.26H77.7494ZM79.9244 45.608C79.5644 45.608 79.2684 45.504 79.0364 45.296C78.8124 45.08 78.7004 44.816 78.7004 44.504C78.7004 44.184 78.8124 43.92 79.0364 43.712C79.2684 43.496 79.5644 43.388 79.9244 43.388C80.2764 43.388 80.5644 43.496 80.7884 43.712C81.0204 43.92 81.1364 44.184 81.1364 44.504C81.1364 44.816 81.0204 45.08 80.7884 45.296C80.5644 45.504 80.2764 45.608 79.9244 45.608ZM80.9444 46.304V53H78.8924V46.304H80.9444ZM90.2185 51.512H87.0745L86.5705 53H84.4225L87.4705 44.576H89.8465L92.8945 53H90.7225L90.2185 51.512ZM89.6905 49.928L88.6465 46.844L87.6145 49.928H89.6905ZM95.8741 47.252C96.0741 46.94 96.3501 46.688 96.7021 46.496C97.0541 46.304 97.4661 46.208 97.9381 46.208C98.4901 46.208 98.9901 46.348 99.4381 46.628C99.8861 46.908 100.238 47.308 100.494 47.828C100.758 48.348 100.89 48.952 100.89 49.64C100.89 50.328 100.758 50.936 100.494 51.464C100.238 51.984 99.8861 52.388 99.4381 52.676C98.9901 52.956 98.4901 53.096 97.9381 53.096C97.4741 53.096 97.0621 53 96.7021 52.808C96.3501 52.616 96.0741 52.368 95.8741 52.064V56.192H93.8221V46.304H95.8741V47.252ZM98.8021 49.64C98.8021 49.128 98.6581 48.728 98.3701 48.44C98.0901 48.144 97.7421 47.996 97.3261 47.996C96.9181 47.996 96.5701 48.144 96.2821 48.44C96.0021 48.736 95.8621 49.14 95.8621 49.652C95.8621 50.164 96.0021 50.568 96.2821 50.864C96.5701 51.16 96.9181 51.308 97.3261 51.308C97.7341 51.308 98.0821 51.16 98.3701 50.864C98.6581 50.56 98.8021 50.152 98.8021 49.64ZM104.019 47.252C104.219 46.94 104.495 46.688 104.847 46.496C105.199 46.304 105.611 46.208 106.083 46.208C106.635 46.208 107.135 46.348 107.583 46.628C108.031 46.908 108.383 47.308 108.639 47.828C108.903 48.348 109.035 48.952 109.035 49.64C109.035 50.328 108.903 50.936 108.639 51.464C108.383 51.984 108.031 52.388 107.583 52.676C107.135 52.956 106.635 53.096 106.083 53.096C105.619 53.096 105.207 53 104.847 52.808C104.495 52.616 104.219 52.368 104.019 52.064V56.192H101.967V46.304H104.019V47.252ZM106.947 49.64C106.947 49.128 106.803 48.728 106.515 48.44C106.235 48.144 105.887 47.996 105.471 47.996C105.063 47.996 104.715 48.144 104.427 48.44C104.147 48.736 104.007 49.14 104.007 49.652C104.007 50.164 104.147 50.568 104.427 50.864C104.715 51.16 105.063 51.308 105.471 51.308C105.879 51.308 106.227 51.16 106.515 50.864C106.803 50.56 106.947 50.152 106.947 49.64ZM48.2899 63.576V72H46.2379V66.948L44.3539 72H42.6979L40.8019 66.936V72H38.7499V63.576H41.1739L43.5379 69.408L45.8779 63.576H48.2899ZM49.3575 68.64C49.3575 67.952 49.4855 67.348 49.7415 66.828C50.0055 66.308 50.3615 65.908 50.8095 65.628C51.2575 65.348 51.7575 65.208 52.3095 65.208C52.7815 65.208 53.1935 65.304 53.5455 65.496C53.9055 65.688 54.1815 65.94 54.3735 66.252V65.304H56.4255V72H54.3735V71.052C54.1735 71.364 53.8935 71.616 53.5335 71.808C53.1815 72 52.7695 72.096 52.2975 72.096C51.7535 72.096 51.2575 71.956 50.8095 71.676C50.3615 71.388 50.0055 70.984 49.7415 70.464C49.4855 69.936 49.3575 69.328 49.3575 68.64ZM54.3735 68.652C54.3735 68.14 54.2295 67.736 53.9415 67.44C53.6615 67.144 53.3175 66.996 52.9095 66.996C52.5015 66.996 52.1535 67.144 51.8655 67.44C51.5855 67.728 51.4455 68.128 51.4455 68.64C51.4455 69.152 51.5855 69.56 51.8655 69.864C52.1535 70.16 52.5015 70.308 52.9095 70.308C53.3175 70.308 53.6615 70.16 53.9415 69.864C54.2295 69.568 54.3735 69.164 54.3735 68.652ZM61.99 65.232C62.774 65.232 63.398 65.488 63.862 66C64.334 66.504 64.57 67.2 64.57 68.088V72H62.53V68.364C62.53 67.916 62.414 67.568 62.182 67.32C61.95 67.072 61.638 66.948 61.246 66.948C60.854 66.948 60.542 67.072 60.31 67.32C60.078 67.568 59.962 67.916 59.962 68.364V72H57.91V65.304H59.962V66.192C60.17 65.896 60.45 65.664 60.802 65.496C61.154 65.32 61.55 65.232 61.99 65.232ZM65.588 68.64C65.588 67.952 65.716 67.348 65.972 66.828C66.236 66.308 66.592 65.908 67.04 65.628C67.488 65.348 67.988 65.208 68.54 65.208C69.012 65.208 69.424 65.304 69.776 65.496C70.136 65.688 70.412 65.94 70.604 66.252V65.304H72.656V72H70.604V71.052C70.404 71.364 70.124 71.616 69.764 71.808C69.412 72 69 72.096 68.528 72.096C67.984 72.096 67.488 71.956 67.04 71.676C66.592 71.388 66.236 70.984 65.972 70.464C65.716 69.936 65.588 69.328 65.588 68.64ZM70.604 68.652C70.604 68.14 70.46 67.736 70.172 67.44C69.892 67.144 69.548 66.996 69.14 66.996C68.732 66.996 68.384 67.144 68.096 67.44C67.816 67.728 67.676 68.128 67.676 68.64C67.676 69.152 67.816 69.56 68.096 69.864C68.384 70.16 68.732 70.308 69.14 70.308C69.548 70.308 69.892 70.16 70.172 69.864C70.46 69.568 70.604 69.164 70.604 68.652ZM76.6845 65.208C77.1565 65.208 77.5685 65.304 77.9205 65.496C78.2805 65.688 78.5565 65.94 78.7485 66.252V65.304H80.8005V71.988C80.8005 72.604 80.6765 73.16 80.4285 73.656C80.1885 74.16 79.8165 74.56 79.3125 74.856C78.8165 75.152 78.1965 75.3 77.4525 75.3C76.4605 75.3 75.6565 75.064 75.0405 74.592C74.4245 74.128 74.0725 73.496 73.9845 72.696H76.0125C76.0765 72.952 76.2285 73.152 76.4685 73.296C76.7085 73.448 77.0045 73.524 77.3565 73.524C77.7805 73.524 78.1165 73.4 78.3645 73.152C78.6205 72.912 78.7485 72.524 78.7485 71.988V71.04C78.5485 71.352 78.2725 71.608 77.9205 71.808C77.5685 72 77.1565 72.096 76.6845 72.096C76.1325 72.096 75.6325 71.956 75.1845 71.676C74.7365 71.388 74.3805 70.984 74.1165 70.464C73.8605 69.936 73.7325 69.328 73.7325 68.64C73.7325 67.952 73.8605 67.348 74.1165 66.828C74.3805 66.308 74.7365 65.908 75.1845 65.628C75.6325 65.348 76.1325 65.208 76.6845 65.208ZM78.7485 68.652C78.7485 68.14 78.6045 67.736 78.3165 67.44C78.0365 67.144 77.6925 66.996 77.2845 66.996C76.8765 66.996 76.5285 67.144 76.2405 67.44C75.9605 67.728 75.8205 68.128 75.8205 68.64C75.8205 69.152 75.9605 69.56 76.2405 69.864C76.5285 70.16 76.8765 70.308 77.2845 70.308C77.6925 70.308 78.0365 70.16 78.3165 69.864C78.6045 69.568 78.7485 69.164 78.7485 68.652ZM88.597 68.544C88.597 68.736 88.585 68.936 88.561 69.144H83.917C83.949 69.56 84.081 69.88 84.313 70.104C84.553 70.32 84.845 70.428 85.189 70.428C85.701 70.428 86.057 70.212 86.257 69.78H88.441C88.329 70.22 88.125 70.616 87.829 70.968C87.541 71.32 87.177 71.596 86.737 71.796C86.297 71.996 85.805 72.096 85.261 72.096C84.605 72.096 84.021 71.956 83.509 71.676C82.997 71.396 82.597 70.996 82.309 70.476C82.021 69.956 81.877 69.348 81.877 68.652C81.877 67.956 82.017 67.348 82.297 66.828C82.585 66.308 82.985 65.908 83.497 65.628C84.009 65.348 84.597 65.208 85.261 65.208C85.909 65.208 86.485 65.344 86.989 65.616C87.493 65.888 87.885 66.276 88.165 66.78C88.453 67.284 88.597 67.872 88.597 68.544ZM86.497 68.004C86.497 67.652 86.377 67.372 86.137 67.164C85.897 66.956 85.597 66.852 85.237 66.852C84.893 66.852 84.601 66.952 84.361 67.152C84.129 67.352 83.985 67.636 83.929 68.004H86.497ZM98.2235 65.232C99.0555 65.232 99.7155 65.484 100.204 65.988C100.7 66.492 100.948 67.192 100.948 68.088V72H98.9075V68.364C98.9075 67.932 98.7915 67.6 98.5595 67.368C98.3355 67.128 98.0235 67.008 97.6235 67.008C97.2235 67.008 96.9075 67.128 96.6755 67.368C96.4515 67.6 96.3395 67.932 96.3395 68.364V72H94.2995V68.364C94.2995 67.932 94.1835 67.6 93.9515 67.368C93.7275 67.128 93.4155 67.008 93.0155 67.008C92.6155 67.008 92.2995 67.128 92.0675 67.368C91.8435 67.6 91.7315 67.932 91.7315 68.364V72H89.6795V65.304H91.7315V66.144C91.9395 65.864 92.2115 65.644 92.5475 65.484C92.8835 65.316 93.2635 65.232 93.6875 65.232C94.1915 65.232 94.6395 65.34 95.0315 65.556C95.4315 65.772 95.7435 66.08 95.9675 66.48C96.1995 66.112 96.5155 65.812 96.9155 65.58C97.3155 65.348 97.7515 65.232 98.2235 65.232ZM108.695 68.544C108.695 68.736 108.683 68.936 108.659 69.144H104.015C104.047 69.56 104.179 69.88 104.411 70.104C104.651 70.32 104.943 70.428 105.287 70.428C105.799 70.428 106.155 70.212 106.355 69.78H108.539C108.427 70.22 108.223 70.616 107.927 70.968C107.639 71.32 107.275 71.596 106.835 71.796C106.395 71.996 105.903 72.096 105.359 72.096C104.703 72.096 104.119 71.956 103.607 71.676C103.095 71.396 102.695 70.996 102.407 70.476C102.119 69.956 101.975 69.348 101.975 68.652C101.975 67.956 102.115 67.348 102.395 66.828C102.683 66.308 103.083 65.908 103.595 65.628C104.107 65.348 104.695 65.208 105.359 65.208C106.007 65.208 106.583 65.344 107.087 65.616C107.591 65.888 107.983 66.276 108.263 66.78C108.551 67.284 108.695 67.872 108.695 68.544ZM106.595 68.004C106.595 67.652 106.475 67.372 106.235 67.164C105.995 66.956 105.695 66.852 105.335 66.852C104.991 66.852 104.699 66.952 104.459 67.152C104.227 67.352 104.083 67.636 104.027 68.004H106.595ZM113.857 65.232C114.641 65.232 115.265 65.488 115.729 66C116.201 66.504 116.437 67.2 116.437 68.088V72H114.397V68.364C114.397 67.916 114.281 67.568 114.049 67.32C113.817 67.072 113.505 66.948 113.113 66.948C112.721 66.948 112.409 67.072 112.177 67.32C111.945 67.568 111.829 67.916 111.829 68.364V72H109.777V65.304H111.829V66.192C112.037 65.896 112.317 65.664 112.669 65.496C113.021 65.32 113.417 65.232 113.857 65.232ZM121.595 70.26V72H120.551C119.807 72 119.227 71.82 118.811 71.46C118.395 71.092 118.187 70.496 118.187 69.672V67.008H117.371V65.304H118.187V63.672H120.239V65.304H121.583V67.008H120.239V69.696C120.239 69.896 120.287 70.04 120.383 70.128C120.479 70.216 120.639 70.26 120.863 70.26H121.595Z" fill="#FCFCFC"/>
<defs>
<filter id="filter0_b_131_440" x="-9.30233" y="-9.30233" width="178.605" height="135.814" filterUnits="userSpaceOnUse" color-interpolation-filters="sRGB">
<feFlood flood-opacity="0" result="BackgroundImageFix"/>
<feGaussianBlur in="BackgroundImage" stdDeviation="4.65116"/>
<feComposite in2="SourceAlpha" operator="in" result="effect1_backgroundBlur_131_440"/>
<feBlend mode="normal" in="SourceGraphic" in2="effect1_backgroundBlur_131_440" result="shape"/>
</filter>
</defs>
</svg>
