<svg width="160" height="118" viewBox="0 0 160 118" fill="none" xmlns="http://www.w3.org/2000/svg">
<g filter="url(#filter0_b_131_435)">
<rect width="160" height="117.209" rx="9.30233" fill="white" fill-opacity="0.04"/>
</g>
<path d="M47.2983 44.576V46.22H43.8663V47.996H46.4343V49.592H43.8663V53H41.8143V44.576H47.2983ZM54.9888 46.304V53H52.9368V52.088C52.7288 52.384 52.4448 52.624 52.0848 52.808C51.7328 52.984 51.3408 53.072 50.9088 53.072C50.3968 53.072 49.9448 52.96 49.5528 52.736C49.1608 52.504 48.8568 52.172 48.6408 51.74C48.4248 51.308 48.3168 50.8 48.3168 50.216V46.304H50.3568V49.94C50.3568 50.388 50.4728 50.736 50.7048 50.984C50.9368 51.232 51.2488 51.356 51.6408 51.356C52.0408 51.356 52.3568 51.232 52.5888 50.984C52.8208 50.736 52.9368 50.388 52.9368 49.94V46.304H54.9888ZM58.5148 44.12V53H56.4628V44.12H58.5148ZM62.0538 44.12V53H60.0018V44.12H62.0538ZM70.3809 46.304L66.1809 56.18H63.9729L65.5089 52.772L62.7849 46.304H65.0769L66.6249 50.492L68.1609 46.304H70.3809ZM76.8219 44.576C77.7099 44.576 78.4859 44.752 79.1499 45.104C79.8139 45.456 80.3259 45.952 80.6859 46.592C81.0539 47.224 81.2379 47.956 81.2379 48.788C81.2379 49.612 81.0539 50.344 80.6859 50.984C80.3259 51.624 79.8099 52.12 79.1379 52.472C78.4739 52.824 77.7019 53 76.8219 53H73.6659V44.576H76.8219ZM76.6899 51.224C77.4659 51.224 78.0699 51.012 78.5019 50.588C78.9339 50.164 79.1499 49.564 79.1499 48.788C79.1499 48.012 78.9339 47.408 78.5019 46.976C78.0699 46.544 77.4659 46.328 76.6899 46.328H75.7179V51.224H76.6899ZM85.4326 53.096C84.7766 53.096 84.1846 52.956 83.6566 52.676C83.1366 52.396 82.7246 51.996 82.4206 51.476C82.1246 50.956 81.9766 50.348 81.9766 49.652C81.9766 48.964 82.1286 48.36 82.4326 47.84C82.7366 47.312 83.1526 46.908 83.6806 46.628C84.2086 46.348 84.8006 46.208 85.4566 46.208C86.1126 46.208 86.7046 46.348 87.2326 46.628C87.7606 46.908 88.1766 47.312 88.4806 47.84C88.7846 48.36 88.9366 48.964 88.9366 49.652C88.9366 50.34 88.7806 50.948 88.4686 51.476C88.1646 51.996 87.7446 52.396 87.2086 52.676C86.6806 52.956 86.0886 53.096 85.4326 53.096ZM85.4326 51.32C85.8246 51.32 86.1566 51.176 86.4286 50.888C86.7086 50.6 86.8486 50.188 86.8486 49.652C86.8486 49.116 86.7126 48.704 86.4406 48.416C86.1766 48.128 85.8486 47.984 85.4566 47.984C85.0566 47.984 84.7246 48.128 84.4606 48.416C84.1966 48.696 84.0646 49.108 84.0646 49.652C84.0646 50.188 84.1926 50.6 84.4486 50.888C84.7126 51.176 85.0406 51.32 85.4326 51.32ZM93.9853 53L92.7013 51.14L91.6213 53H89.4013L91.6093 49.58L89.3413 46.304H91.6453L92.9293 48.152L94.0093 46.304H96.2293L93.9853 49.676L96.2893 53H93.9853ZM101.04 53L99.7559 51.14L98.6759 53H96.4559L98.6639 49.58L96.3959 46.304H98.6999L99.9839 48.152L101.064 46.304H103.284L101.04 49.676L103.344 53H101.04ZM110.447 49.544C110.447 49.736 110.435 49.936 110.411 50.144H105.767C105.799 50.56 105.931 50.88 106.163 51.104C106.403 51.32 106.695 51.428 107.039 51.428C107.551 51.428 107.907 51.212 108.107 50.78H110.291C110.179 51.22 109.975 51.616 109.679 51.968C109.391 52.32 109.027 52.596 108.587 52.796C108.147 52.996 107.655 53.096 107.111 53.096C106.455 53.096 105.871 52.956 105.359 52.676C104.847 52.396 104.447 51.996 104.159 51.476C103.871 50.956 103.727 50.348 103.727 49.652C103.727 48.956 103.867 48.348 104.147 47.828C104.435 47.308 104.835 46.908 105.347 46.628C105.859 46.348 106.447 46.208 107.111 46.208C107.759 46.208 108.335 46.344 108.839 46.616C109.343 46.888 109.735 47.276 110.015 47.78C110.303 48.284 110.447 48.872 110.447 49.544ZM108.347 49.004C108.347 48.652 108.227 48.372 107.987 48.164C107.747 47.956 107.447 47.852 107.087 47.852C106.743 47.852 106.451 47.952 106.211 48.152C105.979 48.352 105.835 48.636 105.779 49.004H108.347ZM111.121 49.64C111.121 48.952 111.249 48.348 111.505 47.828C111.769 47.308 112.125 46.908 112.573 46.628C113.021 46.348 113.521 46.208 114.073 46.208C114.513 46.208 114.913 46.3 115.273 46.484C115.641 46.668 115.929 46.916 116.137 47.228V44.12H118.189V53H116.137V52.04C115.945 52.36 115.669 52.616 115.309 52.808C114.957 53 114.545 53.096 114.073 53.096C113.521 53.096 113.021 52.956 112.573 52.676C112.125 52.388 111.769 51.984 111.505 51.464C111.249 50.936 111.121 50.328 111.121 49.64ZM116.137 49.652C116.137 49.14 115.993 48.736 115.705 48.44C115.425 48.144 115.081 47.996 114.673 47.996C114.265 47.996 113.917 48.144 113.629 48.44C113.349 48.728 113.209 49.128 113.209 49.64C113.209 50.152 113.349 50.56 113.629 50.864C113.917 51.16 114.265 51.308 114.673 51.308C115.081 51.308 115.425 51.16 115.705 50.864C115.993 50.568 116.137 50.164 116.137 49.652ZM54.3778 63.576V72H52.3258V66.948L50.4418 72H48.7858L46.8898 66.936V72H44.8378V63.576H47.2617L49.6258 69.408L51.9658 63.576H54.3778ZM58.9014 72.096C58.2454 72.096 57.6534 71.956 57.1254 71.676C56.6054 71.396 56.1934 70.996 55.8894 70.476C55.5934 69.956 55.4454 69.348 55.4454 68.652C55.4454 67.964 55.5974 67.36 55.9014 66.84C56.2054 66.312 56.6214 65.908 57.1494 65.628C57.6774 65.348 58.2694 65.208 58.9254 65.208C59.5814 65.208 60.1734 65.348 60.7014 65.628C61.2294 65.908 61.6454 66.312 61.9494 66.84C62.2534 67.36 62.4054 67.964 62.4054 68.652C62.4054 69.34 62.2494 69.948 61.9374 70.476C61.6334 70.996 61.2134 71.396 60.6774 71.676C60.1494 71.956 59.5574 72.096 58.9014 72.096ZM58.9014 70.32C59.2934 70.32 59.6254 70.176 59.8974 69.888C60.1774 69.6 60.3174 69.188 60.3174 68.652C60.3174 68.116 60.1814 67.704 59.9094 67.416C59.6454 67.128 59.3174 66.984 58.9254 66.984C58.5254 66.984 58.1934 67.128 57.9294 67.416C57.6654 67.696 57.5334 68.108 57.5334 68.652C57.5334 69.188 57.6614 69.6 57.9174 69.888C58.1814 70.176 58.5094 70.32 58.9014 70.32ZM63.086 68.64C63.086 67.952 63.214 67.348 63.47 66.828C63.734 66.308 64.09 65.908 64.538 65.628C64.986 65.348 65.486 65.208 66.038 65.208C66.478 65.208 66.878 65.3 67.238 65.484C67.606 65.668 67.894 65.916 68.102 66.228V63.12H70.154V72H68.102V71.04C67.91 71.36 67.634 71.616 67.274 71.808C66.922 72 66.51 72.096 66.038 72.096C65.486 72.096 64.986 71.956 64.538 71.676C64.09 71.388 63.734 70.984 63.47 70.464C63.214 69.936 63.086 69.328 63.086 68.64ZM68.102 68.652C68.102 68.14 67.958 67.736 67.67 67.44C67.39 67.144 67.046 66.996 66.638 66.996C66.23 66.996 65.882 67.144 65.594 67.44C65.314 67.728 65.174 68.128 65.174 68.64C65.174 69.152 65.314 69.56 65.594 69.864C65.882 70.16 66.23 70.308 66.638 70.308C67.046 70.308 67.39 70.16 67.67 69.864C67.958 69.568 68.102 69.164 68.102 68.652ZM77.9505 68.544C77.9505 68.736 77.9385 68.936 77.9145 69.144H73.2705C73.3025 69.56 73.4345 69.88 73.6665 70.104C73.9065 70.32 74.1985 70.428 74.5425 70.428C75.0545 70.428 75.4105 70.212 75.6105 69.78H77.7945C77.6825 70.22 77.4785 70.616 77.1825 70.968C76.8945 71.32 76.5305 71.596 76.0905 71.796C75.6505 71.996 75.1585 72.096 74.6145 72.096C73.9585 72.096 73.3745 71.956 72.8625 71.676C72.3505 71.396 71.9505 70.996 71.6625 70.476C71.3745 69.956 71.2305 69.348 71.2305 68.652C71.2305 67.956 71.3705 67.348 71.6505 66.828C71.9385 66.308 72.3385 65.908 72.8505 65.628C73.3625 65.348 73.9505 65.208 74.6145 65.208C75.2625 65.208 75.8385 65.344 76.3425 65.616C76.8465 65.888 77.2385 66.276 77.5185 66.78C77.8065 67.284 77.9505 67.872 77.9505 68.544ZM75.8505 68.004C75.8505 67.652 75.7305 67.372 75.4905 67.164C75.2505 66.956 74.9505 66.852 74.5905 66.852C74.2465 66.852 73.9545 66.952 73.7145 67.152C73.4825 67.352 73.3385 67.636 73.2825 68.004H75.8505ZM81.0851 66.42C81.3251 66.052 81.6251 65.764 81.9851 65.556C82.3451 65.34 82.7451 65.232 83.1851 65.232V67.404H82.6211C82.1091 67.404 81.7251 67.516 81.4691 67.74C81.2131 67.956 81.0851 68.34 81.0851 68.892V72H79.0331V65.304H81.0851V66.42ZM83.7579 68.64C83.7579 67.952 83.8859 67.348 84.1419 66.828C84.4059 66.308 84.7619 65.908 85.2099 65.628C85.6579 65.348 86.1579 65.208 86.7099 65.208C87.1819 65.208 87.5939 65.304 87.9459 65.496C88.3059 65.688 88.5819 65.94 88.7739 66.252V65.304H90.8259V72H88.7739V71.052C88.5739 71.364 88.2939 71.616 87.9339 71.808C87.5819 72 87.1699 72.096 86.6979 72.096C86.1539 72.096 85.6579 71.956 85.2099 71.676C84.7619 71.388 84.4059 70.984 84.1419 70.464C83.8859 69.936 83.7579 69.328 83.7579 68.64ZM88.7739 68.652C88.7739 68.14 88.6299 67.736 88.3419 67.44C88.0619 67.144 87.7179 66.996 87.3099 66.996C86.9019 66.996 86.5539 67.144 86.2659 67.44C85.9859 67.728 85.8459 68.128 85.8459 68.64C85.8459 69.152 85.9859 69.56 86.2659 69.864C86.5539 70.16 86.9019 70.308 87.3099 70.308C87.7179 70.308 88.0619 70.16 88.3419 69.864C88.6299 69.568 88.7739 69.164 88.7739 68.652ZM96.0424 70.26V72H94.9984C94.2544 72 93.6744 71.82 93.2584 71.46C92.8424 71.092 92.6344 70.496 92.6344 69.672V67.008H91.8184V65.304H92.6344V63.672H94.6864V65.304H96.0304V67.008H94.6864V69.696C94.6864 69.896 94.7344 70.04 94.8304 70.128C94.9264 70.216 95.0864 70.26 95.3104 70.26H96.0424ZM100.233 72.096C99.5774 72.096 98.9854 71.956 98.4574 71.676C97.9374 71.396 97.5254 70.996 97.2214 70.476C96.9254 69.956 96.7774 69.348 96.7774 68.652C96.7774 67.964 96.9294 67.36 97.2334 66.84C97.5374 66.312 97.9534 65.908 98.4814 65.628C99.0094 65.348 99.6014 65.208 100.257 65.208C100.913 65.208 101.505 65.348 102.033 65.628C102.561 65.908 102.977 66.312 103.281 66.84C103.585 67.36 103.737 67.964 103.737 68.652C103.737 69.34 103.581 69.948 103.269 70.476C102.965 70.996 102.545 71.396 102.009 71.676C101.481 71.956 100.889 72.096 100.233 72.096ZM100.233 70.32C100.625 70.32 100.957 70.176 101.229 69.888C101.509 69.6 101.649 69.188 101.649 68.652C101.649 68.116 101.513 67.704 101.241 67.416C100.977 67.128 100.649 66.984 100.257 66.984C99.8574 66.984 99.5254 67.128 99.2614 67.416C98.9974 67.696 98.8654 68.108 98.8654 68.652C98.8654 69.188 98.9934 69.6 99.2494 69.888C99.5134 70.176 99.8414 70.32 100.233 70.32ZM106.878 66.42C107.118 66.052 107.418 65.764 107.778 65.556C108.138 65.34 108.538 65.232 108.978 65.232V67.404H108.414C107.902 67.404 107.518 67.516 107.262 67.74C107.006 67.956 106.878 68.34 106.878 68.892V72H104.826V65.304H106.878V66.42ZM112.683 72.096C112.099 72.096 111.579 71.996 111.123 71.796C110.667 71.596 110.307 71.324 110.043 70.98C109.779 70.628 109.631 70.236 109.599 69.804H111.627C111.651 70.036 111.759 70.224 111.951 70.368C112.143 70.512 112.379 70.584 112.659 70.584C112.915 70.584 113.111 70.536 113.247 70.44C113.391 70.336 113.463 70.204 113.463 70.044C113.463 69.852 113.363 69.712 113.163 69.624C112.963 69.528 112.639 69.424 112.191 69.312C111.711 69.2 111.311 69.084 110.991 68.964C110.671 68.836 110.395 68.64 110.163 68.376C109.931 68.104 109.815 67.74 109.815 67.284C109.815 66.9 109.919 66.552 110.127 66.24C110.343 65.92 110.655 65.668 111.063 65.484C111.479 65.3 111.971 65.208 112.539 65.208C113.379 65.208 114.039 65.416 114.519 65.832C115.007 66.248 115.287 66.8 115.359 67.488H113.463C113.431 67.256 113.327 67.072 113.151 66.936C112.983 66.8 112.759 66.732 112.479 66.732C112.239 66.732 112.055 66.78 111.927 66.876C111.799 66.964 111.735 67.088 111.735 67.248C111.735 67.44 111.835 67.584 112.035 67.68C112.243 67.776 112.563 67.872 112.995 67.968C113.491 68.096 113.895 68.224 114.207 68.352C114.519 68.472 114.791 68.672 115.023 68.952C115.263 69.224 115.387 69.592 115.395 70.056C115.395 70.448 115.283 70.8 115.059 71.112C114.843 71.416 114.527 71.656 114.111 71.832C113.703 72.008 113.227 72.096 112.683 72.096Z" fill="#FCFCFC"/>
<defs>
<filter id="filter0_b_131_435" x="-9.30233" y="-9.30233" width="178.605" height="135.814" filterUnits="userSpaceOnUse" color-interpolation-filters="sRGB">
<feFlood flood-opacity="0" result="BackgroundImageFix"/>
<feGaussianBlur in="BackgroundImage" stdDeviation="4.65116"/>
<feComposite in2="SourceAlpha" operator="in" result="effect1_backgroundBlur_131_435"/>
<feBlend mode="normal" in="SourceGraphic" in2="effect1_backgroundBlur_131_435" result="shape"/>
</filter>
</defs>
</svg>
