<svg width="30" height="29" viewBox="0 0 30 29" fill="none" xmlns="http://www.w3.org/2000/svg">
<path d="M15.0912 0.581177C18.9519 0.581177 19.4336 0.595386 20.9484 0.666433C22.4617 0.73748 23.4918 0.974777 24.3984 1.32717C25.3362 1.68809 26.1263 2.17689 26.9163 2.96551C27.6388 3.67584 28.1979 4.53507 28.5547 5.48342C28.9056 6.38856 29.1443 7.42016 29.2154 8.93347C29.2822 10.4482 29.3006 10.9299 29.3006 14.7906C29.3006 18.6513 29.2864 19.133 29.2154 20.6477C29.1443 22.161 28.9056 23.1912 28.5547 24.0977C28.199 25.0466 27.6397 25.9061 26.9163 26.6157C26.2058 27.3379 25.3466 27.897 24.3984 28.254C23.4933 28.605 22.4617 28.8437 20.9484 28.9147C19.4336 28.9815 18.9519 29 15.0912 29C11.2305 29 10.7488 28.9858 9.23412 28.9147C7.72082 28.8437 6.69064 28.605 5.78408 28.254C4.83536 27.898 3.97597 27.3388 3.26617 26.6157C2.54349 25.9054 1.98439 25.0462 1.62783 24.0977C1.27544 23.1926 1.03814 22.161 0.967092 20.6477C0.900308 19.133 0.881836 18.6513 0.881836 14.7906C0.881836 10.9299 0.896045 10.4482 0.967092 8.93347C1.03814 7.41874 1.27544 6.38998 1.62783 5.48342C1.9834 4.53449 2.54264 3.67502 3.26617 2.96551C3.97618 2.24258 4.8355 1.68344 5.78408 1.32717C6.69064 0.974777 7.7194 0.73748 9.23412 0.666433C10.7488 0.599649 11.2305 0.581177 15.0912 0.581177ZM15.0912 7.68588C13.207 7.68588 11.3998 8.43441 10.0675 9.7668C8.73507 11.0992 7.98654 12.9063 7.98654 14.7906C7.98654 16.6749 8.73507 18.482 10.0675 19.8144C11.3998 21.1468 13.207 21.8953 15.0912 21.8953C16.9755 21.8953 18.7826 21.1468 20.115 19.8144C21.4474 18.482 22.1959 16.6749 22.1959 14.7906C22.1959 12.9063 21.4474 11.0992 20.115 9.7668C18.7826 8.43441 16.9755 7.68588 15.0912 7.68588ZM24.3274 7.33064C24.3274 6.85957 24.1402 6.4078 23.8071 6.0747C23.474 5.7416 23.0222 5.55447 22.5512 5.55447C22.0801 5.55447 21.6283 5.7416 21.2952 6.0747C20.9621 6.4078 20.775 6.85957 20.775 7.33064C20.775 7.80172 20.9621 8.25349 21.2952 8.58659C21.6283 8.91969 22.0801 9.10682 22.5512 9.10682C23.0222 9.10682 23.474 8.91969 23.8071 8.58659C24.1402 8.25349 24.3274 7.80172 24.3274 7.33064ZM15.0912 10.5278C16.2218 10.5278 16.5066 10.1774 17.3061 10.9769C18.1055 11.7763 19.3541 13.66 19.3541 14.7906C19.3541 15.9212 18.9049 17.0054 18.1055 17.8049C17.3061 18.6043 16.2218 19.0534 15.0912 19.0534C13.9607 19.0534 12.8764 18.6043 12.077 17.8049C11.2775 17.0054 10.8284 15.9212 10.8284 14.7906C10.8284 13.66 11.2775 12.5757 12.077 11.7763C12.8764 10.9769 13.9607 10.5278 15.0912 10.5278Z" fill="#FCFCFC"/>
</svg>
