<svg width="104" height="24" viewBox="0 0 104 24" fill="none" xmlns="http://www.w3.org/2000/svg">
<g clip-path="url(#clip0_131_423)">
<path fill-rule="evenodd" clip-rule="evenodd" d="M16.8431 10.7376L6.03678 0.0216193L5.97949 20.9203L8.95142 23.3993V7.08392L16.8002 14.9822L27.7569 3.95633L27.7712 0L16.8431 10.7376Z" fill="#4AAAFF"/>
<path fill-rule="evenodd" clip-rule="evenodd" d="M30.7293 23.2047L33.6368 20.1996V2.42136L17.0012 19.0682L11.8737 14.0814L11.6875 18.1458L16.8365 23.3272L30.7293 9.38277V23.2047Z" fill="#4AAAFF"/>
<path fill-rule="evenodd" clip-rule="evenodd" d="M24.9144 19.2196L24.7998 23.2696L27.7574 20.3077L27.6643 16.5099L24.9144 19.2196Z" fill="#4AAAFF"/>
<path fill-rule="evenodd" clip-rule="evenodd" d="M2.88599 6.03178L0 3.12759V20.4302L2.88599 23.2263V6.03178Z" fill="#4AAAFF"/>
</g>
<path d="M48.7143 4.55409V11.6997H47.2811V7.05197L45.3668 11.6997H44.2816L42.357 7.05197V11.6997H40.9238V4.55409H42.5515L44.8242 9.86719L47.0969 4.55409H48.7143Z" fill="#FCFCFC" fill-opacity="0.87"/>
<path d="M54.5128 10.3381H51.6669L51.196 11.6997H49.6911L52.2606 4.54386H53.9293L56.4988 11.6997H54.9837L54.5128 10.3381ZM54.1238 9.19154L53.0898 6.20228L52.0559 9.19154H54.1238Z" fill="#FCFCFC" fill-opacity="0.87"/>
<path d="M59.9264 11.7713C59.4282 11.7713 58.9778 11.686 58.5751 11.5154C58.1793 11.3448 57.8654 11.0991 57.6333 10.7783C57.4013 10.4575 57.2818 10.0788 57.275 9.64198H58.8106C58.8311 9.93544 58.9334 10.1675 59.1177 10.3381C59.3088 10.5087 59.5681 10.594 59.8957 10.594C60.2302 10.594 60.4929 10.5155 60.684 10.3586C60.8751 10.1948 60.9706 9.98322 60.9706 9.72387C60.9706 9.5123 60.9058 9.33827 60.7761 9.20178C60.6465 9.06528 60.4827 8.9595 60.2847 8.88442C60.0937 8.80253 59.8275 8.7138 59.4862 8.61826C59.0222 8.48176 58.6434 8.34868 58.3499 8.21901C58.0633 8.08251 57.8142 7.88118 57.6026 7.61501C57.3979 7.34202 57.2955 6.98031 57.2955 6.52987C57.2955 6.10673 57.4013 5.73819 57.6128 5.42425C57.8244 5.11031 58.1213 4.87145 58.5035 4.70765C58.8857 4.53703 59.3225 4.45172 59.8138 4.45172C60.5509 4.45172 61.1481 4.63258 61.6053 4.99429C62.0694 5.34918 62.3254 5.84739 62.3731 6.48892H60.7966C60.783 6.24323 60.6772 6.0419 60.4793 5.88493C60.2882 5.72113 60.0322 5.63924 59.7115 5.63924C59.4316 5.63924 59.2064 5.7109 59.0358 5.85422C58.872 5.99754 58.7901 6.20569 58.7901 6.47868C58.7901 6.66978 58.8515 6.83016 58.9744 6.95983C59.1041 7.08268 59.261 7.18505 59.4453 7.26695C59.6364 7.34202 59.9026 7.43074 60.2438 7.53311C60.7079 7.66961 61.0867 7.80611 61.3801 7.9426C61.6736 8.0791 61.9261 8.28384 62.1377 8.55683C62.3492 8.82982 62.455 9.18813 62.455 9.63174C62.455 10.0139 62.3561 10.3688 62.1582 10.6964C61.9602 11.024 61.6702 11.2868 61.288 11.4847C60.9058 11.6758 60.452 11.7713 59.9264 11.7713Z" fill="#FCFCFC" fill-opacity="0.87"/>
<path d="M68.5602 4.55409V5.7109H66.6561V11.6997H65.2229V5.7109H63.3188V4.55409H68.5602Z" fill="#FCFCFC" fill-opacity="0.87"/>
<path d="M71.0392 5.7109V7.5024H73.4449V8.63873H71.0392V10.5326H73.752V11.6997H69.6059V4.54386H73.752V5.7109H71.0392Z" fill="#FCFCFC" fill-opacity="0.87"/>
<path d="M78.7398 11.6997L77.1633 8.91513H76.4877V11.6997H75.0545V4.55409H77.7366C78.2894 4.55409 78.7603 4.65305 79.1493 4.85097C79.5383 5.04207 79.8284 5.30482 80.0195 5.63924C80.2174 5.96682 80.3164 6.33536 80.3164 6.74485C80.3164 7.21576 80.1799 7.64231 79.9069 8.0245C79.6339 8.39986 79.2278 8.65921 78.6887 8.80253L80.3983 11.6997H78.7398ZM76.4877 7.84023H77.6854C78.0744 7.84023 78.3645 7.7481 78.5556 7.56383C78.7467 7.37273 78.8422 7.10998 78.8422 6.77556C78.8422 6.44797 78.7467 6.19546 78.5556 6.01801C78.3645 5.83374 78.0744 5.74161 77.6854 5.74161H76.4877V7.84023Z" fill="#FCFCFC" fill-opacity="0.87"/>
<path d="M90.1636 11.6997H88.7304L85.4852 6.79604V11.6997H84.052V4.54386H85.4852L88.7304 9.45771V4.54386H90.1636V11.6997Z" fill="#FCFCFC" fill-opacity="0.87"/>
<path d="M93.0131 5.7109V7.5024H95.4189V8.63873H93.0131V10.5326H95.726V11.6997H91.5799V4.54386H95.726V5.7109H93.0131Z" fill="#FCFCFC" fill-opacity="0.87"/>
<path d="M100.345 11.7713C99.6764 11.7713 99.0622 11.6143 98.5026 11.3004C97.9429 10.9865 97.4993 10.5531 97.1717 10.0003C96.8441 9.44064 96.6803 8.80935 96.6803 8.1064C96.6803 7.41027 96.8441 6.7858 97.1717 6.23299C97.4993 5.67336 97.9429 5.23657 98.5026 4.92263C99.0622 4.60869 99.6764 4.45172 100.345 4.45172C101.021 4.45172 101.635 4.60869 102.188 4.92263C102.748 5.23657 103.188 5.67336 103.509 6.23299C103.836 6.7858 104 7.41027 104 8.1064C104 8.80935 103.836 9.44064 103.509 10.0003C103.188 10.5531 102.748 10.9865 102.188 11.3004C101.628 11.6143 101.014 11.7713 100.345 11.7713ZM100.345 10.4917C100.775 10.4917 101.154 10.3961 101.482 10.205C101.809 10.0071 102.065 9.72728 102.249 9.36557C102.434 9.00386 102.526 8.58413 102.526 8.1064C102.526 7.62866 102.434 7.21235 102.249 6.85746C102.065 6.49575 101.809 6.21934 101.482 6.02825C101.154 5.83715 100.775 5.74161 100.345 5.74161C99.9153 5.74161 99.5331 5.83715 99.1987 6.02825C98.8711 6.21934 98.6152 6.49575 98.4309 6.85746C98.2466 7.21235 98.1545 7.62866 98.1545 8.1064C98.1545 8.58413 98.2466 9.00386 98.4309 9.36557C98.6152 9.72728 98.8711 10.0071 99.1987 10.205C99.5331 10.3961 99.9153 10.4917 100.345 10.4917Z" fill="#FCFCFC" fill-opacity="0.87"/>
<path d="M46.5237 17.8332V23.3993H45.7917V19.2488L43.9417 23.3993H43.4269L41.5689 19.2408V23.3993H40.8369V17.8332H41.6252L43.6843 22.4341L45.7435 17.8332H46.5237Z" fill="#FCFCFC" fill-opacity="0.87"/>
<path d="M51.4328 23.4556C50.9127 23.4556 50.4381 23.3349 50.0091 23.0936C49.5802 22.847 49.2397 22.5065 48.9876 22.0721C48.741 21.6324 48.6176 21.1391 48.6176 20.5921C48.6176 20.0452 48.741 19.5545 48.9876 19.1202C49.2397 18.6804 49.5802 18.3399 50.0091 18.0986C50.4381 17.852 50.9127 17.7286 51.4328 17.7286C51.9584 17.7286 52.4356 17.852 52.8646 18.0986C53.2936 18.3399 53.6314 18.6778 53.8781 19.1121C54.1247 19.5465 54.2481 20.0398 54.2481 20.5921C54.2481 21.1444 54.1247 21.6378 53.8781 22.0721C53.6314 22.5065 53.2936 22.847 52.8646 23.0936C52.4356 23.3349 51.9584 23.4556 51.4328 23.4556ZM51.4328 22.8202C51.8243 22.8202 52.1755 22.729 52.4865 22.5467C52.8029 22.3644 53.0496 22.1043 53.2266 21.7665C53.4089 21.4286 53.5 21.0372 53.5 20.5921C53.5 20.1417 53.4089 19.7502 53.2266 19.4178C53.0496 19.0799 52.8056 18.8199 52.4946 18.6375C52.1836 18.4552 51.8297 18.3641 51.4328 18.3641C51.036 18.3641 50.6821 18.4552 50.3711 18.6375C50.0601 18.8199 49.8134 19.0799 49.6311 19.4178C49.4541 19.7502 49.3657 20.1417 49.3657 20.5921C49.3657 21.0372 49.4541 21.4286 49.6311 21.7665C49.8134 22.1043 50.0601 22.3644 50.3711 22.5467C50.6875 22.729 51.0414 22.8202 51.4328 22.8202Z" fill="#FCFCFC" fill-opacity="0.87"/>
<path d="M58.0859 17.793C58.6972 17.793 59.2254 17.9083 59.6705 18.1388C60.1209 18.3641 60.4641 18.6885 60.7 19.1121C60.9413 19.5357 61.062 20.0344 61.062 20.6082C61.062 21.182 60.9413 21.6807 60.7 22.1043C60.4641 22.5226 60.1209 22.8443 59.6705 23.0695C59.2254 23.2894 58.6972 23.3993 58.0859 23.3993H56.3405V17.793H58.0859ZM58.0859 22.796C58.8098 22.796 59.3621 22.6057 59.7429 22.2249C60.1236 21.8389 60.3139 21.2999 60.3139 20.6082C60.3139 19.9111 60.1209 19.3668 59.7348 18.9754C59.3541 18.5839 58.8044 18.3882 58.0859 18.3882H57.0724V22.796H58.0859Z" fill="#FCFCFC" fill-opacity="0.87"/>
<path d="M63.8855 18.3882V20.2623H65.9286V20.8656H63.8855V22.796H66.1699V23.3993H63.1536V17.7849H66.1699V18.3882H63.8855Z" fill="#FCFCFC" fill-opacity="0.87"/>
<path d="M71.3555 23.3993L70.0203 21.1069H69.1355V23.3993H68.4035V17.793H70.2133C70.6369 17.793 70.9935 17.8654 71.2831 18.0101C71.578 18.1549 71.7979 18.3507 71.9427 18.5973C72.0874 18.844 72.1598 19.1255 72.1598 19.4419C72.1598 19.828 72.0472 20.1685 71.822 20.4634C71.6021 20.7583 71.2697 20.9541 70.8246 21.0506L72.2322 23.3993H71.3555ZM69.1355 20.5197H70.2133C70.6101 20.5197 70.9077 20.4232 71.1061 20.2302C71.3045 20.0317 71.4037 19.769 71.4037 19.4419C71.4037 19.1094 71.3045 18.852 71.1061 18.6697C70.9131 18.4874 70.6155 18.3962 70.2133 18.3962H69.1355V20.5197Z" fill="#FCFCFC" fill-opacity="0.87"/>
<path d="M77.7372 22.1526H75.292L74.8415 23.3993H74.0693L76.0963 17.8251H76.9409L78.9598 23.3993H78.1876L77.7372 22.1526ZM77.528 21.5573L76.5146 18.726L75.5011 21.5573H77.528Z" fill="#FCFCFC" fill-opacity="0.87"/>
<path d="M84.42 17.793V18.3882H82.8917V23.3993H82.1597V18.3882H80.6234V17.793H84.42Z" fill="#FCFCFC" fill-opacity="0.87"/>
<path d="M88.9888 23.4556C88.4686 23.4556 87.9941 23.3349 87.5651 23.0936C87.1361 22.847 86.7956 22.5065 86.5436 22.0721C86.2969 21.6324 86.1736 21.1391 86.1736 20.5921C86.1736 20.0452 86.2969 19.5545 86.5436 19.1202C86.7956 18.6804 87.1361 18.3399 87.5651 18.0986C87.9941 17.852 88.4686 17.7286 88.9888 17.7286C89.5143 17.7286 89.9915 17.852 90.4205 18.0986C90.8495 18.3399 91.1873 18.6778 91.434 19.1121C91.6807 19.5465 91.804 20.0398 91.804 20.5921C91.804 21.1444 91.6807 21.6378 91.434 22.0721C91.1873 22.5065 90.8495 22.847 90.4205 23.0936C89.9915 23.3349 89.5143 23.4556 88.9888 23.4556ZM88.9888 22.8202C89.3802 22.8202 89.7315 22.729 90.0425 22.5467C90.3589 22.3644 90.6055 22.1043 90.7825 21.7665C90.9648 21.4286 91.056 21.0372 91.056 20.5921C91.056 20.1417 90.9648 19.7502 90.7825 19.4178C90.6055 19.0799 90.3615 18.8199 90.0505 18.6375C89.7395 18.4552 89.3856 18.3641 88.9888 18.3641C88.592 18.3641 88.2381 18.4552 87.927 18.6375C87.616 18.8199 87.3694 19.0799 87.187 19.4178C87.0101 19.7502 86.9216 20.1417 86.9216 20.5921C86.9216 21.0372 87.0101 21.4286 87.187 21.7665C87.3694 22.1043 87.616 22.3644 87.927 22.5467C88.2434 22.729 88.5973 22.8202 88.9888 22.8202Z" fill="#FCFCFC" fill-opacity="0.87"/>
<path d="M96.8484 23.3993L95.5131 21.1069H94.6284V23.3993H93.8964V17.793H95.7062C96.1298 17.793 96.4864 17.8654 96.776 18.0101C97.0709 18.1549 97.2908 18.3507 97.4355 18.5973C97.5803 18.844 97.6527 19.1255 97.6527 19.4419C97.6527 19.828 97.5401 20.1685 97.3149 20.4634C97.095 20.7583 96.7626 20.9541 96.3175 21.0506L97.7251 23.3993H96.8484ZM94.6284 20.5197H95.7062C96.103 20.5197 96.4006 20.4232 96.599 20.2302C96.7974 20.0317 96.8966 19.769 96.8966 19.4419C96.8966 19.1094 96.7974 18.852 96.599 18.6697C96.406 18.4874 96.1084 18.3962 95.7062 18.3962H94.6284V20.5197Z" fill="#FCFCFC" fill-opacity="0.87"/>
<path d="M101.694 23.4556C101.324 23.4556 100.991 23.3913 100.696 23.2626C100.407 23.1285 100.179 22.9462 100.013 22.7156C99.8464 22.4797 99.7606 22.2089 99.7553 21.9032H100.535C100.562 22.166 100.67 22.3885 100.857 22.5708C101.05 22.7478 101.329 22.8362 101.694 22.8362C102.042 22.8362 102.316 22.7505 102.514 22.5789C102.718 22.4019 102.82 22.1767 102.82 21.9032C102.82 21.6887 102.761 21.5144 102.643 21.3804C102.525 21.2463 102.377 21.1444 102.2 21.0747C102.024 21.005 101.785 20.9299 101.485 20.8495C101.115 20.753 100.817 20.6565 100.592 20.5599C100.372 20.4634 100.182 20.3133 100.021 20.1095C99.8652 19.9004 99.7874 19.6215 99.7874 19.273C99.7874 18.9673 99.8652 18.6965 100.021 18.4606C100.176 18.2246 100.393 18.0423 100.672 17.9136C100.956 17.7849 101.281 17.7206 101.645 17.7206C102.171 17.7206 102.6 17.852 102.932 18.1147C103.27 18.3775 103.461 18.726 103.504 19.1604H102.699C102.672 18.9459 102.56 18.7582 102.361 18.5973C102.163 18.4311 101.9 18.348 101.573 18.348C101.267 18.348 101.018 18.4284 100.825 18.5893C100.632 18.7448 100.535 18.9646 100.535 19.2488C100.535 19.4526 100.592 19.6188 100.704 19.7475C100.822 19.8762 100.964 19.9754 101.131 20.0452C101.302 20.1095 101.541 20.1846 101.847 20.2704C102.217 20.3723 102.514 20.4741 102.739 20.576C102.965 20.6725 103.158 20.8254 103.319 21.0345C103.479 21.2383 103.56 21.5171 103.56 21.871C103.56 22.1445 103.487 22.4019 103.343 22.6432C103.198 22.8845 102.983 23.0802 102.699 23.2304C102.415 23.3805 102.08 23.4556 101.694 23.4556Z" fill="#FCFCFC" fill-opacity="0.87"/>
<defs>
<clipPath id="clip0_131_423">
<rect width="33.6365" height="23.3993" fill="white"/>
</clipPath>
</defs>
</svg>
