<svg width="30" height="29" viewBox="0 0 30 29" fill="none" xmlns="http://www.w3.org/2000/svg">
<path d="M28.2225 0.581177H2.07718C1.44842 0.581177 0.94043 1.08916 0.94043 1.71793V27.8632C0.94043 28.492 1.44842 29 2.07718 29H28.2225C28.8513 29 29.3592 28.492 29.3592 27.8632V1.71793C29.3592 1.08916 28.8513 0.581177 28.2225 0.581177ZM24.2439 7.88836L22.7945 9.27733C22.6666 9.37325 22.6062 9.52955 22.6311 9.6823V19.9024C22.6062 20.0587 22.6666 20.215 22.7945 20.3074L24.2154 21.6964V22.0054H17.0823V21.7106L18.5494 20.2861C18.6951 20.1404 18.6951 20.0978 18.6951 19.8811V11.6112L14.6099 21.9699H14.0593L9.30622 11.6112V18.5561C9.26359 18.8474 9.36661 19.1422 9.57264 19.3518L11.4838 21.6644V21.9734H6.05582V21.6644L7.96698 19.3518C8.06767 19.2478 8.14261 19.1216 8.18579 18.9835C8.22897 18.8453 8.2392 18.6989 8.21564 18.5561V10.5278C8.24051 10.304 8.15525 10.0873 7.98474 9.93452L6.28672 7.88836V7.57931H11.562L15.633 16.5135L19.2173 7.58641H24.2439V7.88836Z" fill="#FCFCFC"/>
</svg>
