<svg width="29" height="29" viewBox="0 0 29 29" fill="none" xmlns="http://www.w3.org/2000/svg">
<path d="M25.3739 0.581177H3.04487C1.36385 0.581177 0 1.94503 0 3.62605V25.9551C0 27.6361 1.36385 29 3.04487 29H25.3739C27.055 29 28.4188 27.6361 28.4188 25.9551V3.62605C28.4188 1.94503 27.055 0.581177 25.3739 0.581177ZM22.272 10.6546C22.2847 10.8322 22.2847 11.0162 22.2847 11.1938C22.2847 16.6936 18.098 23.0308 10.4477 23.0308C8.08794 23.0308 5.89944 22.3457 4.05983 21.1658C4.39603 21.2038 4.71955 21.2165 5.0621 21.2165C7.00955 21.2165 8.79841 20.5568 10.2257 19.4404C8.39877 19.4023 6.86365 18.2034 6.33714 16.5541C6.97783 16.6492 7.55509 16.6492 8.21481 16.478C6.31177 16.091 4.88448 14.4163 4.88448 12.3927V12.342C5.43637 12.6528 6.0834 12.8431 6.76215 12.8685C6.19151 12.4889 5.72371 11.974 5.40051 11.3696C5.0773 10.7653 4.90874 10.0903 4.90986 9.40496C4.90986 8.63106 5.11285 7.92059 5.47443 7.30527C7.52337 9.82998 10.6 11.4793 14.0508 11.6569C13.4609 8.83405 15.5733 6.54405 18.1106 6.54405C19.3096 6.54405 20.388 7.04519 21.1492 7.85715C22.088 7.67954 22.9888 7.33064 23.7881 6.85488C23.4772 7.81909 22.8239 8.63106 21.9611 9.14488C22.7985 9.05607 23.6105 8.82136 24.359 8.49785C23.7944 9.32884 23.0839 10.0647 22.272 10.6546Z" fill="#FCFCFC"/>
</svg>
