<svg width="102" height="75" viewBox="0 0 102 75" fill="none" xmlns="http://www.w3.org/2000/svg">
<g filter="url(#filter0_b_142_445)">
<rect y="0.139648" width="102" height="74.7209" rx="5.93023" fill="white" fill-opacity="0.04"/>
</g>
<path d="M25.2559 28.416V34H24.1359V30.368L22.6399 34H21.7919L20.2879 30.368V34H19.1679V28.416H20.4399L22.2159 32.568L23.9919 28.416H25.2559ZM26.0752 31.768C26.0752 31.32 26.1632 30.9227 26.3392 30.576C26.5206 30.2293 26.7632 29.9627 27.0672 29.776C27.3766 29.5893 27.7206 29.496 28.0992 29.496C28.4299 29.496 28.7179 29.5627 28.9632 29.696C29.2139 29.8293 29.4139 29.9973 29.5632 30.2V29.568H30.6912V34H29.5632V33.352C29.4192 33.56 29.2192 33.7333 28.9632 33.872C28.7126 34.0053 28.4219 34.072 28.0912 34.072C27.7179 34.072 27.3766 33.976 27.0672 33.784C26.7632 33.592 26.5206 33.3227 26.3392 32.976C26.1632 32.624 26.0752 32.2213 26.0752 31.768ZM29.5632 31.784C29.5632 31.512 29.5099 31.28 29.4032 31.088C29.2966 30.8907 29.1526 30.7413 28.9712 30.64C28.7899 30.5333 28.5952 30.48 28.3872 30.48C28.1792 30.48 27.9872 30.5307 27.8112 30.632C27.6352 30.7333 27.4912 30.8827 27.3792 31.08C27.2726 31.272 27.2192 31.5013 27.2192 31.768C27.2192 32.0347 27.2726 32.2693 27.3792 32.472C27.4912 32.6693 27.6352 32.8213 27.8112 32.928C27.9926 33.0347 28.1846 33.088 28.3872 33.088C28.5952 33.088 28.7899 33.0373 28.9712 32.936C29.1526 32.8293 29.2966 32.68 29.4032 32.488C29.5099 32.2907 29.5632 32.056 29.5632 31.784ZM34.2411 29.504C34.7691 29.504 35.1958 29.672 35.5211 30.008C35.8465 30.3387 36.0091 30.8027 36.0091 31.4V34H34.8891V31.552C34.8891 31.2 34.8011 30.9307 34.6251 30.744C34.4491 30.552 34.2091 30.456 33.9051 30.456C33.5958 30.456 33.3505 30.552 33.1691 30.744C32.9931 30.9307 32.9051 31.2 32.9051 31.552V34H31.7851V29.568H32.9051V30.12C33.0545 29.928 33.2438 29.7787 33.4731 29.672C33.7078 29.56 33.9638 29.504 34.2411 29.504ZM36.7862 31.768C36.7862 31.32 36.8742 30.9227 37.0502 30.576C37.2315 30.2293 37.4742 29.9627 37.7782 29.776C38.0875 29.5893 38.4315 29.496 38.8102 29.496C39.1409 29.496 39.4289 29.5627 39.6742 29.696C39.9249 29.8293 40.1249 29.9973 40.2742 30.2V29.568H41.4022V34H40.2742V33.352C40.1302 33.56 39.9302 33.7333 39.6742 33.872C39.4235 34.0053 39.1329 34.072 38.8022 34.072C38.4289 34.072 38.0875 33.976 37.7782 33.784C37.4742 33.592 37.2315 33.3227 37.0502 32.976C36.8742 32.624 36.7862 32.2213 36.7862 31.768ZM40.2742 31.784C40.2742 31.512 40.2209 31.28 40.1142 31.088C40.0075 30.8907 39.8635 30.7413 39.6822 30.64C39.5009 30.5333 39.3062 30.48 39.0982 30.48C38.8902 30.48 38.6982 30.5307 38.5222 30.632C38.3462 30.7333 38.2022 30.8827 38.0902 31.08C37.9835 31.272 37.9302 31.5013 37.9302 31.768C37.9302 32.0347 37.9835 32.2693 38.0902 32.472C38.2022 32.6693 38.3462 32.8213 38.5222 32.928C38.7035 33.0347 38.8955 33.088 39.0982 33.088C39.3062 33.088 39.5009 33.0373 39.6822 32.936C39.8635 32.8293 40.0075 32.68 40.1142 32.488C40.2209 32.2907 40.2742 32.056 40.2742 31.784ZM44.2321 29.496C44.5627 29.496 44.8534 29.5627 45.1041 29.696C45.3547 29.824 45.5521 29.992 45.6961 30.2V29.568H46.8241V34.032C46.8241 34.4427 46.7414 34.808 46.5761 35.128C46.4107 35.4533 46.1627 35.7093 45.8321 35.896C45.5014 36.088 45.1014 36.184 44.6321 36.184C44.0027 36.184 43.4854 36.0373 43.0801 35.744C42.6801 35.4507 42.4534 35.0507 42.4001 34.544H43.5121C43.5707 34.7467 43.6961 34.9067 43.8881 35.024C44.0854 35.1467 44.3227 35.208 44.6001 35.208C44.9254 35.208 45.1894 35.1093 45.3921 34.912C45.5947 34.72 45.6961 34.4267 45.6961 34.032V33.344C45.5521 33.552 45.3521 33.7253 45.0961 33.864C44.8454 34.0027 44.5574 34.072 44.2321 34.072C43.8587 34.072 43.5174 33.976 43.2081 33.784C42.8987 33.592 42.6534 33.3227 42.4721 32.976C42.2961 32.624 42.2081 32.2213 42.2081 31.768C42.2081 31.32 42.2961 30.9227 42.4721 30.576C42.6534 30.2293 42.8961 29.9627 43.2001 29.776C43.5094 29.5893 43.8534 29.496 44.2321 29.496ZM45.6961 31.784C45.6961 31.512 45.6427 31.28 45.5361 31.088C45.4294 30.8907 45.2854 30.7413 45.1041 30.64C44.9227 30.5333 44.7281 30.48 44.5201 30.48C44.3121 30.48 44.1201 30.5307 43.9441 30.632C43.7681 30.7333 43.6241 30.8827 43.5121 31.08C43.4054 31.272 43.3521 31.5013 43.3521 31.768C43.3521 32.0347 43.4054 32.2693 43.5121 32.472C43.6241 32.6693 43.7681 32.8213 43.9441 32.928C44.1254 33.0347 44.3174 33.088 44.5201 33.088C44.7281 33.088 44.9227 33.0373 45.1041 32.936C45.2854 32.8293 45.4294 32.68 45.5361 32.488C45.6427 32.2907 45.6961 32.056 45.6961 31.784ZM52.0379 31.688C52.0379 31.848 52.0273 31.992 52.0059 32.12H48.7659C48.7926 32.44 48.9046 32.6907 49.1019 32.872C49.2993 33.0533 49.5419 33.144 49.8299 33.144C50.2459 33.144 50.5419 32.9653 50.7179 32.608H51.9259C51.7979 33.0347 51.5526 33.3867 51.1899 33.664C50.8273 33.936 50.3819 34.072 49.8539 34.072C49.4273 34.072 49.0433 33.9787 48.7019 33.792C48.3659 33.6 48.1019 33.3307 47.9099 32.984C47.7233 32.6373 47.6299 32.2373 47.6299 31.784C47.6299 31.3253 47.7233 30.9227 47.9099 30.576C48.0966 30.2293 48.3579 29.9627 48.6939 29.776C49.0299 29.5893 49.4166 29.496 49.8539 29.496C50.2753 29.496 50.6513 29.5867 50.9819 29.768C51.3179 29.9493 51.5766 30.208 51.7579 30.544C51.9446 30.8747 52.0379 31.256 52.0379 31.688ZM50.8779 31.368C50.8726 31.08 50.7686 30.8507 50.5659 30.68C50.3633 30.504 50.1153 30.416 49.8219 30.416C49.5446 30.416 49.3099 30.5013 49.1179 30.672C48.9313 30.8373 48.8166 31.0693 48.7739 31.368H50.8779ZM58.3594 29.504C58.9034 29.504 59.3408 29.672 59.6714 30.008C60.0074 30.3387 60.1754 30.8027 60.1754 31.4V34H59.0554V31.552C59.0554 31.2053 58.9674 30.9413 58.7914 30.76C58.6154 30.5733 58.3754 30.48 58.0714 30.48C57.7674 30.48 57.5248 30.5733 57.3434 30.76C57.1674 30.9413 57.0794 31.2053 57.0794 31.552V34H55.9594V31.552C55.9594 31.2053 55.8714 30.9413 55.6954 30.76C55.5194 30.5733 55.2794 30.48 54.9754 30.48C54.6661 30.48 54.4208 30.5733 54.2394 30.76C54.0634 30.9413 53.9754 31.2053 53.9754 31.552V34H52.8554V29.568H53.9754V30.104C54.1194 29.9173 54.3034 29.7707 54.5274 29.664C54.7568 29.5573 55.0074 29.504 55.2794 29.504C55.6261 29.504 55.9354 29.5787 56.2074 29.728C56.4794 29.872 56.6901 30.08 56.8394 30.352C56.9834 30.096 57.1914 29.8907 57.4634 29.736C57.7408 29.5813 58.0394 29.504 58.3594 29.504ZM65.3582 31.688C65.3582 31.848 65.3476 31.992 65.3262 32.12H62.0862C62.1129 32.44 62.2249 32.6907 62.4222 32.872C62.6196 33.0533 62.8622 33.144 63.1502 33.144C63.5662 33.144 63.8622 32.9653 64.0382 32.608H65.2462C65.1182 33.0347 64.8729 33.3867 64.5102 33.664C64.1476 33.936 63.7022 34.072 63.1742 34.072C62.7476 34.072 62.3636 33.9787 62.0222 33.792C61.6862 33.6 61.4222 33.3307 61.2302 32.984C61.0436 32.6373 60.9502 32.2373 60.9502 31.784C60.9502 31.3253 61.0436 30.9227 61.2302 30.576C61.4169 30.2293 61.6782 29.9627 62.0142 29.776C62.3502 29.5893 62.7369 29.496 63.1742 29.496C63.5956 29.496 63.9716 29.5867 64.3022 29.768C64.6382 29.9493 64.8969 30.208 65.0782 30.544C65.2649 30.8747 65.3582 31.256 65.3582 31.688ZM64.1982 31.368C64.1929 31.08 64.0889 30.8507 63.8862 30.68C63.6836 30.504 63.4356 30.416 63.1422 30.416C62.8649 30.416 62.6302 30.5013 62.4382 30.672C62.2516 30.8373 62.1369 31.0693 62.0942 31.368H64.1982ZM68.6317 29.504C69.1597 29.504 69.5864 29.672 69.9117 30.008C70.2371 30.3387 70.3997 30.8027 70.3997 31.4V34H69.2797V31.552C69.2797 31.2 69.1917 30.9307 69.0157 30.744C68.8397 30.552 68.5997 30.456 68.2957 30.456C67.9864 30.456 67.7411 30.552 67.5597 30.744C67.3837 30.9307 67.2957 31.2 67.2957 31.552V34H66.1757V29.568H67.2957V30.12C67.4451 29.928 67.6344 29.7787 67.8637 29.672C68.0984 29.56 68.3544 29.504 68.6317 29.504ZM72.7688 30.488V32.632C72.7688 32.7813 72.8035 32.8907 72.8728 32.96C72.9475 33.024 73.0701 33.056 73.2408 33.056H73.7608V34H73.0568C72.1128 34 71.6408 33.5413 71.6408 32.624V30.488H71.1128V29.568H71.6408V28.472H72.7688V29.568H73.7608V30.488H72.7688ZM78.4406 34.072C78.014 34.072 77.63 33.9787 77.2886 33.792C76.9473 33.6 76.678 33.3307 76.4806 32.984C76.2886 32.6373 76.1926 32.2373 76.1926 31.784C76.1926 31.3307 76.2913 30.9307 76.4886 30.584C76.6913 30.2373 76.966 29.9707 77.3126 29.784C77.6593 29.592 78.046 29.496 78.4726 29.496C78.8993 29.496 79.286 29.592 79.6326 29.784C79.9793 29.9707 80.2513 30.2373 80.4486 30.584C80.6513 30.9307 80.7526 31.3307 80.7526 31.784C80.7526 32.2373 80.6486 32.6373 80.4406 32.984C80.238 33.3307 79.9606 33.6 79.6086 33.792C79.262 33.9787 78.8726 34.072 78.4406 34.072ZM78.4406 33.096C78.6433 33.096 78.8326 33.048 79.0086 32.952C79.19 32.8507 79.334 32.7013 79.4406 32.504C79.5473 32.3067 79.6006 32.0667 79.6006 31.784C79.6006 31.3627 79.4886 31.04 79.2646 30.816C79.046 30.5867 78.7766 30.472 78.4566 30.472C78.1366 30.472 77.8673 30.5867 77.6486 30.816C77.4353 31.04 77.3286 31.3627 77.3286 31.784C77.3286 32.2053 77.4326 32.5307 77.6406 32.76C77.854 32.984 78.1206 33.096 78.4406 33.096ZM83.6062 30.488H82.8302V34H81.6942V30.488H81.1902V29.568H81.6942V29.344C81.6942 28.8 81.8489 28.4 82.1582 28.144C82.4675 27.888 82.9342 27.768 83.5582 27.784V28.728C83.2862 28.7227 83.0969 28.768 82.9902 28.864C82.8835 28.96 82.8302 29.1333 82.8302 29.384V29.568H83.6062V30.488ZM23.5461 41.416V42.32H22.0581V47H20.9381V42.32H19.4501V41.416H23.5461ZM30.5072 42.568L29.2112 47H28.0032L27.1952 43.904L26.3872 47H25.1712L23.8672 42.568H25.0032L25.7872 45.944L26.6352 42.568H27.8192L28.6512 45.936L29.4352 42.568H30.5072ZM31.6812 42.04C31.4839 42.04 31.3186 41.9787 31.1852 41.856C31.0572 41.728 30.9932 41.5707 30.9932 41.384C30.9932 41.1973 31.0572 41.0427 31.1852 40.92C31.3186 40.792 31.4839 40.728 31.6812 40.728C31.8786 40.728 32.0412 40.792 32.1692 40.92C32.3026 41.0427 32.3692 41.1973 32.3692 41.384C32.3692 41.5707 32.3026 41.728 32.1692 41.856C32.0412 41.9787 31.8786 42.04 31.6812 42.04ZM32.2332 42.568V47H31.1132V42.568H32.2332ZM34.6438 43.488V45.632C34.6438 45.7813 34.6785 45.8907 34.7478 45.96C34.8225 46.024 34.9451 46.056 35.1158 46.056H35.6358V47H34.9318C33.9878 47 33.5158 46.5413 33.5158 45.624V43.488H32.9878V42.568H33.5158V41.472H34.6438V42.568H35.6358V43.488H34.6438ZM37.7454 43.488V45.632C37.7454 45.7813 37.78 45.8907 37.8494 45.96C37.924 46.024 38.0467 46.056 38.2174 46.056H38.7374V47H38.0334C37.0894 47 36.6174 46.5413 36.6174 45.624V43.488H36.0894V42.568H36.6174V41.472H37.7454V42.568H38.7374V43.488H37.7454ZM43.6629 44.688C43.6629 44.848 43.6523 44.992 43.6309 45.12H40.3909C40.4176 45.44 40.5296 45.6907 40.7269 45.872C40.9243 46.0533 41.1669 46.144 41.4549 46.144C41.8709 46.144 42.1669 45.9653 42.3429 45.608H43.5509C43.4229 46.0347 43.1776 46.3867 42.8149 46.664C42.4523 46.936 42.0069 47.072 41.4789 47.072C41.0523 47.072 40.6683 46.9787 40.3269 46.792C39.9909 46.6 39.7269 46.3307 39.5349 45.984C39.3483 45.6373 39.2549 45.2373 39.2549 44.784C39.2549 44.3253 39.3483 43.9227 39.5349 43.576C39.7216 43.2293 39.9829 42.9627 40.3189 42.776C40.6549 42.5893 41.0416 42.496 41.4789 42.496C41.9003 42.496 42.2763 42.5867 42.6069 42.768C42.9429 42.9493 43.2016 43.208 43.3829 43.544C43.5696 43.8747 43.6629 44.256 43.6629 44.688ZM42.5029 44.368C42.4976 44.08 42.3936 43.8507 42.1909 43.68C41.9883 43.504 41.7403 43.416 41.4469 43.416C41.1696 43.416 40.9349 43.5013 40.7429 43.672C40.5563 43.8373 40.4416 44.0693 40.3989 44.368H42.5029ZM45.6004 43.256C45.7444 43.0213 45.9311 42.8373 46.1604 42.704C46.3951 42.5707 46.6618 42.504 46.9604 42.504V43.68H46.6644C46.3124 43.68 46.0458 43.7627 45.8644 43.928C45.6884 44.0933 45.6004 44.3813 45.6004 44.792V47H44.4804V42.568H45.6004V43.256ZM53.0451 45.936H50.8211L50.4531 47H49.2771L51.2851 41.408H52.5891L54.5971 47H53.4131L53.0451 45.936ZM52.7411 45.04L51.9331 42.704L51.1251 45.04H52.7411ZM55.0596 44.784C55.0596 44.3253 55.153 43.9253 55.3396 43.584C55.5263 43.2373 55.785 42.9707 56.1156 42.784C56.4463 42.592 56.825 42.496 57.2516 42.496C57.801 42.496 58.2543 42.6347 58.6116 42.912C58.9743 43.184 59.217 43.568 59.3396 44.064H58.1316C58.0676 43.872 57.9583 43.7227 57.8036 43.616C57.6543 43.504 57.4676 43.448 57.2436 43.448C56.9236 43.448 56.6703 43.5653 56.4836 43.8C56.297 44.0293 56.2036 44.3573 56.2036 44.784C56.2036 45.2053 56.297 45.5333 56.4836 45.768C56.6703 45.9973 56.9236 46.112 57.2436 46.112C57.697 46.112 57.993 45.9093 58.1316 45.504H59.3396C59.217 45.984 58.9743 46.3653 58.6116 46.648C58.249 46.9307 57.7956 47.072 57.2516 47.072C56.825 47.072 56.4463 46.9787 56.1156 46.792C55.785 46.6 55.5263 46.3333 55.3396 45.992C55.153 45.6453 55.0596 45.2427 55.0596 44.784ZM59.8721 44.784C59.8721 44.3253 59.9655 43.9253 60.1521 43.584C60.3388 43.2373 60.5975 42.9707 60.9281 42.784C61.2588 42.592 61.6375 42.496 62.0641 42.496C62.6135 42.496 63.0668 42.6347 63.4241 42.912C63.7868 43.184 64.0295 43.568 64.1521 44.064H62.9441C62.8801 43.872 62.7708 43.7227 62.6161 43.616C62.4668 43.504 62.2801 43.448 62.0561 43.448C61.7361 43.448 61.4828 43.5653 61.2961 43.8C61.1095 44.0293 61.0161 44.3573 61.0161 44.784C61.0161 45.2053 61.1095 45.5333 61.2961 45.768C61.4828 45.9973 61.7361 46.112 62.0561 46.112C62.5095 46.112 62.8055 45.9093 62.9441 45.504H64.1521C64.0295 45.984 63.7868 46.3653 63.4241 46.648C63.0615 46.9307 62.6081 47.072 62.0641 47.072C61.6375 47.072 61.2588 46.9787 60.9281 46.792C60.5975 46.6 60.3388 46.3333 60.1521 45.992C59.9655 45.6453 59.8721 45.2427 59.8721 44.784ZM66.9406 47.072C66.514 47.072 66.13 46.9787 65.7886 46.792C65.4473 46.6 65.178 46.3307 64.9806 45.984C64.7886 45.6373 64.6926 45.2373 64.6926 44.784C64.6926 44.3307 64.7913 43.9307 64.9886 43.584C65.1913 43.2373 65.466 42.9707 65.8126 42.784C66.1593 42.592 66.546 42.496 66.9726 42.496C67.3993 42.496 67.786 42.592 68.1326 42.784C68.4793 42.9707 68.7513 43.2373 68.9486 43.584C69.1513 43.9307 69.2526 44.3307 69.2526 44.784C69.2526 45.2373 69.1486 45.6373 68.9406 45.984C68.738 46.3307 68.4606 46.6 68.1086 46.792C67.762 46.9787 67.3726 47.072 66.9406 47.072ZM66.9406 46.096C67.1433 46.096 67.3326 46.048 67.5086 45.952C67.69 45.8507 67.834 45.7013 67.9406 45.504C68.0473 45.3067 68.1006 45.0667 68.1006 44.784C68.1006 44.3627 67.9886 44.04 67.7646 43.816C67.546 43.5867 67.2766 43.472 66.9566 43.472C66.6366 43.472 66.3673 43.5867 66.1486 43.816C65.9353 44.04 65.8286 44.3627 65.8286 44.784C65.8286 45.2053 65.9326 45.5307 66.1406 45.76C66.354 45.984 66.6206 46.096 66.9406 46.096ZM74.2582 42.568V47H73.1302V46.44C72.9862 46.632 72.7969 46.784 72.5622 46.896C72.3329 47.0027 72.0822 47.056 71.8102 47.056C71.4635 47.056 71.1569 46.984 70.8902 46.84C70.6235 46.6907 70.4129 46.4747 70.2582 46.192C70.1089 45.904 70.0342 45.5627 70.0342 45.168V42.568H71.1542V45.008C71.1542 45.36 71.2422 45.632 71.4182 45.824C71.5942 46.0107 71.8342 46.104 72.1382 46.104C72.4475 46.104 72.6902 46.0107 72.8662 45.824C73.0422 45.632 73.1302 45.36 73.1302 45.008V42.568H74.2582ZM77.8192 42.504C78.3472 42.504 78.7739 42.672 79.0992 43.008C79.4246 43.3387 79.5872 43.8027 79.5872 44.4V47H78.4672V44.552C78.4672 44.2 78.3792 43.9307 78.2032 43.744C78.0272 43.552 77.7872 43.456 77.4832 43.456C77.1739 43.456 76.9286 43.552 76.7472 43.744C76.5712 43.9307 76.4832 44.2 76.4832 44.552V47H75.3632V42.568H76.4832V43.12C76.6326 42.928 76.8219 42.7787 77.0512 42.672C77.2859 42.56 77.5419 42.504 77.8192 42.504ZM81.9563 43.488V45.632C81.9563 45.7813 81.991 45.8907 82.0603 45.96C82.135 46.024 82.2576 46.056 82.4283 46.056H82.9483V47H82.2443C81.3003 47 80.8283 46.5413 80.8283 45.624V43.488H80.3003V42.568H80.8283V41.472H81.9563V42.568H82.9483V43.488H81.9563Z" fill="#FCFCFC"/>
<circle cx="90.4374" cy="63.2964" r="3.26163" fill="url(#paint0_radial_142_445)"/>
<circle cx="90.4374" cy="63.2964" r="3.26163" fill="#4AAAFF"/>
<defs>
<filter id="filter0_b_142_445" x="-5.93023" y="-5.79058" width="113.86" height="86.5814" filterUnits="userSpaceOnUse" color-interpolation-filters="sRGB">
<feFlood flood-opacity="0" result="BackgroundImageFix"/>
<feGaussianBlur in="BackgroundImage" stdDeviation="2.96512"/>
<feComposite in2="SourceAlpha" operator="in" result="effect1_backgroundBlur_142_445"/>
<feBlend mode="normal" in="SourceGraphic" in2="effect1_backgroundBlur_142_445" result="shape"/>
</filter>
<radialGradient id="paint0_radial_142_445" cx="0" cy="0" r="1" gradientUnits="userSpaceOnUse" gradientTransform="translate(90.4374 63.2964) rotate(90) scale(3.26163)">
<stop stop-color="#4AAAFF"/>
<stop offset="1" stop-color="#4AAAFF" stop-opacity="0"/>
</radialGradient>
</defs>
</svg>
