<svg width="102" height="75" viewBox="0 0 102 75" fill="none" xmlns="http://www.w3.org/2000/svg">
<g filter="url(#filter0_b_142_435)">
<rect y="0.139648" width="102" height="74.7209" rx="5.93023" fill="white" fill-opacity="0.04"/>
</g>
<path d="M25.2559 28.416V34H24.1359V30.368L22.6399 34H21.7919L20.2879 30.368V34H19.1679V28.416H20.4399L22.2159 32.568L23.9919 28.416H25.2559ZM26.0752 31.768C26.0752 31.32 26.1632 30.9227 26.3392 30.576C26.5206 30.2293 26.7632 29.9627 27.0672 29.776C27.3766 29.5893 27.7206 29.496 28.0992 29.496C28.4299 29.496 28.7179 29.5627 28.9632 29.696C29.2139 29.8293 29.4139 29.9973 29.5632 30.2V29.568H30.6912V34H29.5632V33.352C29.4192 33.56 29.2192 33.7333 28.9632 33.872C28.7126 34.0053 28.4219 34.072 28.0912 34.072C27.7179 34.072 27.3766 33.976 27.0672 33.784C26.7632 33.592 26.5206 33.3227 26.3392 32.976C26.1632 32.624 26.0752 32.2213 26.0752 31.768ZM29.5632 31.784C29.5632 31.512 29.5099 31.28 29.4032 31.088C29.2966 30.8907 29.1526 30.7413 28.9712 30.64C28.7899 30.5333 28.5952 30.48 28.3872 30.48C28.1792 30.48 27.9872 30.5307 27.8112 30.632C27.6352 30.7333 27.4912 30.8827 27.3792 31.08C27.2726 31.272 27.2192 31.5013 27.2192 31.768C27.2192 32.0347 27.2726 32.2693 27.3792 32.472C27.4912 32.6693 27.6352 32.8213 27.8112 32.928C27.9926 33.0347 28.1846 33.088 28.3872 33.088C28.5952 33.088 28.7899 33.0373 28.9712 32.936C29.1526 32.8293 29.2966 32.68 29.4032 32.488C29.5099 32.2907 29.5632 32.056 29.5632 31.784ZM34.2411 29.504C34.7691 29.504 35.1958 29.672 35.5211 30.008C35.8465 30.3387 36.0091 30.8027 36.0091 31.4V34H34.8891V31.552C34.8891 31.2 34.8011 30.9307 34.6251 30.744C34.4491 30.552 34.2091 30.456 33.9051 30.456C33.5958 30.456 33.3505 30.552 33.1691 30.744C32.9931 30.9307 32.9051 31.2 32.9051 31.552V34H31.7851V29.568H32.9051V30.12C33.0545 29.928 33.2438 29.7787 33.4731 29.672C33.7078 29.56 33.9638 29.504 34.2411 29.504ZM36.7862 31.768C36.7862 31.32 36.8742 30.9227 37.0502 30.576C37.2315 30.2293 37.4742 29.9627 37.7782 29.776C38.0875 29.5893 38.4315 29.496 38.8102 29.496C39.1409 29.496 39.4289 29.5627 39.6742 29.696C39.9249 29.8293 40.1249 29.9973 40.2742 30.2V29.568H41.4022V34H40.2742V33.352C40.1302 33.56 39.9302 33.7333 39.6742 33.872C39.4235 34.0053 39.1329 34.072 38.8022 34.072C38.4289 34.072 38.0875 33.976 37.7782 33.784C37.4742 33.592 37.2315 33.3227 37.0502 32.976C36.8742 32.624 36.7862 32.2213 36.7862 31.768ZM40.2742 31.784C40.2742 31.512 40.2209 31.28 40.1142 31.088C40.0075 30.8907 39.8635 30.7413 39.6822 30.64C39.5009 30.5333 39.3062 30.48 39.0982 30.48C38.8902 30.48 38.6982 30.5307 38.5222 30.632C38.3462 30.7333 38.2022 30.8827 38.0902 31.08C37.9835 31.272 37.9302 31.5013 37.9302 31.768C37.9302 32.0347 37.9835 32.2693 38.0902 32.472C38.2022 32.6693 38.3462 32.8213 38.5222 32.928C38.7035 33.0347 38.8955 33.088 39.0982 33.088C39.3062 33.088 39.5009 33.0373 39.6822 32.936C39.8635 32.8293 40.0075 32.68 40.1142 32.488C40.2209 32.2907 40.2742 32.056 40.2742 31.784ZM44.2321 29.496C44.5627 29.496 44.8534 29.5627 45.1041 29.696C45.3547 29.824 45.5521 29.992 45.6961 30.2V29.568H46.8241V34.032C46.8241 34.4427 46.7414 34.808 46.5761 35.128C46.4107 35.4533 46.1627 35.7093 45.8321 35.896C45.5014 36.088 45.1014 36.184 44.6321 36.184C44.0027 36.184 43.4854 36.0373 43.0801 35.744C42.6801 35.4507 42.4534 35.0507 42.4001 34.544H43.5121C43.5707 34.7467 43.6961 34.9067 43.8881 35.024C44.0854 35.1467 44.3227 35.208 44.6001 35.208C44.9254 35.208 45.1894 35.1093 45.3921 34.912C45.5947 34.72 45.6961 34.4267 45.6961 34.032V33.344C45.5521 33.552 45.3521 33.7253 45.0961 33.864C44.8454 34.0027 44.5574 34.072 44.2321 34.072C43.8587 34.072 43.5174 33.976 43.2081 33.784C42.8987 33.592 42.6534 33.3227 42.4721 32.976C42.2961 32.624 42.2081 32.2213 42.2081 31.768C42.2081 31.32 42.2961 30.9227 42.4721 30.576C42.6534 30.2293 42.8961 29.9627 43.2001 29.776C43.5094 29.5893 43.8534 29.496 44.2321 29.496ZM45.6961 31.784C45.6961 31.512 45.6427 31.28 45.5361 31.088C45.4294 30.8907 45.2854 30.7413 45.1041 30.64C44.9227 30.5333 44.7281 30.48 44.5201 30.48C44.3121 30.48 44.1201 30.5307 43.9441 30.632C43.7681 30.7333 43.6241 30.8827 43.5121 31.08C43.4054 31.272 43.3521 31.5013 43.3521 31.768C43.3521 32.0347 43.4054 32.2693 43.5121 32.472C43.6241 32.6693 43.7681 32.8213 43.9441 32.928C44.1254 33.0347 44.3174 33.088 44.5201 33.088C44.7281 33.088 44.9227 33.0373 45.1041 32.936C45.2854 32.8293 45.4294 32.68 45.5361 32.488C45.6427 32.2907 45.6961 32.056 45.6961 31.784ZM52.0379 31.688C52.0379 31.848 52.0273 31.992 52.0059 32.12H48.7659C48.7926 32.44 48.9046 32.6907 49.1019 32.872C49.2993 33.0533 49.5419 33.144 49.8299 33.144C50.2459 33.144 50.5419 32.9653 50.7179 32.608H51.9259C51.7979 33.0347 51.5526 33.3867 51.1899 33.664C50.8273 33.936 50.3819 34.072 49.8539 34.072C49.4273 34.072 49.0433 33.9787 48.7019 33.792C48.3659 33.6 48.1019 33.3307 47.9099 32.984C47.7233 32.6373 47.6299 32.2373 47.6299 31.784C47.6299 31.3253 47.7233 30.9227 47.9099 30.576C48.0966 30.2293 48.3579 29.9627 48.6939 29.776C49.0299 29.5893 49.4166 29.496 49.8539 29.496C50.2753 29.496 50.6513 29.5867 50.9819 29.768C51.3179 29.9493 51.5766 30.208 51.7579 30.544C51.9446 30.8747 52.0379 31.256 52.0379 31.688ZM50.8779 31.368C50.8726 31.08 50.7686 30.8507 50.5659 30.68C50.3633 30.504 50.1153 30.416 49.8219 30.416C49.5446 30.416 49.3099 30.5013 49.1179 30.672C48.9313 30.8373 48.8166 31.0693 48.7739 31.368H50.8779ZM58.3594 29.504C58.9034 29.504 59.3408 29.672 59.6714 30.008C60.0074 30.3387 60.1754 30.8027 60.1754 31.4V34H59.0554V31.552C59.0554 31.2053 58.9674 30.9413 58.7914 30.76C58.6154 30.5733 58.3754 30.48 58.0714 30.48C57.7674 30.48 57.5248 30.5733 57.3434 30.76C57.1674 30.9413 57.0794 31.2053 57.0794 31.552V34H55.9594V31.552C55.9594 31.2053 55.8714 30.9413 55.6954 30.76C55.5194 30.5733 55.2794 30.48 54.9754 30.48C54.6661 30.48 54.4208 30.5733 54.2394 30.76C54.0634 30.9413 53.9754 31.2053 53.9754 31.552V34H52.8554V29.568H53.9754V30.104C54.1194 29.9173 54.3034 29.7707 54.5274 29.664C54.7568 29.5573 55.0074 29.504 55.2794 29.504C55.6261 29.504 55.9354 29.5787 56.2074 29.728C56.4794 29.872 56.6901 30.08 56.8394 30.352C56.9834 30.096 57.1914 29.8907 57.4634 29.736C57.7408 29.5813 58.0394 29.504 58.3594 29.504ZM65.3582 31.688C65.3582 31.848 65.3476 31.992 65.3262 32.12H62.0862C62.1129 32.44 62.2249 32.6907 62.4222 32.872C62.6196 33.0533 62.8622 33.144 63.1502 33.144C63.5662 33.144 63.8622 32.9653 64.0382 32.608H65.2462C65.1182 33.0347 64.8729 33.3867 64.5102 33.664C64.1476 33.936 63.7022 34.072 63.1742 34.072C62.7476 34.072 62.3636 33.9787 62.0222 33.792C61.6862 33.6 61.4222 33.3307 61.2302 32.984C61.0436 32.6373 60.9502 32.2373 60.9502 31.784C60.9502 31.3253 61.0436 30.9227 61.2302 30.576C61.4169 30.2293 61.6782 29.9627 62.0142 29.776C62.3502 29.5893 62.7369 29.496 63.1742 29.496C63.5956 29.496 63.9716 29.5867 64.3022 29.768C64.6382 29.9493 64.8969 30.208 65.0782 30.544C65.2649 30.8747 65.3582 31.256 65.3582 31.688ZM64.1982 31.368C64.1929 31.08 64.0889 30.8507 63.8862 30.68C63.6836 30.504 63.4356 30.416 63.1422 30.416C62.8649 30.416 62.6302 30.5013 62.4382 30.672C62.2516 30.8373 62.1369 31.0693 62.0942 31.368H64.1982ZM68.6317 29.504C69.1597 29.504 69.5864 29.672 69.9117 30.008C70.2371 30.3387 70.3997 30.8027 70.3997 31.4V34H69.2797V31.552C69.2797 31.2 69.1917 30.9307 69.0157 30.744C68.8397 30.552 68.5997 30.456 68.2957 30.456C67.9864 30.456 67.7411 30.552 67.5597 30.744C67.3837 30.9307 67.2957 31.2 67.2957 31.552V34H66.1757V29.568H67.2957V30.12C67.4451 29.928 67.6344 29.7787 67.8637 29.672C68.0984 29.56 68.3544 29.504 68.6317 29.504ZM72.7688 30.488V32.632C72.7688 32.7813 72.8035 32.8907 72.8728 32.96C72.9475 33.024 73.0701 33.056 73.2408 33.056H73.7608V34H73.0568C72.1128 34 71.6408 33.5413 71.6408 32.624V30.488H71.1128V29.568H71.6408V28.472H72.7688V29.568H73.7608V30.488H72.7688ZM78.4406 34.072C78.014 34.072 77.63 33.9787 77.2886 33.792C76.9473 33.6 76.678 33.3307 76.4806 32.984C76.2886 32.6373 76.1926 32.2373 76.1926 31.784C76.1926 31.3307 76.2913 30.9307 76.4886 30.584C76.6913 30.2373 76.966 29.9707 77.3126 29.784C77.6593 29.592 78.046 29.496 78.4726 29.496C78.8993 29.496 79.286 29.592 79.6326 29.784C79.9793 29.9707 80.2513 30.2373 80.4486 30.584C80.6513 30.9307 80.7526 31.3307 80.7526 31.784C80.7526 32.2373 80.6486 32.6373 80.4406 32.984C80.238 33.3307 79.9606 33.6 79.6086 33.792C79.262 33.9787 78.8726 34.072 78.4406 34.072ZM78.4406 33.096C78.6433 33.096 78.8326 33.048 79.0086 32.952C79.19 32.8507 79.334 32.7013 79.4406 32.504C79.5473 32.3067 79.6006 32.0667 79.6006 31.784C79.6006 31.3627 79.4886 31.04 79.2646 30.816C79.046 30.5867 78.7766 30.472 78.4566 30.472C78.1366 30.472 77.8673 30.5867 77.6486 30.816C77.4353 31.04 77.3286 31.3627 77.3286 31.784C77.3286 32.2053 77.4326 32.5307 77.6406 32.76C77.854 32.984 78.1206 33.096 78.4406 33.096ZM83.6062 30.488H82.8302V34H81.6942V30.488H81.1902V29.568H81.6942V29.344C81.6942 28.8 81.8489 28.4 82.1582 28.144C82.4675 27.888 82.9342 27.768 83.5582 27.784V28.728C83.2862 28.7227 83.0969 28.768 82.9902 28.864C82.8835 28.96 82.8302 29.1333 82.8302 29.384V29.568H83.6062V30.488ZM20.2336 41.416V42.32H18.7456V47H17.6256V42.32H16.1376V41.416H20.2336ZM25.1707 44.688C25.1707 44.848 25.1601 44.992 25.1387 45.12H21.8987C21.9254 45.44 22.0374 45.6907 22.2347 45.872C22.4321 46.0533 22.6747 46.144 22.9627 46.144C23.3787 46.144 23.6747 45.9653 23.8507 45.608H25.0587C24.9307 46.0347 24.6854 46.3867 24.3227 46.664C23.9601 46.936 23.5147 47.072 22.9867 47.072C22.5601 47.072 22.1761 46.9787 21.8347 46.792C21.4987 46.6 21.2347 46.3307 21.0427 45.984C20.8561 45.6373 20.7627 45.2373 20.7627 44.784C20.7627 44.3253 20.8561 43.9227 21.0427 43.576C21.2294 43.2293 21.4907 42.9627 21.8267 42.776C22.1627 42.5893 22.5494 42.496 22.9867 42.496C23.4081 42.496 23.7841 42.5867 24.1147 42.768C24.4507 42.9493 24.7094 43.208 24.8907 43.544C25.0774 43.8747 25.1707 44.256 25.1707 44.688ZM24.0107 44.368C24.0054 44.08 23.9014 43.8507 23.6987 43.68C23.4961 43.504 23.2481 43.416 22.9547 43.416C22.6774 43.416 22.4427 43.5013 22.2507 43.672C22.0641 43.8373 21.9494 44.0693 21.9067 44.368H24.0107ZM27.1082 41.08V47H25.9882V41.08H27.1082ZM32.3348 44.688C32.3348 44.848 32.3241 44.992 32.3028 45.12H29.0628C29.0895 45.44 29.2015 45.6907 29.3988 45.872C29.5961 46.0533 29.8388 46.144 30.1268 46.144C30.5428 46.144 30.8388 45.9653 31.0148 45.608H32.2228C32.0948 46.0347 31.8495 46.3867 31.4868 46.664C31.1241 46.936 30.6788 47.072 30.1508 47.072C29.7241 47.072 29.3401 46.9787 28.9988 46.792C28.6628 46.6 28.3988 46.3307 28.2068 45.984C28.0201 45.6373 27.9268 45.2373 27.9268 44.784C27.9268 44.3253 28.0201 43.9227 28.2068 43.576C28.3935 43.2293 28.6548 42.9627 28.9908 42.776C29.3268 42.5893 29.7135 42.496 30.1508 42.496C30.5721 42.496 30.9481 42.5867 31.2788 42.768C31.6148 42.9493 31.8735 43.208 32.0548 43.544C32.2415 43.8747 32.3348 44.256 32.3348 44.688ZM31.1748 44.368C31.1695 44.08 31.0655 43.8507 30.8628 43.68C30.6601 43.504 30.4121 43.416 30.1188 43.416C29.8415 43.416 29.6068 43.5013 29.4148 43.672C29.2281 43.8373 29.1135 44.0693 29.0708 44.368H31.1748ZM34.8883 42.496C35.219 42.496 35.5096 42.5627 35.7603 42.696C36.011 42.824 36.2083 42.992 36.3523 43.2V42.568H37.4803V47.032C37.4803 47.4427 37.3976 47.808 37.2323 48.128C37.067 48.4533 36.819 48.7093 36.4883 48.896C36.1576 49.088 35.7576 49.184 35.2883 49.184C34.659 49.184 34.1416 49.0373 33.7363 48.744C33.3363 48.4507 33.1096 48.0507 33.0563 47.544H34.1683C34.227 47.7467 34.3523 47.9067 34.5443 48.024C34.7416 48.1467 34.979 48.208 35.2563 48.208C35.5816 48.208 35.8456 48.1093 36.0483 47.912C36.251 47.72 36.3523 47.4267 36.3523 47.032V46.344C36.2083 46.552 36.0083 46.7253 35.7523 46.864C35.5016 47.0027 35.2136 47.072 34.8883 47.072C34.515 47.072 34.1736 46.976 33.8643 46.784C33.555 46.592 33.3096 46.3227 33.1283 45.976C32.9523 45.624 32.8643 45.2213 32.8643 44.768C32.8643 44.32 32.9523 43.9227 33.1283 43.576C33.3096 43.2293 33.5523 42.9627 33.8563 42.776C34.1656 42.5893 34.5096 42.496 34.8883 42.496ZM36.3523 44.784C36.3523 44.512 36.299 44.28 36.1923 44.088C36.0856 43.8907 35.9416 43.7413 35.7603 43.64C35.579 43.5333 35.3843 43.48 35.1763 43.48C34.9683 43.48 34.7763 43.5307 34.6003 43.632C34.4243 43.7333 34.2803 43.8827 34.1683 44.08C34.0616 44.272 34.0083 44.5013 34.0083 44.768C34.0083 45.0347 34.0616 45.2693 34.1683 45.472C34.2803 45.6693 34.4243 45.8213 34.6003 45.928C34.7816 46.0347 34.9736 46.088 35.1763 46.088C35.3843 46.088 35.579 46.0373 35.7603 45.936C35.9416 45.8293 36.0856 45.68 36.1923 45.488C36.299 45.2907 36.3523 45.056 36.3523 44.784ZM39.6942 43.256C39.8382 43.0213 40.0249 42.8373 40.2542 42.704C40.4889 42.5707 40.7555 42.504 41.0542 42.504V43.68H40.7582C40.4062 43.68 40.1395 43.7627 39.9582 43.928C39.7822 44.0933 39.6942 44.3813 39.6942 44.792V47H38.5742V42.568H39.6942V43.256ZM41.5206 44.768C41.5206 44.32 41.6086 43.9227 41.7846 43.576C41.9659 43.2293 42.2086 42.9627 42.5126 42.776C42.8219 42.5893 43.1659 42.496 43.5446 42.496C43.8752 42.496 44.1632 42.5627 44.4086 42.696C44.6592 42.8293 44.8592 42.9973 45.0086 43.2V42.568H46.1366V47H45.0086V46.352C44.8646 46.56 44.6646 46.7333 44.4086 46.872C44.1579 47.0053 43.8672 47.072 43.5366 47.072C43.1632 47.072 42.8219 46.976 42.5126 46.784C42.2086 46.592 41.9659 46.3227 41.7846 45.976C41.6086 45.624 41.5206 45.2213 41.5206 44.768ZM45.0086 44.784C45.0086 44.512 44.9552 44.28 44.8486 44.088C44.7419 43.8907 44.5979 43.7413 44.4166 43.64C44.2352 43.5333 44.0406 43.48 43.8326 43.48C43.6246 43.48 43.4326 43.5307 43.2566 43.632C43.0806 43.7333 42.9366 43.8827 42.8246 44.08C42.7179 44.272 42.6646 44.5013 42.6646 44.768C42.6646 45.0347 42.7179 45.2693 42.8246 45.472C42.9366 45.6693 43.0806 45.8213 43.2566 45.928C43.4379 46.0347 43.6299 46.088 43.8326 46.088C44.0406 46.088 44.2352 46.0373 44.4166 45.936C44.5979 45.8293 44.7419 45.68 44.8486 45.488C44.9552 45.2907 45.0086 45.056 45.0086 44.784ZM52.7344 42.504C53.2784 42.504 53.7158 42.672 54.0464 43.008C54.3824 43.3387 54.5504 43.8027 54.5504 44.4V47H53.4304V44.552C53.4304 44.2053 53.3424 43.9413 53.1664 43.76C52.9904 43.5733 52.7504 43.48 52.4464 43.48C52.1424 43.48 51.8998 43.5733 51.7184 43.76C51.5424 43.9413 51.4544 44.2053 51.4544 44.552V47H50.3344V44.552C50.3344 44.2053 50.2464 43.9413 50.0704 43.76C49.8944 43.5733 49.6544 43.48 49.3504 43.48C49.0411 43.48 48.7958 43.5733 48.6144 43.76C48.4384 43.9413 48.3504 44.2053 48.3504 44.552V47H47.2304V42.568H48.3504V43.104C48.4944 42.9173 48.6784 42.7707 48.9024 42.664C49.1318 42.5573 49.3824 42.504 49.6544 42.504C50.0011 42.504 50.3104 42.5787 50.5824 42.728C50.8544 42.872 51.0651 43.08 51.2144 43.352C51.3584 43.096 51.5664 42.8907 51.8384 42.736C52.1158 42.5813 52.4144 42.504 52.7344 42.504ZM61.4075 43.096C61.2795 42.8613 61.1035 42.6827 60.8795 42.56C60.6555 42.4373 60.3942 42.376 60.0955 42.376C59.7648 42.376 59.4715 42.4507 59.2155 42.6C58.9595 42.7493 58.7595 42.9627 58.6155 43.24C58.4715 43.5173 58.3995 43.8373 58.3995 44.2C58.3995 44.5733 58.4715 44.8987 58.6155 45.176C58.7648 45.4533 58.9702 45.6667 59.2315 45.816C59.4928 45.9653 59.7968 46.04 60.1435 46.04C60.5702 46.04 60.9195 45.928 61.1915 45.704C61.4635 45.4747 61.6422 45.1573 61.7275 44.752H59.8075V43.896H62.8315V44.872C62.7568 45.2613 62.5968 45.6213 62.3515 45.952C62.1062 46.2827 61.7888 46.5493 61.3995 46.752C61.0155 46.9493 60.5835 47.048 60.1035 47.048C59.5648 47.048 59.0768 46.928 58.6395 46.688C58.2075 46.4427 57.8662 46.104 57.6155 45.672C57.3702 45.24 57.2475 44.7493 57.2475 44.2C57.2475 43.6507 57.3702 43.16 57.6155 42.728C57.8662 42.2907 58.2075 41.952 58.6395 41.712C59.0768 41.4667 59.5622 41.344 60.0955 41.344C60.7248 41.344 61.2715 41.4987 61.7355 41.808C62.1995 42.112 62.5195 42.5413 62.6955 43.096H61.4075ZM64.7801 43.256C64.9241 43.0213 65.1108 42.8373 65.3401 42.704C65.5748 42.5707 65.8415 42.504 66.1401 42.504V43.68H65.8441C65.4921 43.68 65.2255 43.7627 65.0441 43.928C64.8681 44.0933 64.7801 44.3813 64.7801 44.792V47H63.6601V42.568H64.7801V43.256ZM68.8625 47.072C68.4358 47.072 68.0518 46.9787 67.7105 46.792C67.3692 46.6 67.0998 46.3307 66.9025 45.984C66.7105 45.6373 66.6145 45.2373 66.6145 44.784C66.6145 44.3307 66.7132 43.9307 66.9105 43.584C67.1132 43.2373 67.3878 42.9707 67.7345 42.784C68.0812 42.592 68.4678 42.496 68.8945 42.496C69.3212 42.496 69.7078 42.592 70.0545 42.784C70.4012 42.9707 70.6732 43.2373 70.8705 43.584C71.0732 43.9307 71.1745 44.3307 71.1745 44.784C71.1745 45.2373 71.0705 45.6373 70.8625 45.984C70.6598 46.3307 70.3825 46.6 70.0305 46.792C69.6838 46.9787 69.2945 47.072 68.8625 47.072ZM68.8625 46.096C69.0652 46.096 69.2545 46.048 69.4305 45.952C69.6118 45.8507 69.7558 45.7013 69.8625 45.504C69.9692 45.3067 70.0225 45.0667 70.0225 44.784C70.0225 44.3627 69.9105 44.04 69.6865 43.816C69.4678 43.5867 69.1985 43.472 68.8785 43.472C68.5585 43.472 68.2892 43.5867 68.0705 43.816C67.8572 44.04 67.7505 44.3627 67.7505 44.784C67.7505 45.2053 67.8545 45.5307 68.0625 45.76C68.2758 45.984 68.5425 46.096 68.8625 46.096ZM76.1801 42.568V47H75.0521V46.44C74.9081 46.632 74.7187 46.784 74.4841 46.896C74.2547 47.0027 74.0041 47.056 73.7321 47.056C73.3854 47.056 73.0787 46.984 72.8121 46.84C72.5454 46.6907 72.3347 46.4747 72.1801 46.192C72.0307 45.904 71.9561 45.5627 71.9561 45.168V42.568H73.0761V45.008C73.0761 45.36 73.1641 45.632 73.3401 45.824C73.5161 46.0107 73.7561 46.104 74.0601 46.104C74.3694 46.104 74.6121 46.0107 74.7881 45.824C74.9641 45.632 75.0521 45.36 75.0521 45.008V42.568H76.1801ZM78.4051 43.208C78.5491 43.0053 78.7465 42.8373 78.9971 42.704C79.2531 42.5653 79.5438 42.496 79.8691 42.496C80.2478 42.496 80.5891 42.5893 80.8931 42.776C81.2025 42.9627 81.4451 43.2293 81.6211 43.576C81.8025 43.9173 81.8931 44.3147 81.8931 44.768C81.8931 45.2213 81.8025 45.624 81.6211 45.976C81.4451 46.3227 81.2025 46.592 80.8931 46.784C80.5891 46.976 80.2478 47.072 79.8691 47.072C79.5438 47.072 79.2558 47.0053 79.0051 46.872C78.7598 46.7387 78.5598 46.5707 78.4051 46.368V49.112H77.2851V42.568H78.4051V43.208ZM80.7491 44.768C80.7491 44.5013 80.6931 44.272 80.5811 44.08C80.4745 43.8827 80.3305 43.7333 80.1491 43.632C79.9731 43.5307 79.7811 43.48 79.5731 43.48C79.3705 43.48 79.1785 43.5333 78.9971 43.64C78.8211 43.7413 78.6771 43.8907 78.5651 44.088C78.4585 44.2853 78.4051 44.5173 78.4051 44.784C78.4051 45.0507 78.4585 45.2827 78.5651 45.48C78.6771 45.6773 78.8211 45.8293 78.9971 45.936C79.1785 46.0373 79.3705 46.088 79.5731 46.088C79.7811 46.088 79.9731 46.0347 80.1491 45.928C80.3305 45.8213 80.4745 45.6693 80.5811 45.472C80.6931 45.2747 80.7491 45.04 80.7491 44.768ZM84.403 47.072C84.0403 47.072 83.715 47.008 83.427 46.88C83.139 46.7467 82.9097 46.568 82.739 46.344C82.5737 46.12 82.483 45.872 82.467 45.6H83.595C83.6163 45.7707 83.699 45.912 83.843 46.024C83.9923 46.136 84.1763 46.192 84.395 46.192C84.6083 46.192 84.7737 46.1493 84.891 46.064C85.0137 45.9787 85.075 45.8693 85.075 45.736C85.075 45.592 85.0003 45.4853 84.851 45.416C84.707 45.3413 84.475 45.2613 84.155 45.176C83.8243 45.096 83.5523 45.0133 83.339 44.928C83.131 44.8427 82.9497 44.712 82.795 44.536C82.6457 44.36 82.571 44.1227 82.571 43.824C82.571 43.5787 82.6403 43.3547 82.779 43.152C82.923 42.9493 83.1257 42.7893 83.387 42.672C83.6537 42.5547 83.9657 42.496 84.323 42.496C84.851 42.496 85.2723 42.6293 85.587 42.896C85.9017 43.1573 86.075 43.512 86.107 43.96H85.035C85.019 43.784 84.9443 43.6453 84.811 43.544C84.683 43.4373 84.5097 43.384 84.291 43.384C84.0883 43.384 83.931 43.4213 83.819 43.496C83.7123 43.5707 83.659 43.6747 83.659 43.808C83.659 43.9573 83.7337 44.072 83.883 44.152C84.0323 44.2267 84.2643 44.304 84.579 44.384C84.899 44.464 85.163 44.5467 85.371 44.632C85.579 44.7173 85.7577 44.8507 85.907 45.032C86.0617 45.208 86.1417 45.4427 86.147 45.736C86.147 45.992 86.075 46.2213 85.931 46.424C85.7923 46.6267 85.5897 46.7867 85.323 46.904C85.0617 47.016 84.755 47.072 84.403 47.072Z" fill="#FCFCFC"/>
<circle cx="90.4364" cy="63.2964" r="3.26163" fill="url(#paint0_radial_142_435)"/>
<circle cx="90.4364" cy="63.2964" r="3.26163" fill="#4AAAFF"/>
<defs>
<filter id="filter0_b_142_435" x="-5.93023" y="-5.79058" width="113.86" height="86.5814" filterUnits="userSpaceOnUse" color-interpolation-filters="sRGB">
<feFlood flood-opacity="0" result="BackgroundImageFix"/>
<feGaussianBlur in="BackgroundImage" stdDeviation="2.96512"/>
<feComposite in2="SourceAlpha" operator="in" result="effect1_backgroundBlur_142_435"/>
<feBlend mode="normal" in="SourceGraphic" in2="effect1_backgroundBlur_142_435" result="shape"/>
</filter>
<radialGradient id="paint0_radial_142_435" cx="0" cy="0" r="1" gradientUnits="userSpaceOnUse" gradientTransform="translate(90.4364 63.2964) rotate(90) scale(3.26163)">
<stop stop-color="#4AAAFF"/>
<stop offset="1" stop-color="#4AAAFF" stop-opacity="0"/>
</radialGradient>
</defs>
</svg>
