<svg width="108" height="79" viewBox="0 0 108 79" fill="none" xmlns="http://www.w3.org/2000/svg">
<g filter="url(#filter0_b_68_712)">
<rect width="107.841" height="79" rx="6.26984" fill="white" fill-opacity="0.04"/>
</g>
<path d="M24.3152 27.718V34H23.0552V29.914L21.3722 34H20.4182L18.7262 29.914V34H17.4662V27.718H18.8972L20.8952 32.389L22.8932 27.718H24.3152ZM25.2369 31.489C25.2369 30.985 25.3359 30.538 25.5339 30.148C25.7379 29.758 26.0109 29.458 26.3529 29.248C26.7009 29.038 27.0879 28.933 27.5139 28.933C27.8859 28.933 28.2099 29.008 28.4859 29.158C28.7679 29.308 28.9929 29.497 29.1609 29.725V29.014H30.4299V34H29.1609V33.271C28.9989 33.505 28.7739 33.7 28.4859 33.856C28.2039 34.006 27.8769 34.081 27.5049 34.081C27.0849 34.081 26.7009 33.973 26.3529 33.757C26.0109 33.541 25.7379 33.238 25.5339 32.848C25.3359 32.452 25.2369 31.999 25.2369 31.489ZM29.1609 31.507C29.1609 31.201 29.1009 30.94 28.9809 30.724C28.8609 30.502 28.6989 30.334 28.4949 30.22C28.2909 30.1 28.0719 30.04 27.8379 30.04C27.6039 30.04 27.3879 30.097 27.1899 30.211C26.9919 30.325 26.8299 30.493 26.7039 30.715C26.5839 30.931 26.5239 31.189 26.5239 31.489C26.5239 31.789 26.5839 32.053 26.7039 32.281C26.8299 32.503 26.9919 32.674 27.1899 32.794C27.3939 32.914 27.6099 32.974 27.8379 32.974C28.0719 32.974 28.2909 32.917 28.4949 32.803C28.6989 32.683 28.8609 32.515 28.9809 32.299C29.1009 32.077 29.1609 31.813 29.1609 31.507ZM34.4236 28.942C35.0176 28.942 35.4976 29.131 35.8636 29.509C36.2296 29.881 36.4126 30.403 36.4126 31.075V34H35.1526V31.246C35.1526 30.85 35.0536 30.547 34.8556 30.337C34.6576 30.121 34.3876 30.013 34.0456 30.013C33.6976 30.013 33.4216 30.121 33.2176 30.337C33.0196 30.547 32.9206 30.85 32.9206 31.246V34H31.6606V29.014H32.9206V29.635C33.0886 29.419 33.3016 29.251 33.5596 29.131C33.8236 29.005 34.1116 28.942 34.4236 28.942ZM37.2867 31.489C37.2867 30.985 37.3857 30.538 37.5837 30.148C37.7877 29.758 38.0607 29.458 38.4027 29.248C38.7507 29.038 39.1377 28.933 39.5637 28.933C39.9357 28.933 40.2597 29.008 40.5357 29.158C40.8177 29.308 41.0427 29.497 41.2107 29.725V29.014H42.4797V34H41.2107V33.271C41.0487 33.505 40.8237 33.7 40.5357 33.856C40.2537 34.006 39.9267 34.081 39.5547 34.081C39.1347 34.081 38.7507 33.973 38.4027 33.757C38.0607 33.541 37.7877 33.238 37.5837 32.848C37.3857 32.452 37.2867 31.999 37.2867 31.489ZM41.2107 31.507C41.2107 31.201 41.1507 30.94 41.0307 30.724C40.9107 30.502 40.7487 30.334 40.5447 30.22C40.3407 30.1 40.1217 30.04 39.8877 30.04C39.6537 30.04 39.4377 30.097 39.2397 30.211C39.0417 30.325 38.8797 30.493 38.7537 30.715C38.6337 30.931 38.5737 31.189 38.5737 31.489C38.5737 31.789 38.6337 32.053 38.7537 32.281C38.8797 32.503 39.0417 32.674 39.2397 32.794C39.4437 32.914 39.6597 32.974 39.8877 32.974C40.1217 32.974 40.3407 32.917 40.5447 32.803C40.7487 32.683 40.9107 32.515 41.0307 32.299C41.1507 32.077 41.2107 31.813 41.2107 31.507ZM45.6634 28.933C46.0354 28.933 46.3624 29.008 46.6444 29.158C46.9264 29.302 47.1484 29.491 47.3104 29.725V29.014H48.5794V34.036C48.5794 34.498 48.4864 34.909 48.3004 35.269C48.1144 35.635 47.8354 35.923 47.4634 36.133C47.0914 36.349 46.6414 36.457 46.1134 36.457C45.4054 36.457 44.8234 36.292 44.3674 35.962C43.9174 35.632 43.6624 35.182 43.6024 34.612H44.8534C44.9194 34.84 45.0604 35.02 45.2764 35.152C45.4984 35.29 45.7654 35.359 46.0774 35.359C46.4434 35.359 46.7404 35.248 46.9684 35.026C47.1964 34.81 47.3104 34.48 47.3104 34.036V33.262C47.1484 33.496 46.9234 33.691 46.6354 33.847C46.3534 34.003 46.0294 34.081 45.6634 34.081C45.2434 34.081 44.8594 33.973 44.5114 33.757C44.1634 33.541 43.8874 33.238 43.6834 32.848C43.4854 32.452 43.3864 31.999 43.3864 31.489C43.3864 30.985 43.4854 30.538 43.6834 30.148C43.8874 29.758 44.1604 29.458 44.5024 29.248C44.8504 29.038 45.2374 28.933 45.6634 28.933ZM47.3104 31.507C47.3104 31.201 47.2504 30.94 47.1304 30.724C47.0104 30.502 46.8484 30.334 46.6444 30.22C46.4404 30.1 46.2214 30.04 45.9874 30.04C45.7534 30.04 45.5374 30.097 45.3394 30.211C45.1414 30.325 44.9794 30.493 44.8534 30.715C44.7334 30.931 44.6734 31.189 44.6734 31.489C44.6734 31.789 44.7334 32.053 44.8534 32.281C44.9794 32.503 45.1414 32.674 45.3394 32.794C45.5434 32.914 45.7594 32.974 45.9874 32.974C46.2214 32.974 46.4404 32.917 46.6444 32.803C46.8484 32.683 47.0104 32.515 47.1304 32.299C47.2504 32.077 47.3104 31.813 47.3104 31.507ZM54.445 31.399C54.445 31.579 54.433 31.741 54.409 31.885H50.764C50.794 32.245 50.92 32.527 51.142 32.731C51.364 32.935 51.637 33.037 51.961 33.037C52.429 33.037 52.762 32.836 52.96 32.434H54.319C54.175 32.914 53.899 33.31 53.491 33.622C53.083 33.928 52.582 34.081 51.988 34.081C51.508 34.081 51.076 33.976 50.692 33.766C50.314 33.55 50.017 33.247 49.801 32.857C49.591 32.467 49.486 32.017 49.486 31.507C49.486 30.991 49.591 30.538 49.801 30.148C50.011 29.758 50.305 29.458 50.683 29.248C51.061 29.038 51.496 28.933 51.988 28.933C52.462 28.933 52.885 29.035 53.257 29.239C53.635 29.443 53.926 29.734 54.13 30.112C54.34 30.484 54.445 30.913 54.445 31.399ZM53.14 31.039C53.134 30.715 53.017 30.457 52.789 30.265C52.561 30.067 52.282 29.968 51.952 29.968C51.64 29.968 51.376 30.064 51.16 30.256C50.95 30.442 50.821 30.703 50.773 31.039H53.14ZM61.5567 28.942C62.1687 28.942 62.6607 29.131 63.0327 29.509C63.4107 29.881 63.5997 30.403 63.5997 31.075V34H62.3397V31.246C62.3397 30.856 62.2407 30.559 62.0427 30.355C61.8447 30.145 61.5747 30.04 61.2327 30.04C60.8907 30.04 60.6177 30.145 60.4137 30.355C60.2157 30.559 60.1167 30.856 60.1167 31.246V34H58.8567V31.246C58.8567 30.856 58.7577 30.559 58.5597 30.355C58.3617 30.145 58.0917 30.04 57.7497 30.04C57.4017 30.04 57.1257 30.145 56.9217 30.355C56.7237 30.559 56.6247 30.856 56.6247 31.246V34H55.3647V29.014H56.6247V29.617C56.7867 29.407 56.9937 29.242 57.2457 29.122C57.5037 29.002 57.7857 28.942 58.0917 28.942C58.4817 28.942 58.8297 29.026 59.1357 29.194C59.4417 29.356 59.6787 29.59 59.8467 29.896C60.0087 29.608 60.2427 29.377 60.5487 29.203C60.8607 29.029 61.1967 28.942 61.5567 28.942ZM69.4303 31.399C69.4303 31.579 69.4183 31.741 69.3943 31.885H65.7493C65.7793 32.245 65.9053 32.527 66.1273 32.731C66.3493 32.935 66.6223 33.037 66.9463 33.037C67.4143 33.037 67.7473 32.836 67.9453 32.434H69.3043C69.1603 32.914 68.8843 33.31 68.4763 33.622C68.0683 33.928 67.5673 34.081 66.9733 34.081C66.4933 34.081 66.0613 33.976 65.6773 33.766C65.2993 33.55 65.0023 33.247 64.7863 32.857C64.5763 32.467 64.4713 32.017 64.4713 31.507C64.4713 30.991 64.5763 30.538 64.7863 30.148C64.9963 29.758 65.2903 29.458 65.6683 29.248C66.0463 29.038 66.4813 28.933 66.9733 28.933C67.4473 28.933 67.8703 29.035 68.2423 29.239C68.6203 29.443 68.9113 29.734 69.1153 30.112C69.3253 30.484 69.4303 30.913 69.4303 31.399ZM68.1253 31.039C68.1193 30.715 68.0023 30.457 67.7743 30.265C67.5463 30.067 67.2673 29.968 66.9373 29.968C66.6253 29.968 66.3613 30.064 66.1453 30.256C65.9353 30.442 65.8063 30.703 65.7583 31.039H68.1253ZM73.113 28.942C73.707 28.942 74.187 29.131 74.553 29.509C74.919 29.881 75.102 30.403 75.102 31.075V34H73.842V31.246C73.842 30.85 73.743 30.547 73.545 30.337C73.347 30.121 73.077 30.013 72.735 30.013C72.387 30.013 72.111 30.121 71.907 30.337C71.709 30.547 71.61 30.85 71.61 31.246V34H70.35V29.014H71.61V29.635C71.778 29.419 71.991 29.251 72.249 29.131C72.513 29.005 72.801 28.942 73.113 28.942ZM77.7672 30.049V32.461C77.7672 32.629 77.8062 32.752 77.8842 32.83C77.9682 32.902 78.1062 32.938 78.2982 32.938H78.8832V34H78.0912C77.0292 34 76.4982 33.484 76.4982 32.452V30.049H75.9042V29.014H76.4982V27.781H77.7672V29.014H78.8832V30.049H77.7672ZM84.148 34.081C83.668 34.081 83.236 33.976 82.852 33.766C82.468 33.55 82.165 33.247 81.943 32.857C81.727 32.467 81.619 32.017 81.619 31.507C81.619 30.997 81.73 30.547 81.952 30.157C82.18 29.767 82.489 29.467 82.879 29.257C83.269 29.041 83.704 28.933 84.184 28.933C84.664 28.933 85.099 29.041 85.489 29.257C85.879 29.467 86.185 29.767 86.407 30.157C86.635 30.547 86.749 30.997 86.749 31.507C86.749 32.017 86.632 32.467 86.398 32.857C86.17 33.247 85.858 33.55 85.462 33.766C85.072 33.976 84.634 34.081 84.148 34.081ZM84.148 32.983C84.376 32.983 84.589 32.929 84.787 32.821C84.991 32.707 85.153 32.539 85.273 32.317C85.393 32.095 85.453 31.825 85.453 31.507C85.453 31.033 85.327 30.67 85.075 30.418C84.829 30.16 84.526 30.031 84.166 30.031C83.806 30.031 83.503 30.16 83.257 30.418C83.017 30.67 82.897 31.033 82.897 31.507C82.897 31.981 83.014 32.347 83.248 32.605C83.488 32.857 83.788 32.983 84.148 32.983ZM89.9592 30.049H89.0862V34H87.8082V30.049H87.2412V29.014H87.8082V28.762C87.8082 28.15 87.9822 27.7 88.3302 27.412C88.6782 27.124 89.2032 26.989 89.9052 27.007V28.069C89.5992 28.063 89.3862 28.114 89.2662 28.222C89.1462 28.33 89.0862 28.525 89.0862 28.807V29.014H89.9592V30.049ZM22.3916 43.718V44.735H20.7176V50H19.4576V44.735H17.7836V43.718H22.3916ZM30.2229 45.014L28.7649 50H27.4059L26.4969 46.517L25.5879 50H24.2199L22.7529 45.014H24.0309L24.9129 48.812L25.8669 45.014H27.1989L28.1349 48.803L29.0169 45.014H30.2229ZM31.5437 44.42C31.3217 44.42 31.1357 44.351 30.9857 44.213C30.8417 44.069 30.7697 43.892 30.7697 43.682C30.7697 43.472 30.8417 43.298 30.9857 43.16C31.1357 43.016 31.3217 42.944 31.5437 42.944C31.7657 42.944 31.9487 43.016 32.0927 43.16C32.2427 43.298 32.3177 43.472 32.3177 43.682C32.3177 43.892 32.2427 44.069 32.0927 44.213C31.9487 44.351 31.7657 44.42 31.5437 44.42ZM32.1647 45.014V50H30.9047V45.014H32.1647ZM34.8766 46.049V48.461C34.8766 48.629 34.9156 48.752 34.9936 48.83C35.0776 48.902 35.2156 48.938 35.4076 48.938H35.9926V50H35.2006C34.1386 50 33.6076 49.484 33.6076 48.452V46.049H33.0136V45.014H33.6076V43.781H34.8766V45.014H35.9926V46.049H34.8766ZM38.3658 46.049V48.461C38.3658 48.629 38.4048 48.752 38.4828 48.83C38.5668 48.902 38.7048 48.938 38.8968 48.938H39.4818V50H38.6898C37.6278 50 37.0968 49.484 37.0968 48.452V46.049H36.5028V45.014H37.0968V43.781H38.3658V45.014H39.4818V46.049H38.3658ZM45.0231 47.399C45.0231 47.579 45.0111 47.741 44.9871 47.885H41.3421C41.3721 48.245 41.4981 48.527 41.7201 48.731C41.9421 48.935 42.2151 49.037 42.5391 49.037C43.0071 49.037 43.3401 48.836 43.5381 48.434H44.8971C44.7531 48.914 44.4771 49.31 44.0691 49.622C43.6611 49.928 43.1601 50.081 42.5661 50.081C42.0861 50.081 41.6541 49.976 41.2701 49.766C40.8921 49.55 40.5951 49.247 40.3791 48.857C40.1691 48.467 40.0641 48.017 40.0641 47.507C40.0641 46.991 40.1691 46.538 40.3791 46.148C40.5891 45.758 40.8831 45.458 41.2611 45.248C41.6391 45.038 42.0741 44.933 42.5661 44.933C43.0401 44.933 43.4631 45.035 43.8351 45.239C44.2131 45.443 44.5041 45.734 44.7081 46.112C44.9181 46.484 45.0231 46.913 45.0231 47.399ZM43.7181 47.039C43.7121 46.715 43.5951 46.457 43.3671 46.265C43.1391 46.067 42.8601 45.968 42.5301 45.968C42.2181 45.968 41.9541 46.064 41.7381 46.256C41.5281 46.442 41.3991 46.703 41.3511 47.039H43.7181ZM47.2028 45.788C47.3648 45.524 47.5748 45.317 47.8328 45.167C48.0968 45.017 48.3968 44.942 48.7328 44.942V46.265H48.3998C48.0038 46.265 47.7038 46.358 47.4998 46.544C47.3018 46.73 47.2028 47.054 47.2028 47.516V50H45.9428V45.014H47.2028V45.788ZM55.578 48.803H53.076L52.662 50H51.339L53.598 43.709H55.065L57.324 50H55.992L55.578 48.803ZM55.236 47.795L54.327 45.167L53.418 47.795H55.236ZM57.8444 47.507C57.8444 46.991 57.9494 46.541 58.1594 46.157C58.3694 45.767 58.6604 45.467 59.0324 45.257C59.4044 45.041 59.8304 44.933 60.3104 44.933C60.9284 44.933 61.4384 45.089 61.8404 45.401C62.2484 45.707 62.5214 46.139 62.6594 46.697H61.3004C61.2284 46.481 61.1054 46.313 60.9314 46.193C60.7634 46.067 60.5534 46.004 60.3014 46.004C59.9414 46.004 59.6564 46.136 59.4464 46.4C59.2364 46.658 59.1314 47.027 59.1314 47.507C59.1314 47.981 59.2364 48.35 59.4464 48.614C59.6564 48.872 59.9414 49.001 60.3014 49.001C60.8114 49.001 61.1444 48.773 61.3004 48.317H62.6594C62.5214 48.857 62.2484 49.286 61.8404 49.604C61.4324 49.922 60.9224 50.081 60.3104 50.081C59.8304 50.081 59.4044 49.976 59.0324 49.766C58.6604 49.55 58.3694 49.25 58.1594 48.866C57.9494 48.476 57.8444 48.023 57.8444 47.507ZM63.2584 47.507C63.2584 46.991 63.3634 46.541 63.5734 46.157C63.7834 45.767 64.0744 45.467 64.4464 45.257C64.8184 45.041 65.2444 44.933 65.7244 44.933C66.3424 44.933 66.8524 45.089 67.2544 45.401C67.6624 45.707 67.9354 46.139 68.0734 46.697H66.7144C66.6424 46.481 66.5194 46.313 66.3454 46.193C66.1774 46.067 65.9674 46.004 65.7154 46.004C65.3554 46.004 65.0704 46.136 64.8604 46.4C64.6504 46.658 64.5454 47.027 64.5454 47.507C64.5454 47.981 64.6504 48.35 64.8604 48.614C65.0704 48.872 65.3554 49.001 65.7154 49.001C66.2254 49.001 66.5584 48.773 66.7144 48.317H68.0734C67.9354 48.857 67.6624 49.286 67.2544 49.604C66.8464 49.922 66.3364 50.081 65.7244 50.081C65.2444 50.081 64.8184 49.976 64.4464 49.766C64.0744 49.55 63.7834 49.25 63.5734 48.866C63.3634 48.476 63.2584 48.023 63.2584 47.507ZM71.2105 50.081C70.7305 50.081 70.2985 49.976 69.9145 49.766C69.5305 49.55 69.2275 49.247 69.0055 48.857C68.7895 48.467 68.6815 48.017 68.6815 47.507C68.6815 46.997 68.7925 46.547 69.0145 46.157C69.2425 45.767 69.5515 45.467 69.9415 45.257C70.3315 45.041 70.7665 44.933 71.2465 44.933C71.7265 44.933 72.1615 45.041 72.5515 45.257C72.9415 45.467 73.2475 45.767 73.4695 46.157C73.6975 46.547 73.8115 46.997 73.8115 47.507C73.8115 48.017 73.6945 48.467 73.4605 48.857C73.2325 49.247 72.9205 49.55 72.5245 49.766C72.1345 49.976 71.6965 50.081 71.2105 50.081ZM71.2105 48.983C71.4385 48.983 71.6515 48.929 71.8495 48.821C72.0535 48.707 72.2155 48.539 72.3355 48.317C72.4555 48.095 72.5155 47.825 72.5155 47.507C72.5155 47.033 72.3895 46.67 72.1375 46.418C71.8915 46.16 71.5885 46.031 71.2285 46.031C70.8685 46.031 70.5655 46.16 70.3195 46.418C70.0795 46.67 69.9595 47.033 69.9595 47.507C69.9595 47.981 70.0765 48.347 70.3105 48.605C70.5505 48.857 70.8505 48.983 71.2105 48.983ZM79.4427 45.014V50H78.1737V49.37C78.0117 49.586 77.7987 49.757 77.5347 49.883C77.2767 50.003 76.9947 50.063 76.6887 50.063C76.2987 50.063 75.9537 49.982 75.6537 49.82C75.3537 49.652 75.1167 49.409 74.9427 49.091C74.7747 48.767 74.6907 48.383 74.6907 47.939V45.014H75.9507V47.759C75.9507 48.155 76.0497 48.461 76.2477 48.677C76.4457 48.887 76.7157 48.992 77.0577 48.992C77.4057 48.992 77.6787 48.887 77.8767 48.677C78.0747 48.461 78.1737 48.155 78.1737 47.759V45.014H79.4427ZM83.4489 44.942C84.0429 44.942 84.5229 45.131 84.8889 45.509C85.2549 45.881 85.4379 46.403 85.4379 47.075V50H84.1779V47.246C84.1779 46.85 84.0789 46.547 83.8809 46.337C83.6829 46.121 83.4129 46.013 83.0709 46.013C82.7229 46.013 82.4469 46.121 82.2429 46.337C82.0449 46.547 81.9459 46.85 81.9459 47.246V50H80.6859V45.014H81.9459V45.635C82.1139 45.419 82.3269 45.251 82.5849 45.131C82.8489 45.005 83.1369 44.942 83.4489 44.942ZM88.1031 46.049V48.461C88.1031 48.629 88.1421 48.752 88.2201 48.83C88.3041 48.902 88.4421 48.938 88.6341 48.938H89.2191V50H88.4271C87.3651 50 86.8341 49.484 86.8341 48.452V46.049H86.2401V45.014H86.8341V43.781H88.1031V45.014H89.2191V46.049H88.1031Z" fill="#FCFCFC"/>
<defs>
<filter id="filter0_b_68_712" x="-6.26984" y="-6.26984" width="120.381" height="91.5397" filterUnits="userSpaceOnUse" color-interpolation-filters="sRGB">
<feFlood flood-opacity="0" result="BackgroundImageFix"/>
<feGaussianBlur in="BackgroundImage" stdDeviation="3.13492"/>
<feComposite in2="SourceAlpha" operator="in" result="effect1_backgroundBlur_68_712"/>
<feBlend mode="normal" in="SourceGraphic" in2="effect1_backgroundBlur_68_712" result="shape"/>
</filter>
</defs>
</svg>
