<svg width="108" height="79" viewBox="0 0 108 79" fill="none" xmlns="http://www.w3.org/2000/svg">
<g filter="url(#filter0_b_68_707)">
<rect width="107.841" height="79" rx="6.26984" fill="white" fill-opacity="0.04"/>
</g>
<path d="M24.3152 27.718V34H23.0552V29.914L21.3722 34H20.4182L18.7262 29.914V34H17.4662V27.718H18.8972L20.8952 32.389L22.8932 27.718H24.3152ZM25.2369 31.489C25.2369 30.985 25.3359 30.538 25.5339 30.148C25.7379 29.758 26.0109 29.458 26.3529 29.248C26.7009 29.038 27.0879 28.933 27.5139 28.933C27.8859 28.933 28.2099 29.008 28.4859 29.158C28.7679 29.308 28.9929 29.497 29.1609 29.725V29.014H30.4299V34H29.1609V33.271C28.9989 33.505 28.7739 33.7 28.4859 33.856C28.2039 34.006 27.8769 34.081 27.5049 34.081C27.0849 34.081 26.7009 33.973 26.3529 33.757C26.0109 33.541 25.7379 33.238 25.5339 32.848C25.3359 32.452 25.2369 31.999 25.2369 31.489ZM29.1609 31.507C29.1609 31.201 29.1009 30.94 28.9809 30.724C28.8609 30.502 28.6989 30.334 28.4949 30.22C28.2909 30.1 28.0719 30.04 27.8379 30.04C27.6039 30.04 27.3879 30.097 27.1899 30.211C26.9919 30.325 26.8299 30.493 26.7039 30.715C26.5839 30.931 26.5239 31.189 26.5239 31.489C26.5239 31.789 26.5839 32.053 26.7039 32.281C26.8299 32.503 26.9919 32.674 27.1899 32.794C27.3939 32.914 27.6099 32.974 27.8379 32.974C28.0719 32.974 28.2909 32.917 28.4949 32.803C28.6989 32.683 28.8609 32.515 28.9809 32.299C29.1009 32.077 29.1609 31.813 29.1609 31.507ZM34.4236 28.942C35.0176 28.942 35.4976 29.131 35.8636 29.509C36.2296 29.881 36.4126 30.403 36.4126 31.075V34H35.1526V31.246C35.1526 30.85 35.0536 30.547 34.8556 30.337C34.6576 30.121 34.3876 30.013 34.0456 30.013C33.6976 30.013 33.4216 30.121 33.2176 30.337C33.0196 30.547 32.9206 30.85 32.9206 31.246V34H31.6606V29.014H32.9206V29.635C33.0886 29.419 33.3016 29.251 33.5596 29.131C33.8236 29.005 34.1116 28.942 34.4236 28.942ZM37.2867 31.489C37.2867 30.985 37.3857 30.538 37.5837 30.148C37.7877 29.758 38.0607 29.458 38.4027 29.248C38.7507 29.038 39.1377 28.933 39.5637 28.933C39.9357 28.933 40.2597 29.008 40.5357 29.158C40.8177 29.308 41.0427 29.497 41.2107 29.725V29.014H42.4797V34H41.2107V33.271C41.0487 33.505 40.8237 33.7 40.5357 33.856C40.2537 34.006 39.9267 34.081 39.5547 34.081C39.1347 34.081 38.7507 33.973 38.4027 33.757C38.0607 33.541 37.7877 33.238 37.5837 32.848C37.3857 32.452 37.2867 31.999 37.2867 31.489ZM41.2107 31.507C41.2107 31.201 41.1507 30.94 41.0307 30.724C40.9107 30.502 40.7487 30.334 40.5447 30.22C40.3407 30.1 40.1217 30.04 39.8877 30.04C39.6537 30.04 39.4377 30.097 39.2397 30.211C39.0417 30.325 38.8797 30.493 38.7537 30.715C38.6337 30.931 38.5737 31.189 38.5737 31.489C38.5737 31.789 38.6337 32.053 38.7537 32.281C38.8797 32.503 39.0417 32.674 39.2397 32.794C39.4437 32.914 39.6597 32.974 39.8877 32.974C40.1217 32.974 40.3407 32.917 40.5447 32.803C40.7487 32.683 40.9107 32.515 41.0307 32.299C41.1507 32.077 41.2107 31.813 41.2107 31.507ZM45.6634 28.933C46.0354 28.933 46.3624 29.008 46.6444 29.158C46.9264 29.302 47.1484 29.491 47.3104 29.725V29.014H48.5794V34.036C48.5794 34.498 48.4864 34.909 48.3004 35.269C48.1144 35.635 47.8354 35.923 47.4634 36.133C47.0914 36.349 46.6414 36.457 46.1134 36.457C45.4054 36.457 44.8234 36.292 44.3674 35.962C43.9174 35.632 43.6624 35.182 43.6024 34.612H44.8534C44.9194 34.84 45.0604 35.02 45.2764 35.152C45.4984 35.29 45.7654 35.359 46.0774 35.359C46.4434 35.359 46.7404 35.248 46.9684 35.026C47.1964 34.81 47.3104 34.48 47.3104 34.036V33.262C47.1484 33.496 46.9234 33.691 46.6354 33.847C46.3534 34.003 46.0294 34.081 45.6634 34.081C45.2434 34.081 44.8594 33.973 44.5114 33.757C44.1634 33.541 43.8874 33.238 43.6834 32.848C43.4854 32.452 43.3864 31.999 43.3864 31.489C43.3864 30.985 43.4854 30.538 43.6834 30.148C43.8874 29.758 44.1604 29.458 44.5024 29.248C44.8504 29.038 45.2374 28.933 45.6634 28.933ZM47.3104 31.507C47.3104 31.201 47.2504 30.94 47.1304 30.724C47.0104 30.502 46.8484 30.334 46.6444 30.22C46.4404 30.1 46.2214 30.04 45.9874 30.04C45.7534 30.04 45.5374 30.097 45.3394 30.211C45.1414 30.325 44.9794 30.493 44.8534 30.715C44.7334 30.931 44.6734 31.189 44.6734 31.489C44.6734 31.789 44.7334 32.053 44.8534 32.281C44.9794 32.503 45.1414 32.674 45.3394 32.794C45.5434 32.914 45.7594 32.974 45.9874 32.974C46.2214 32.974 46.4404 32.917 46.6444 32.803C46.8484 32.683 47.0104 32.515 47.1304 32.299C47.2504 32.077 47.3104 31.813 47.3104 31.507ZM54.445 31.399C54.445 31.579 54.433 31.741 54.409 31.885H50.764C50.794 32.245 50.92 32.527 51.142 32.731C51.364 32.935 51.637 33.037 51.961 33.037C52.429 33.037 52.762 32.836 52.96 32.434H54.319C54.175 32.914 53.899 33.31 53.491 33.622C53.083 33.928 52.582 34.081 51.988 34.081C51.508 34.081 51.076 33.976 50.692 33.766C50.314 33.55 50.017 33.247 49.801 32.857C49.591 32.467 49.486 32.017 49.486 31.507C49.486 30.991 49.591 30.538 49.801 30.148C50.011 29.758 50.305 29.458 50.683 29.248C51.061 29.038 51.496 28.933 51.988 28.933C52.462 28.933 52.885 29.035 53.257 29.239C53.635 29.443 53.926 29.734 54.13 30.112C54.34 30.484 54.445 30.913 54.445 31.399ZM53.14 31.039C53.134 30.715 53.017 30.457 52.789 30.265C52.561 30.067 52.282 29.968 51.952 29.968C51.64 29.968 51.376 30.064 51.16 30.256C50.95 30.442 50.821 30.703 50.773 31.039H53.14ZM61.5567 28.942C62.1687 28.942 62.6607 29.131 63.0327 29.509C63.4107 29.881 63.5997 30.403 63.5997 31.075V34H62.3397V31.246C62.3397 30.856 62.2407 30.559 62.0427 30.355C61.8447 30.145 61.5747 30.04 61.2327 30.04C60.8907 30.04 60.6177 30.145 60.4137 30.355C60.2157 30.559 60.1167 30.856 60.1167 31.246V34H58.8567V31.246C58.8567 30.856 58.7577 30.559 58.5597 30.355C58.3617 30.145 58.0917 30.04 57.7497 30.04C57.4017 30.04 57.1257 30.145 56.9217 30.355C56.7237 30.559 56.6247 30.856 56.6247 31.246V34H55.3647V29.014H56.6247V29.617C56.7867 29.407 56.9937 29.242 57.2457 29.122C57.5037 29.002 57.7857 28.942 58.0917 28.942C58.4817 28.942 58.8297 29.026 59.1357 29.194C59.4417 29.356 59.6787 29.59 59.8467 29.896C60.0087 29.608 60.2427 29.377 60.5487 29.203C60.8607 29.029 61.1967 28.942 61.5567 28.942ZM69.4303 31.399C69.4303 31.579 69.4183 31.741 69.3943 31.885H65.7493C65.7793 32.245 65.9053 32.527 66.1273 32.731C66.3493 32.935 66.6223 33.037 66.9463 33.037C67.4143 33.037 67.7473 32.836 67.9453 32.434H69.3043C69.1603 32.914 68.8843 33.31 68.4763 33.622C68.0683 33.928 67.5673 34.081 66.9733 34.081C66.4933 34.081 66.0613 33.976 65.6773 33.766C65.2993 33.55 65.0023 33.247 64.7863 32.857C64.5763 32.467 64.4713 32.017 64.4713 31.507C64.4713 30.991 64.5763 30.538 64.7863 30.148C64.9963 29.758 65.2903 29.458 65.6683 29.248C66.0463 29.038 66.4813 28.933 66.9733 28.933C67.4473 28.933 67.8703 29.035 68.2423 29.239C68.6203 29.443 68.9113 29.734 69.1153 30.112C69.3253 30.484 69.4303 30.913 69.4303 31.399ZM68.1253 31.039C68.1193 30.715 68.0023 30.457 67.7743 30.265C67.5463 30.067 67.2673 29.968 66.9373 29.968C66.6253 29.968 66.3613 30.064 66.1453 30.256C65.9353 30.442 65.8063 30.703 65.7583 31.039H68.1253ZM73.113 28.942C73.707 28.942 74.187 29.131 74.553 29.509C74.919 29.881 75.102 30.403 75.102 31.075V34H73.842V31.246C73.842 30.85 73.743 30.547 73.545 30.337C73.347 30.121 73.077 30.013 72.735 30.013C72.387 30.013 72.111 30.121 71.907 30.337C71.709 30.547 71.61 30.85 71.61 31.246V34H70.35V29.014H71.61V29.635C71.778 29.419 71.991 29.251 72.249 29.131C72.513 29.005 72.801 28.942 73.113 28.942ZM77.7672 30.049V32.461C77.7672 32.629 77.8062 32.752 77.8842 32.83C77.9682 32.902 78.1062 32.938 78.2982 32.938H78.8832V34H78.0912C77.0292 34 76.4982 33.484 76.4982 32.452V30.049H75.9042V29.014H76.4982V27.781H77.7672V29.014H78.8832V30.049H77.7672ZM84.148 34.081C83.668 34.081 83.236 33.976 82.852 33.766C82.468 33.55 82.165 33.247 81.943 32.857C81.727 32.467 81.619 32.017 81.619 31.507C81.619 30.997 81.73 30.547 81.952 30.157C82.18 29.767 82.489 29.467 82.879 29.257C83.269 29.041 83.704 28.933 84.184 28.933C84.664 28.933 85.099 29.041 85.489 29.257C85.879 29.467 86.185 29.767 86.407 30.157C86.635 30.547 86.749 30.997 86.749 31.507C86.749 32.017 86.632 32.467 86.398 32.857C86.17 33.247 85.858 33.55 85.462 33.766C85.072 33.976 84.634 34.081 84.148 34.081ZM84.148 32.983C84.376 32.983 84.589 32.929 84.787 32.821C84.991 32.707 85.153 32.539 85.273 32.317C85.393 32.095 85.453 31.825 85.453 31.507C85.453 31.033 85.327 30.67 85.075 30.418C84.829 30.16 84.526 30.031 84.166 30.031C83.806 30.031 83.503 30.16 83.257 30.418C83.017 30.67 82.897 31.033 82.897 31.507C82.897 31.981 83.014 32.347 83.248 32.605C83.488 32.857 83.788 32.983 84.148 32.983ZM89.9592 30.049H89.0862V34H87.8082V30.049H87.2412V29.014H87.8082V28.762C87.8082 28.15 87.9822 27.7 88.3302 27.412C88.6782 27.124 89.2032 26.989 89.9052 27.007V28.069C89.5992 28.063 89.3862 28.114 89.2662 28.222C89.1462 28.33 89.0862 28.525 89.0862 28.807V29.014H89.9592V30.049ZM15.9576 43.718C16.6176 43.718 17.1966 43.847 17.6946 44.105C18.1986 44.363 18.5856 44.732 18.8556 45.212C19.1316 45.686 19.2696 46.238 19.2696 46.868C19.2696 47.498 19.1316 48.05 18.8556 48.524C18.5856 48.992 18.1986 49.355 17.6946 49.613C17.1966 49.871 16.6176 50 15.9576 50H13.7616V43.718H15.9576ZM15.9126 48.929C16.5726 48.929 17.0826 48.749 17.4426 48.389C17.8026 48.029 17.9826 47.522 17.9826 46.868C17.9826 46.214 17.8026 45.704 17.4426 45.338C17.0826 44.966 16.5726 44.78 15.9126 44.78H15.0216V48.929H15.9126ZM20.8518 44.42C20.6298 44.42 20.4438 44.351 20.2938 44.213C20.1498 44.069 20.0778 43.892 20.0778 43.682C20.0778 43.472 20.1498 43.298 20.2938 43.16C20.4438 43.016 20.6298 42.944 20.8518 42.944C21.0738 42.944 21.2568 43.016 21.4008 43.16C21.5508 43.298 21.6258 43.472 21.6258 43.682C21.6258 43.892 21.5508 44.069 21.4008 44.213C21.2568 44.351 21.0738 44.42 20.8518 44.42ZM21.4728 45.014V50H20.2128V45.014H21.4728ZM24.6257 50.081C24.2177 50.081 23.8517 50.009 23.5277 49.865C23.2037 49.715 22.9457 49.514 22.7537 49.262C22.5677 49.01 22.4657 48.731 22.4477 48.425H23.7167C23.7407 48.617 23.8337 48.776 23.9957 48.902C24.1637 49.028 24.3707 49.091 24.6167 49.091C24.8567 49.091 25.0427 49.043 25.1747 48.947C25.3127 48.851 25.3817 48.728 25.3817 48.578C25.3817 48.416 25.2977 48.296 25.1297 48.218C24.9677 48.134 24.7067 48.044 24.3467 47.948C23.9747 47.858 23.6687 47.765 23.4287 47.669C23.1947 47.573 22.9907 47.426 22.8167 47.228C22.6487 47.03 22.5647 46.763 22.5647 46.427C22.5647 46.151 22.6427 45.899 22.7987 45.671C22.9607 45.443 23.1887 45.263 23.4827 45.131C23.7827 44.999 24.1337 44.933 24.5357 44.933C25.1297 44.933 25.6037 45.083 25.9577 45.383C26.3117 45.677 26.5067 46.076 26.5427 46.58H25.3367C25.3187 46.382 25.2347 46.226 25.0847 46.112C24.9407 45.992 24.7457 45.932 24.4997 45.932C24.2717 45.932 24.0947 45.974 23.9687 46.058C23.8487 46.142 23.7887 46.259 23.7887 46.409C23.7887 46.577 23.8727 46.706 24.0407 46.796C24.2087 46.88 24.4697 46.967 24.8237 47.057C25.1837 47.147 25.4807 47.24 25.7147 47.336C25.9487 47.432 26.1497 47.582 26.3177 47.786C26.4917 47.984 26.5817 48.248 26.5877 48.578C26.5877 48.866 26.5067 49.124 26.3447 49.352C26.1887 49.58 25.9607 49.76 25.6607 49.892C25.3667 50.018 25.0217 50.081 24.6257 50.081ZM27.298 47.507C27.298 46.991 27.403 46.541 27.613 46.157C27.823 45.767 28.114 45.467 28.486 45.257C28.858 45.041 29.284 44.933 29.764 44.933C30.382 44.933 30.892 45.089 31.294 45.401C31.702 45.707 31.975 46.139 32.113 46.697H30.754C30.682 46.481 30.559 46.313 30.385 46.193C30.217 46.067 30.007 46.004 29.755 46.004C29.395 46.004 29.11 46.136 28.9 46.4C28.69 46.658 28.585 47.027 28.585 47.507C28.585 47.981 28.69 48.35 28.9 48.614C29.11 48.872 29.395 49.001 29.755 49.001C30.265 49.001 30.598 48.773 30.754 48.317H32.113C31.975 48.857 31.702 49.286 31.294 49.604C30.886 49.922 30.376 50.081 29.764 50.081C29.284 50.081 28.858 49.976 28.486 49.766C28.114 49.55 27.823 49.25 27.613 48.866C27.403 48.476 27.298 48.023 27.298 47.507ZM35.25 50.081C34.77 50.081 34.338 49.976 33.954 49.766C33.57 49.55 33.267 49.247 33.045 48.857C32.829 48.467 32.721 48.017 32.721 47.507C32.721 46.997 32.832 46.547 33.054 46.157C33.282 45.767 33.591 45.467 33.981 45.257C34.371 45.041 34.806 44.933 35.286 44.933C35.766 44.933 36.201 45.041 36.591 45.257C36.981 45.467 37.287 45.767 37.509 46.157C37.737 46.547 37.851 46.997 37.851 47.507C37.851 48.017 37.734 48.467 37.5 48.857C37.272 49.247 36.96 49.55 36.564 49.766C36.174 49.976 35.736 50.081 35.25 50.081ZM35.25 48.983C35.478 48.983 35.691 48.929 35.889 48.821C36.093 48.707 36.255 48.539 36.375 48.317C36.495 48.095 36.555 47.825 36.555 47.507C36.555 47.033 36.429 46.67 36.177 46.418C35.931 46.16 35.628 46.031 35.268 46.031C34.908 46.031 34.605 46.16 34.359 46.418C34.119 46.67 33.999 47.033 33.999 47.507C33.999 47.981 34.116 48.347 34.35 48.605C34.59 48.857 34.89 48.983 35.25 48.983ZM40.0353 45.788C40.1973 45.524 40.4073 45.317 40.6653 45.167C40.9293 45.017 41.2293 44.942 41.5653 44.942V46.265H41.2323C40.8363 46.265 40.5363 46.358 40.3323 46.544C40.1343 46.73 40.0353 47.054 40.0353 47.516V50H38.7753V45.014H40.0353V45.788ZM42.09 47.489C42.09 46.985 42.189 46.538 42.387 46.148C42.591 45.758 42.867 45.458 43.215 45.248C43.563 45.038 43.95 44.933 44.376 44.933C44.7 44.933 45.009 45.005 45.303 45.149C45.597 45.287 45.831 45.473 46.005 45.707V43.34H47.283V50H46.005V49.262C45.849 49.508 45.63 49.706 45.348 49.856C45.066 50.006 44.739 50.081 44.367 50.081C43.947 50.081 43.563 49.973 43.215 49.757C42.867 49.541 42.591 49.238 42.387 48.848C42.189 48.452 42.09 47.999 42.09 47.489ZM46.014 47.507C46.014 47.201 45.954 46.94 45.834 46.724C45.714 46.502 45.552 46.334 45.348 46.22C45.144 46.1 44.925 46.04 44.691 46.04C44.457 46.04 44.241 46.097 44.043 46.211C43.845 46.325 43.683 46.493 43.557 46.715C43.437 46.931 43.377 47.189 43.377 47.489C43.377 47.789 43.437 48.053 43.557 48.281C43.683 48.503 43.845 48.674 44.043 48.794C44.247 48.914 44.463 48.974 44.691 48.974C44.925 48.974 45.144 48.917 45.348 48.803C45.552 48.683 45.714 48.515 45.834 48.299C45.954 48.077 46.014 47.813 46.014 47.507ZM50.3521 46.85C50.3521 46.232 50.4901 45.68 50.7661 45.194C51.0481 44.702 51.4291 44.321 51.9091 44.051C52.3951 43.775 52.9381 43.637 53.5381 43.637C54.2401 43.637 54.8551 43.817 55.3831 44.177C55.9111 44.537 56.2801 45.035 56.4901 45.671H55.0411C54.8971 45.371 54.6931 45.146 54.4291 44.996C54.1711 44.846 53.8711 44.771 53.5291 44.771C53.1631 44.771 52.8361 44.858 52.5481 45.032C52.2661 45.2 52.0441 45.44 51.8821 45.752C51.7261 46.064 51.6481 46.43 51.6481 46.85C51.6481 47.264 51.7261 47.63 51.8821 47.948C52.0441 48.26 52.2661 48.503 52.5481 48.677C52.8361 48.845 53.1631 48.929 53.5291 48.929C53.8711 48.929 54.1711 48.854 54.4291 48.704C54.6931 48.548 54.8971 48.32 55.0411 48.02H56.4901C56.2801 48.662 55.9111 49.163 55.3831 49.523C54.8611 49.877 54.2461 50.054 53.5381 50.054C52.9381 50.054 52.3951 49.919 51.9091 49.649C51.4291 49.373 51.0481 48.992 50.7661 48.506C50.4901 48.02 50.3521 47.468 50.3521 46.85ZM60.3743 44.942C60.7523 44.942 61.0883 45.026 61.3823 45.194C61.6763 45.356 61.9043 45.599 62.0663 45.923C62.2343 46.241 62.3183 46.625 62.3183 47.075V50H61.0583V47.246C61.0583 46.85 60.9593 46.547 60.7613 46.337C60.5633 46.121 60.2933 46.013 59.9513 46.013C59.6033 46.013 59.3273 46.121 59.1233 46.337C58.9253 46.547 58.8263 46.85 58.8263 47.246V50H57.5663V43.34H58.8263V45.635C58.9883 45.419 59.2043 45.251 59.4743 45.131C59.7443 45.005 60.0443 44.942 60.3743 44.942ZM63.1925 47.489C63.1925 46.985 63.2915 46.538 63.4895 46.148C63.6935 45.758 63.9665 45.458 64.3085 45.248C64.6565 45.038 65.0435 44.933 65.4695 44.933C65.8415 44.933 66.1655 45.008 66.4415 45.158C66.7235 45.308 66.9485 45.497 67.1165 45.725V45.014H68.3855V50H67.1165V49.271C66.9545 49.505 66.7295 49.7 66.4415 49.856C66.1595 50.006 65.8325 50.081 65.4605 50.081C65.0405 50.081 64.6565 49.973 64.3085 49.757C63.9665 49.541 63.6935 49.238 63.4895 48.848C63.2915 48.452 63.1925 47.999 63.1925 47.489ZM67.1165 47.507C67.1165 47.201 67.0565 46.94 66.9365 46.724C66.8165 46.502 66.6545 46.334 66.4505 46.22C66.2465 46.1 66.0275 46.04 65.7935 46.04C65.5595 46.04 65.3435 46.097 65.1455 46.211C64.9475 46.325 64.7855 46.493 64.6595 46.715C64.5395 46.931 64.4795 47.189 64.4795 47.489C64.4795 47.789 64.5395 48.053 64.6595 48.281C64.7855 48.503 64.9475 48.674 65.1455 48.794C65.3495 48.914 65.5655 48.974 65.7935 48.974C66.0275 48.974 66.2465 48.917 66.4505 48.803C66.6545 48.683 66.8165 48.515 66.9365 48.299C67.0565 48.077 67.1165 47.813 67.1165 47.507ZM72.3791 44.942C72.9731 44.942 73.4531 45.131 73.8191 45.509C74.1851 45.881 74.3681 46.403 74.3681 47.075V50H73.1081V47.246C73.1081 46.85 73.0091 46.547 72.8111 46.337C72.6131 46.121 72.3431 46.013 72.0011 46.013C71.6531 46.013 71.3771 46.121 71.1731 46.337C70.9751 46.547 70.8761 46.85 70.8761 47.246V50H69.6161V45.014H70.8761V45.635C71.0441 45.419 71.2571 45.251 71.5151 45.131C71.7791 45.005 72.0671 44.942 72.3791 44.942ZM78.3293 44.942C78.9233 44.942 79.4033 45.131 79.7693 45.509C80.1353 45.881 80.3183 46.403 80.3183 47.075V50H79.0583V47.246C79.0583 46.85 78.9593 46.547 78.7613 46.337C78.5633 46.121 78.2933 46.013 77.9513 46.013C77.6033 46.013 77.3273 46.121 77.1233 46.337C76.9253 46.547 76.8263 46.85 76.8263 47.246V50H75.5663V45.014H76.8263V45.635C76.9943 45.419 77.2073 45.251 77.4653 45.131C77.7293 45.005 78.0173 44.942 78.3293 44.942ZM86.1515 47.399C86.1515 47.579 86.1395 47.741 86.1155 47.885H82.4705C82.5005 48.245 82.6265 48.527 82.8485 48.731C83.0705 48.935 83.3435 49.037 83.6675 49.037C84.1355 49.037 84.4685 48.836 84.6665 48.434H86.0255C85.8815 48.914 85.6055 49.31 85.1975 49.622C84.7895 49.928 84.2885 50.081 83.6945 50.081C83.2145 50.081 82.7825 49.976 82.3985 49.766C82.0205 49.55 81.7235 49.247 81.5075 48.857C81.2975 48.467 81.1925 48.017 81.1925 47.507C81.1925 46.991 81.2975 46.538 81.5075 46.148C81.7175 45.758 82.0115 45.458 82.3895 45.248C82.7675 45.038 83.2025 44.933 83.6945 44.933C84.1685 44.933 84.5915 45.035 84.9635 45.239C85.3415 45.443 85.6325 45.734 85.8365 46.112C86.0465 46.484 86.1515 46.913 86.1515 47.399ZM84.8465 47.039C84.8405 46.715 84.7235 46.457 84.4955 46.265C84.2675 46.067 83.9885 45.968 83.6585 45.968C83.3465 45.968 83.0825 46.064 82.8665 46.256C82.6565 46.442 82.5275 46.703 82.4795 47.039H84.8465ZM88.3312 43.34V50H87.0712V43.34H88.3312ZM91.4841 50.081C91.0761 50.081 90.7101 50.009 90.3861 49.865C90.0621 49.715 89.8041 49.514 89.6121 49.262C89.4261 49.01 89.3241 48.731 89.3061 48.425H90.5751C90.5991 48.617 90.6921 48.776 90.8541 48.902C91.0221 49.028 91.2291 49.091 91.4751 49.091C91.7151 49.091 91.9011 49.043 92.0331 48.947C92.1711 48.851 92.2401 48.728 92.2401 48.578C92.2401 48.416 92.1561 48.296 91.9881 48.218C91.8261 48.134 91.5651 48.044 91.2051 47.948C90.8331 47.858 90.5271 47.765 90.2871 47.669C90.0531 47.573 89.8491 47.426 89.6751 47.228C89.5071 47.03 89.4231 46.763 89.4231 46.427C89.4231 46.151 89.5011 45.899 89.6571 45.671C89.8191 45.443 90.0471 45.263 90.3411 45.131C90.6411 44.999 90.9921 44.933 91.3941 44.933C91.9881 44.933 92.4621 45.083 92.8161 45.383C93.1701 45.677 93.3651 46.076 93.4011 46.58H92.1951C92.1771 46.382 92.0931 46.226 91.9431 46.112C91.7991 45.992 91.6041 45.932 91.3581 45.932C91.1301 45.932 90.9531 45.974 90.8271 46.058C90.7071 46.142 90.6471 46.259 90.6471 46.409C90.6471 46.577 90.7311 46.706 90.8991 46.796C91.0671 46.88 91.3281 46.967 91.6821 47.057C92.0421 47.147 92.3391 47.24 92.5731 47.336C92.8071 47.432 93.0081 47.582 93.1761 47.786C93.3501 47.984 93.4401 48.248 93.4461 48.578C93.4461 48.866 93.3651 49.124 93.2031 49.352C93.0471 49.58 92.8191 49.76 92.5191 49.892C92.2251 50.018 91.8801 50.081 91.4841 50.081Z" fill="#FCFCFC"/>
<defs>
<filter id="filter0_b_68_707" x="-6.26984" y="-6.26984" width="120.381" height="91.5397" filterUnits="userSpaceOnUse" color-interpolation-filters="sRGB">
<feFlood flood-opacity="0" result="BackgroundImageFix"/>
<feGaussianBlur in="BackgroundImage" stdDeviation="3.13492"/>
<feComposite in2="SourceAlpha" operator="in" result="effect1_backgroundBlur_68_707"/>
<feBlend mode="normal" in="SourceGraphic" in2="effect1_backgroundBlur_68_707" result="shape"/>
</filter>
</defs>
</svg>
