<svg width="102" height="75" viewBox="0 0 102 75" fill="none" xmlns="http://www.w3.org/2000/svg">
<g filter="url(#filter0_b_142_440)">
<rect x="0.853516" y="0.452148" width="101.146" height="74.0957" rx="5.88061" fill="white" fill-opacity="0.04"/>
</g>
<path d="M25.0905 28.416V34H23.9705V30.368L22.4745 34H21.6265L20.1225 30.368V34H19.0025V28.416H20.2745L22.0505 32.568L23.8265 28.416H25.0905ZM25.9098 31.768C25.9098 31.32 25.9978 30.9227 26.1738 30.576C26.3551 30.2293 26.5978 29.9627 26.9018 29.776C27.2111 29.5893 27.5551 29.496 27.9338 29.496C28.2644 29.496 28.5524 29.5627 28.7978 29.696C29.0484 29.8293 29.2484 29.9973 29.3978 30.2V29.568H30.5258V34H29.3978V33.352C29.2538 33.56 29.0538 33.7333 28.7978 33.872C28.5471 34.0053 28.2564 34.072 27.9258 34.072C27.5524 34.072 27.2111 33.976 26.9018 33.784C26.5978 33.592 26.3551 33.3227 26.1738 32.976C25.9978 32.624 25.9098 32.2213 25.9098 31.768ZM29.3978 31.784C29.3978 31.512 29.3444 31.28 29.2378 31.088C29.1311 30.8907 28.9871 30.7413 28.8058 30.64C28.6244 30.5333 28.4298 30.48 28.2218 30.48C28.0138 30.48 27.8218 30.5307 27.6458 30.632C27.4698 30.7333 27.3258 30.8827 27.2138 31.08C27.1071 31.272 27.0538 31.5013 27.0538 31.768C27.0538 32.0347 27.1071 32.2693 27.2138 32.472C27.3258 32.6693 27.4698 32.8213 27.6458 32.928C27.8271 33.0347 28.0191 33.088 28.2218 33.088C28.4298 33.088 28.6244 33.0373 28.8058 32.936C28.9871 32.8293 29.1311 32.68 29.2378 32.488C29.3444 32.2907 29.3978 32.056 29.3978 31.784ZM34.0757 29.504C34.6037 29.504 35.0303 29.672 35.3557 30.008C35.681 30.3387 35.8437 30.8027 35.8437 31.4V34H34.7237V31.552C34.7237 31.2 34.6357 30.9307 34.4597 30.744C34.2837 30.552 34.0437 30.456 33.7397 30.456C33.4303 30.456 33.185 30.552 33.0037 30.744C32.8277 30.9307 32.7397 31.2 32.7397 31.552V34H31.6197V29.568H32.7397V30.12C32.889 29.928 33.0783 29.7787 33.3077 29.672C33.5423 29.56 33.7983 29.504 34.0757 29.504ZM36.6207 31.768C36.6207 31.32 36.7087 30.9227 36.8847 30.576C37.066 30.2293 37.3087 29.9627 37.6127 29.776C37.922 29.5893 38.266 29.496 38.6447 29.496C38.9754 29.496 39.2634 29.5627 39.5087 29.696C39.7594 29.8293 39.9594 29.9973 40.1087 30.2V29.568H41.2367V34H40.1087V33.352C39.9647 33.56 39.7647 33.7333 39.5087 33.872C39.258 34.0053 38.9674 34.072 38.6367 34.072C38.2634 34.072 37.922 33.976 37.6127 33.784C37.3087 33.592 37.066 33.3227 36.8847 32.976C36.7087 32.624 36.6207 32.2213 36.6207 31.768ZM40.1087 31.784C40.1087 31.512 40.0554 31.28 39.9487 31.088C39.842 30.8907 39.698 30.7413 39.5167 30.64C39.3354 30.5333 39.1407 30.48 38.9327 30.48C38.7247 30.48 38.5327 30.5307 38.3567 30.632C38.1807 30.7333 38.0367 30.8827 37.9247 31.08C37.818 31.272 37.7647 31.5013 37.7647 31.768C37.7647 32.0347 37.818 32.2693 37.9247 32.472C38.0367 32.6693 38.1807 32.8213 38.3567 32.928C38.538 33.0347 38.73 33.088 38.9327 33.088C39.1407 33.088 39.3354 33.0373 39.5167 32.936C39.698 32.8293 39.842 32.68 39.9487 32.488C40.0554 32.2907 40.1087 32.056 40.1087 31.784ZM44.0666 29.496C44.3973 29.496 44.6879 29.5627 44.9386 29.696C45.1893 29.824 45.3866 29.992 45.5306 30.2V29.568H46.6586V34.032C46.6586 34.4427 46.5759 34.808 46.4106 35.128C46.2453 35.4533 45.9973 35.7093 45.6666 35.896C45.3359 36.088 44.9359 36.184 44.4666 36.184C43.8373 36.184 43.3199 36.0373 42.9146 35.744C42.5146 35.4507 42.2879 35.0507 42.2346 34.544H43.3466C43.4053 34.7467 43.5306 34.9067 43.7226 35.024C43.9199 35.1467 44.1573 35.208 44.4346 35.208C44.7599 35.208 45.0239 35.1093 45.2266 34.912C45.4293 34.72 45.5306 34.4267 45.5306 34.032V33.344C45.3866 33.552 45.1866 33.7253 44.9306 33.864C44.6799 34.0027 44.3919 34.072 44.0666 34.072C43.6933 34.072 43.3519 33.976 43.0426 33.784C42.7333 33.592 42.4879 33.3227 42.3066 32.976C42.1306 32.624 42.0426 32.2213 42.0426 31.768C42.0426 31.32 42.1306 30.9227 42.3066 30.576C42.4879 30.2293 42.7306 29.9627 43.0346 29.776C43.3439 29.5893 43.6879 29.496 44.0666 29.496ZM45.5306 31.784C45.5306 31.512 45.4773 31.28 45.3706 31.088C45.2639 30.8907 45.1199 30.7413 44.9386 30.64C44.7573 30.5333 44.5626 30.48 44.3546 30.48C44.1466 30.48 43.9546 30.5307 43.7786 30.632C43.6026 30.7333 43.4586 30.8827 43.3466 31.08C43.2399 31.272 43.1866 31.5013 43.1866 31.768C43.1866 32.0347 43.2399 32.2693 43.3466 32.472C43.4586 32.6693 43.6026 32.8213 43.7786 32.928C43.9599 33.0347 44.1519 33.088 44.3546 33.088C44.5626 33.088 44.7573 33.0373 44.9386 32.936C45.1199 32.8293 45.2639 32.68 45.3706 32.488C45.4773 32.2907 45.5306 32.056 45.5306 31.784ZM51.8725 31.688C51.8725 31.848 51.8618 31.992 51.8405 32.12H48.6005C48.6271 32.44 48.7391 32.6907 48.9365 32.872C49.1338 33.0533 49.3765 33.144 49.6645 33.144C50.0805 33.144 50.3765 32.9653 50.5525 32.608H51.7605C51.6325 33.0347 51.3871 33.3867 51.0245 33.664C50.6618 33.936 50.2165 34.072 49.6885 34.072C49.2618 34.072 48.8778 33.9787 48.5365 33.792C48.2005 33.6 47.9365 33.3307 47.7445 32.984C47.5578 32.6373 47.4645 32.2373 47.4645 31.784C47.4645 31.3253 47.5578 30.9227 47.7445 30.576C47.9311 30.2293 48.1925 29.9627 48.5285 29.776C48.8645 29.5893 49.2511 29.496 49.6885 29.496C50.1098 29.496 50.4858 29.5867 50.8165 29.768C51.1525 29.9493 51.4111 30.208 51.5925 30.544C51.7791 30.8747 51.8725 31.256 51.8725 31.688ZM50.7125 31.368C50.7071 31.08 50.6031 30.8507 50.4005 30.68C50.1978 30.504 49.9498 30.416 49.6565 30.416C49.3791 30.416 49.1445 30.5013 48.9525 30.672C48.7658 30.8373 48.6511 31.0693 48.6085 31.368H50.7125ZM58.194 29.504C58.738 29.504 59.1753 29.672 59.506 30.008C59.842 30.3387 60.01 30.8027 60.01 31.4V34H58.89V31.552C58.89 31.2053 58.802 30.9413 58.626 30.76C58.45 30.5733 58.21 30.48 57.906 30.48C57.602 30.48 57.3593 30.5733 57.178 30.76C57.002 30.9413 56.914 31.2053 56.914 31.552V34H55.794V31.552C55.794 31.2053 55.706 30.9413 55.53 30.76C55.354 30.5733 55.114 30.48 54.81 30.48C54.5006 30.48 54.2553 30.5733 54.074 30.76C53.898 30.9413 53.81 31.2053 53.81 31.552V34H52.69V29.568H53.81V30.104C53.954 29.9173 54.138 29.7707 54.362 29.664C54.5913 29.5573 54.842 29.504 55.114 29.504C55.4606 29.504 55.77 29.5787 56.042 29.728C56.314 29.872 56.5246 30.08 56.674 30.352C56.818 30.096 57.026 29.8907 57.298 29.736C57.5753 29.5813 57.874 29.504 58.194 29.504ZM65.1928 31.688C65.1928 31.848 65.1821 31.992 65.1608 32.12H61.9208C61.9474 32.44 62.0594 32.6907 62.2568 32.872C62.4541 33.0533 62.6968 33.144 62.9848 33.144C63.4008 33.144 63.6968 32.9653 63.8728 32.608H65.0808C64.9528 33.0347 64.7074 33.3867 64.3448 33.664C63.9821 33.936 63.5368 34.072 63.0088 34.072C62.5821 34.072 62.1981 33.9787 61.8568 33.792C61.5208 33.6 61.2568 33.3307 61.0648 32.984C60.8781 32.6373 60.7848 32.2373 60.7848 31.784C60.7848 31.3253 60.8781 30.9227 61.0648 30.576C61.2514 30.2293 61.5128 29.9627 61.8488 29.776C62.1848 29.5893 62.5714 29.496 63.0088 29.496C63.4301 29.496 63.8061 29.5867 64.1368 29.768C64.4728 29.9493 64.7314 30.208 64.9128 30.544C65.0994 30.8747 65.1928 31.256 65.1928 31.688ZM64.0328 31.368C64.0274 31.08 63.9234 30.8507 63.7208 30.68C63.5181 30.504 63.2701 30.416 62.9768 30.416C62.6994 30.416 62.4648 30.5013 62.2728 30.672C62.0861 30.8373 61.9714 31.0693 61.9288 31.368H64.0328ZM68.4663 29.504C68.9943 29.504 69.4209 29.672 69.7463 30.008C70.0716 30.3387 70.2343 30.8027 70.2343 31.4V34H69.1143V31.552C69.1143 31.2 69.0263 30.9307 68.8503 30.744C68.6743 30.552 68.4343 30.456 68.1303 30.456C67.8209 30.456 67.5756 30.552 67.3943 30.744C67.2183 30.9307 67.1303 31.2 67.1303 31.552V34H66.0103V29.568H67.1303V30.12C67.2796 29.928 67.4689 29.7787 67.6983 29.672C67.9329 29.56 68.1889 29.504 68.4663 29.504ZM72.6033 30.488V32.632C72.6033 32.7813 72.638 32.8907 72.7073 32.96C72.782 33.024 72.9047 33.056 73.0753 33.056H73.5953V34H72.8913C71.9473 34 71.4753 33.5413 71.4753 32.624V30.488H70.9473V29.568H71.4753V28.472H72.6033V29.568H73.5953V30.488H72.6033ZM78.2752 34.072C77.8485 34.072 77.4645 33.9787 77.1232 33.792C76.7818 33.6 76.5125 33.3307 76.3152 32.984C76.1232 32.6373 76.0272 32.2373 76.0272 31.784C76.0272 31.3307 76.1258 30.9307 76.3232 30.584C76.5258 30.2373 76.8005 29.9707 77.1472 29.784C77.4938 29.592 77.8805 29.496 78.3072 29.496C78.7338 29.496 79.1205 29.592 79.4672 29.784C79.8138 29.9707 80.0858 30.2373 80.2832 30.584C80.4858 30.9307 80.5872 31.3307 80.5872 31.784C80.5872 32.2373 80.4832 32.6373 80.2752 32.984C80.0725 33.3307 79.7952 33.6 79.4432 33.792C79.0965 33.9787 78.7072 34.072 78.2752 34.072ZM78.2752 33.096C78.4778 33.096 78.6672 33.048 78.8432 32.952C79.0245 32.8507 79.1685 32.7013 79.2752 32.504C79.3818 32.3067 79.4352 32.0667 79.4352 31.784C79.4352 31.3627 79.3232 31.04 79.0992 30.816C78.8805 30.5867 78.6112 30.472 78.2912 30.472C77.9712 30.472 77.7018 30.5867 77.4832 30.816C77.2698 31.04 77.1632 31.3627 77.1632 31.784C77.1632 32.2053 77.2672 32.5307 77.4752 32.76C77.6885 32.984 77.9552 33.096 78.2752 33.096ZM83.4407 30.488H82.6647V34H81.5287V30.488H81.0247V29.568H81.5287V29.344C81.5287 28.8 81.6834 28.4 81.9927 28.144C82.3021 27.888 82.7687 27.768 83.3927 27.784V28.728C83.1207 28.7227 82.9314 28.768 82.8247 28.864C82.7181 28.96 82.6647 29.1333 82.6647 29.384V29.568H83.4407V30.488ZM17.6615 41.416C18.2482 41.416 18.7628 41.5307 19.2055 41.76C19.6535 41.9893 19.9975 42.3173 20.2375 42.744C20.4828 43.1653 20.6055 43.656 20.6055 44.216C20.6055 44.776 20.4828 45.2667 20.2375 45.688C19.9975 46.104 19.6535 46.4267 19.2055 46.656C18.7628 46.8853 18.2482 47 17.6615 47H15.7095V41.416H17.6615ZM17.6215 46.048C18.2082 46.048 18.6615 45.888 18.9815 45.568C19.3015 45.248 19.4615 44.7973 19.4615 44.216C19.4615 43.6347 19.3015 43.1813 18.9815 42.856C18.6615 42.5253 18.2082 42.36 17.6215 42.36H16.8295V46.048H17.6215ZM22.0119 42.04C21.8145 42.04 21.6492 41.9787 21.5159 41.856C21.3879 41.728 21.3239 41.5707 21.3239 41.384C21.3239 41.1973 21.3879 41.0427 21.5159 40.92C21.6492 40.792 21.8145 40.728 22.0119 40.728C22.2092 40.728 22.3719 40.792 22.4999 40.92C22.6332 41.0427 22.6999 41.1973 22.6999 41.384C22.6999 41.5707 22.6332 41.728 22.4999 41.856C22.3719 41.9787 22.2092 42.04 22.0119 42.04ZM22.5639 42.568V47H21.4439V42.568H22.5639ZM25.3664 47.072C25.0038 47.072 24.6784 47.008 24.3904 46.88C24.1024 46.7467 23.8731 46.568 23.7024 46.344C23.5371 46.12 23.4464 45.872 23.4304 45.6H24.5584C24.5798 45.7707 24.6624 45.912 24.8064 46.024C24.9558 46.136 25.1398 46.192 25.3584 46.192C25.5718 46.192 25.7371 46.1493 25.8544 46.064C25.9771 45.9787 26.0384 45.8693 26.0384 45.736C26.0384 45.592 25.9638 45.4853 25.8144 45.416C25.6704 45.3413 25.4384 45.2613 25.1184 45.176C24.7878 45.096 24.5158 45.0133 24.3024 44.928C24.0944 44.8427 23.9131 44.712 23.7584 44.536C23.6091 44.36 23.5344 44.1227 23.5344 43.824C23.5344 43.5787 23.6038 43.3547 23.7424 43.152C23.8864 42.9493 24.0891 42.7893 24.3504 42.672C24.6171 42.5547 24.9291 42.496 25.2864 42.496C25.8144 42.496 26.2358 42.6293 26.5504 42.896C26.8651 43.1573 27.0384 43.512 27.0704 43.96H25.9984C25.9824 43.784 25.9078 43.6453 25.7744 43.544C25.6464 43.4373 25.4731 43.384 25.2544 43.384C25.0518 43.384 24.8944 43.4213 24.7824 43.496C24.6758 43.5707 24.6224 43.6747 24.6224 43.808C24.6224 43.9573 24.6971 44.072 24.8464 44.152C24.9958 44.2267 25.2278 44.304 25.5424 44.384C25.8624 44.464 26.1264 44.5467 26.3344 44.632C26.5424 44.7173 26.7211 44.8507 26.8704 45.032C27.0251 45.208 27.1051 45.4427 27.1104 45.736C27.1104 45.992 27.0384 46.2213 26.8944 46.424C26.7558 46.6267 26.5531 46.7867 26.2864 46.904C26.0251 47.016 25.7184 47.072 25.3664 47.072ZM27.7418 44.784C27.7418 44.3253 27.8351 43.9253 28.0218 43.584C28.2085 43.2373 28.4671 42.9707 28.7978 42.784C29.1285 42.592 29.5071 42.496 29.9338 42.496C30.4831 42.496 30.9365 42.6347 31.2938 42.912C31.6565 43.184 31.8991 43.568 32.0218 44.064H30.8138C30.7498 43.872 30.6405 43.7227 30.4858 43.616C30.3365 43.504 30.1498 43.448 29.9258 43.448C29.6058 43.448 29.3525 43.5653 29.1658 43.8C28.9791 44.0293 28.8858 44.3573 28.8858 44.784C28.8858 45.2053 28.9791 45.5333 29.1658 45.768C29.3525 45.9973 29.6058 46.112 29.9258 46.112C30.3791 46.112 30.6751 45.9093 30.8138 45.504H32.0218C31.8991 45.984 31.6565 46.3653 31.2938 46.648C30.9311 46.9307 30.4778 47.072 29.9338 47.072C29.5071 47.072 29.1285 46.9787 28.7978 46.792C28.4671 46.6 28.2085 46.3333 28.0218 45.992C27.8351 45.6453 27.7418 45.2427 27.7418 44.784ZM34.8103 47.072C34.3836 47.072 33.9996 46.9787 33.6583 46.792C33.317 46.6 33.0476 46.3307 32.8503 45.984C32.6583 45.6373 32.5623 45.2373 32.5623 44.784C32.5623 44.3307 32.661 43.9307 32.8583 43.584C33.061 43.2373 33.3356 42.9707 33.6823 42.784C34.029 42.592 34.4156 42.496 34.8423 42.496C35.269 42.496 35.6556 42.592 36.0023 42.784C36.349 42.9707 36.621 43.2373 36.8183 43.584C37.021 43.9307 37.1223 44.3307 37.1223 44.784C37.1223 45.2373 37.0183 45.6373 36.8103 45.984C36.6076 46.3307 36.3303 46.6 35.9783 46.792C35.6316 46.9787 35.2423 47.072 34.8103 47.072ZM34.8103 46.096C35.013 46.096 35.2023 46.048 35.3783 45.952C35.5596 45.8507 35.7036 45.7013 35.8103 45.504C35.917 45.3067 35.9703 45.0667 35.9703 44.784C35.9703 44.3627 35.8583 44.04 35.6343 43.816C35.4156 43.5867 35.1463 43.472 34.8263 43.472C34.5063 43.472 34.237 43.5867 34.0183 43.816C33.805 44.04 33.6983 44.3627 33.6983 44.784C33.6983 45.2053 33.8023 45.5307 34.0103 45.76C34.2236 45.984 34.4903 46.096 34.8103 46.096ZM39.0639 43.256C39.2079 43.0213 39.3945 42.8373 39.6239 42.704C39.8585 42.5707 40.1252 42.504 40.4239 42.504V43.68H40.1279C39.7759 43.68 39.5092 43.7627 39.3279 43.928C39.1519 44.0933 39.0639 44.3813 39.0639 44.792V47H37.9439V42.568H39.0639V43.256ZM40.8902 44.768C40.8902 44.32 40.9782 43.9227 41.1542 43.576C41.3356 43.2293 41.5809 42.9627 41.8902 42.776C42.1996 42.5893 42.5436 42.496 42.9222 42.496C43.2102 42.496 43.4849 42.56 43.7462 42.688C44.0076 42.8107 44.2156 42.976 44.3702 43.184V41.08H45.5062V47H44.3702V46.344C44.2316 46.5627 44.0369 46.7387 43.7862 46.872C43.5356 47.0053 43.2449 47.072 42.9142 47.072C42.5409 47.072 42.1996 46.976 41.8902 46.784C41.5809 46.592 41.3356 46.3227 41.1542 45.976C40.9782 45.624 40.8902 45.2213 40.8902 44.768ZM44.3782 44.784C44.3782 44.512 44.3249 44.28 44.2182 44.088C44.1116 43.8907 43.9676 43.7413 43.7862 43.64C43.6049 43.5333 43.4102 43.48 43.2022 43.48C42.9942 43.48 42.8022 43.5307 42.6262 43.632C42.4502 43.7333 42.3062 43.8827 42.1942 44.08C42.0876 44.272 42.0342 44.5013 42.0342 44.768C42.0342 45.0347 42.0876 45.2693 42.1942 45.472C42.3062 45.6693 42.4502 45.8213 42.6262 45.928C42.8076 46.0347 42.9996 46.088 43.2022 46.088C43.4102 46.088 43.6049 46.0373 43.7862 45.936C43.9676 45.8293 44.1116 45.68 44.2182 45.488C44.3249 45.2907 44.3782 45.056 44.3782 44.784ZM48.2344 44.2C48.2344 43.6507 48.357 43.16 48.6024 42.728C48.853 42.2907 49.1917 41.952 49.6184 41.712C50.0504 41.4667 50.533 41.344 51.0664 41.344C51.6904 41.344 52.237 41.504 52.7064 41.824C53.1757 42.144 53.5037 42.5867 53.6904 43.152H52.4024C52.2744 42.8853 52.093 42.6853 51.8584 42.552C51.629 42.4187 51.3624 42.352 51.0584 42.352C50.733 42.352 50.4424 42.4293 50.1864 42.584C49.9357 42.7333 49.7384 42.9467 49.5944 43.224C49.4557 43.5013 49.3864 43.8267 49.3864 44.2C49.3864 44.568 49.4557 44.8933 49.5944 45.176C49.7384 45.4533 49.9357 45.6693 50.1864 45.824C50.4424 45.9733 50.733 46.048 51.0584 46.048C51.3624 46.048 51.629 45.9813 51.8584 45.848C52.093 45.7093 52.2744 45.5067 52.4024 45.24H53.6904C53.5037 45.8107 53.1757 46.256 52.7064 46.576C52.2424 46.8907 51.6957 47.048 51.0664 47.048C50.533 47.048 50.0504 46.928 49.6184 46.688C49.1917 46.4427 48.853 46.104 48.6024 45.672C48.357 45.24 48.2344 44.7493 48.2344 44.2ZM57.143 42.504C57.479 42.504 57.7777 42.5787 58.039 42.728C58.3003 42.872 58.503 43.088 58.647 43.376C58.7963 43.6587 58.871 44 58.871 44.4V47H57.751V44.552C57.751 44.2 57.663 43.9307 57.487 43.744C57.311 43.552 57.071 43.456 56.767 43.456C56.4577 43.456 56.2123 43.552 56.031 43.744C55.855 43.9307 55.767 44.2 55.767 44.552V47H54.647V41.08H55.767V43.12C55.911 42.928 56.103 42.7787 56.343 42.672C56.583 42.56 56.8497 42.504 57.143 42.504ZM59.6481 44.768C59.6481 44.32 59.7361 43.9227 59.9121 43.576C60.0934 43.2293 60.3361 42.9627 60.6401 42.776C60.9494 42.5893 61.2934 42.496 61.6721 42.496C62.0027 42.496 62.2907 42.5627 62.5361 42.696C62.7867 42.8293 62.9867 42.9973 63.1361 43.2V42.568H64.2641V47H63.1361V46.352C62.9921 46.56 62.7921 46.7333 62.5361 46.872C62.2854 47.0053 61.9947 47.072 61.6641 47.072C61.2907 47.072 60.9494 46.976 60.6401 46.784C60.3361 46.592 60.0934 46.3227 59.9121 45.976C59.7361 45.624 59.6481 45.2213 59.6481 44.768ZM63.1361 44.784C63.1361 44.512 63.0827 44.28 62.9761 44.088C62.8694 43.8907 62.7254 43.7413 62.5441 43.64C62.3627 43.5333 62.1681 43.48 61.9601 43.48C61.7521 43.48 61.5601 43.5307 61.3841 43.632C61.2081 43.7333 61.0641 43.8827 60.9521 44.08C60.8454 44.272 60.7921 44.5013 60.7921 44.768C60.7921 45.0347 60.8454 45.2693 60.9521 45.472C61.0641 45.6693 61.2081 45.8213 61.3841 45.928C61.5654 46.0347 61.7574 46.088 61.9601 46.088C62.1681 46.088 62.3627 46.0373 62.5441 45.936C62.7254 45.8293 62.8694 45.68 62.9761 45.488C63.0827 45.2907 63.1361 45.056 63.1361 44.784ZM67.8139 42.504C68.3419 42.504 68.7686 42.672 69.0939 43.008C69.4193 43.3387 69.5819 43.8027 69.5819 44.4V47H68.4619V44.552C68.4619 44.2 68.3739 43.9307 68.1979 43.744C68.0219 43.552 67.7819 43.456 67.4779 43.456C67.1686 43.456 66.9233 43.552 66.7419 43.744C66.5659 43.9307 66.4779 44.2 66.4779 44.552V47H65.3579V42.568H66.4779V43.12C66.6273 42.928 66.8166 42.7787 67.0459 42.672C67.2806 42.56 67.5366 42.504 67.8139 42.504ZM73.103 42.504C73.631 42.504 74.0577 42.672 74.383 43.008C74.7083 43.3387 74.871 43.8027 74.871 44.4V47H73.751V44.552C73.751 44.2 73.663 43.9307 73.487 43.744C73.311 43.552 73.071 43.456 72.767 43.456C72.4577 43.456 72.2123 43.552 72.031 43.744C71.855 43.9307 71.767 44.2 71.767 44.552V47H70.647V42.568H71.767V43.12C71.9163 42.928 72.1057 42.7787 72.335 42.672C72.5697 42.56 72.8257 42.504 73.103 42.504ZM80.0561 44.688C80.0561 44.848 80.0454 44.992 80.0241 45.12H76.7841C76.8107 45.44 76.9227 45.6907 77.1201 45.872C77.3174 46.0533 77.5601 46.144 77.8481 46.144C78.2641 46.144 78.5601 45.9653 78.7361 45.608H79.9441C79.8161 46.0347 79.5707 46.3867 79.2081 46.664C78.8454 46.936 78.4001 47.072 77.8721 47.072C77.4454 47.072 77.0614 46.9787 76.7201 46.792C76.3841 46.6 76.1201 46.3307 75.9281 45.984C75.7414 45.6373 75.6481 45.2373 75.6481 44.784C75.6481 44.3253 75.7414 43.9227 75.9281 43.576C76.1147 43.2293 76.3761 42.9627 76.7121 42.776C77.0481 42.5893 77.4347 42.496 77.8721 42.496C78.2934 42.496 78.6694 42.5867 79.0001 42.768C79.3361 42.9493 79.5947 43.208 79.7761 43.544C79.9627 43.8747 80.0561 44.256 80.0561 44.688ZM78.8961 44.368C78.8907 44.08 78.7867 43.8507 78.5841 43.68C78.3814 43.504 78.1334 43.416 77.8401 43.416C77.5627 43.416 77.3281 43.5013 77.1361 43.672C76.9494 43.8373 76.8347 44.0693 76.7921 44.368H78.8961ZM81.9936 41.08V47H80.8736V41.08H81.9936ZM84.7961 47.072C84.4335 47.072 84.1081 47.008 83.8201 46.88C83.5321 46.7467 83.3028 46.568 83.1321 46.344C82.9668 46.12 82.8761 45.872 82.8601 45.6H83.9881C84.0095 45.7707 84.0921 45.912 84.2361 46.024C84.3855 46.136 84.5695 46.192 84.7881 46.192C85.0015 46.192 85.1668 46.1493 85.2841 46.064C85.4068 45.9787 85.4681 45.8693 85.4681 45.736C85.4681 45.592 85.3935 45.4853 85.2441 45.416C85.1001 45.3413 84.8681 45.2613 84.5481 45.176C84.2175 45.096 83.9455 45.0133 83.7321 44.928C83.5241 44.8427 83.3428 44.712 83.1881 44.536C83.0388 44.36 82.9641 44.1227 82.9641 43.824C82.9641 43.5787 83.0335 43.3547 83.1721 43.152C83.3161 42.9493 83.5188 42.7893 83.7801 42.672C84.0468 42.5547 84.3588 42.496 84.7161 42.496C85.2441 42.496 85.6655 42.6293 85.9801 42.896C86.2948 43.1573 86.4681 43.512 86.5001 43.96H85.4281C85.4121 43.784 85.3375 43.6453 85.2041 43.544C85.0761 43.4373 84.9028 43.384 84.6841 43.384C84.4815 43.384 84.3241 43.4213 84.2121 43.496C84.1055 43.5707 84.0521 43.6747 84.0521 43.808C84.0521 43.9573 84.1268 44.072 84.2761 44.152C84.4255 44.2267 84.6575 44.304 84.9721 44.384C85.2921 44.464 85.5561 44.5467 85.7641 44.632C85.9721 44.7173 86.1508 44.8507 86.3001 45.032C86.4548 45.208 86.5348 45.4427 86.5401 45.736C86.5401 45.992 86.4681 46.2213 86.3241 46.424C86.1855 46.6267 85.9828 46.7867 85.7161 46.904C85.4548 47.016 85.1481 47.072 84.7961 47.072Z" fill="#FCFCFC"/>
<circle cx="90.5332" cy="63.0805" r="3.23433" fill="url(#paint0_radial_142_440)"/>
<circle cx="90.5332" cy="63.0805" r="3.23433" fill="#4AAAFF"/>
<defs>
<filter id="filter0_b_142_440" x="-5.02709" y="-5.42846" width="112.908" height="85.8569" filterUnits="userSpaceOnUse" color-interpolation-filters="sRGB">
<feFlood flood-opacity="0" result="BackgroundImageFix"/>
<feGaussianBlur in="BackgroundImage" stdDeviation="2.9403"/>
<feComposite in2="SourceAlpha" operator="in" result="effect1_backgroundBlur_142_440"/>
<feBlend mode="normal" in="SourceGraphic" in2="effect1_backgroundBlur_142_440" result="shape"/>
</filter>
<radialGradient id="paint0_radial_142_440" cx="0" cy="0" r="1" gradientUnits="userSpaceOnUse" gradientTransform="translate(90.5332 63.0805) rotate(90) scale(3.23433)">
<stop stop-color="#4AAAFF"/>
<stop offset="1" stop-color="#4AAAFF" stop-opacity="0"/>
</radialGradient>
</defs>
</svg>
