<svg width="108" height="79" viewBox="0 0 108 79" fill="none" xmlns="http://www.w3.org/2000/svg">
<g filter="url(#filter0_b_68_702)">
<rect width="107.841" height="79" rx="6.26984" fill="white" fill-opacity="0.04"/>
</g>
<path d="M24.3152 27.718V34H23.0552V29.914L21.3722 34H20.4182L18.7262 29.914V34H17.4662V27.718H18.8972L20.8952 32.389L22.8932 27.718H24.3152ZM25.2369 31.489C25.2369 30.985 25.3359 30.538 25.5339 30.148C25.7379 29.758 26.0109 29.458 26.3529 29.248C26.7009 29.038 27.0879 28.933 27.5139 28.933C27.8859 28.933 28.2099 29.008 28.4859 29.158C28.7679 29.308 28.9929 29.497 29.1609 29.725V29.014H30.4299V34H29.1609V33.271C28.9989 33.505 28.7739 33.7 28.4859 33.856C28.2039 34.006 27.8769 34.081 27.5049 34.081C27.0849 34.081 26.7009 33.973 26.3529 33.757C26.0109 33.541 25.7379 33.238 25.5339 32.848C25.3359 32.452 25.2369 31.999 25.2369 31.489ZM29.1609 31.507C29.1609 31.201 29.1009 30.94 28.9809 30.724C28.8609 30.502 28.6989 30.334 28.4949 30.22C28.2909 30.1 28.0719 30.04 27.8379 30.04C27.6039 30.04 27.3879 30.097 27.1899 30.211C26.9919 30.325 26.8299 30.493 26.7039 30.715C26.5839 30.931 26.5239 31.189 26.5239 31.489C26.5239 31.789 26.5839 32.053 26.7039 32.281C26.8299 32.503 26.9919 32.674 27.1899 32.794C27.3939 32.914 27.6099 32.974 27.8379 32.974C28.0719 32.974 28.2909 32.917 28.4949 32.803C28.6989 32.683 28.8609 32.515 28.9809 32.299C29.1009 32.077 29.1609 31.813 29.1609 31.507ZM34.4236 28.942C35.0176 28.942 35.4976 29.131 35.8636 29.509C36.2296 29.881 36.4126 30.403 36.4126 31.075V34H35.1526V31.246C35.1526 30.85 35.0536 30.547 34.8556 30.337C34.6576 30.121 34.3876 30.013 34.0456 30.013C33.6976 30.013 33.4216 30.121 33.2176 30.337C33.0196 30.547 32.9206 30.85 32.9206 31.246V34H31.6606V29.014H32.9206V29.635C33.0886 29.419 33.3016 29.251 33.5596 29.131C33.8236 29.005 34.1116 28.942 34.4236 28.942ZM37.2867 31.489C37.2867 30.985 37.3857 30.538 37.5837 30.148C37.7877 29.758 38.0607 29.458 38.4027 29.248C38.7507 29.038 39.1377 28.933 39.5637 28.933C39.9357 28.933 40.2597 29.008 40.5357 29.158C40.8177 29.308 41.0427 29.497 41.2107 29.725V29.014H42.4797V34H41.2107V33.271C41.0487 33.505 40.8237 33.7 40.5357 33.856C40.2537 34.006 39.9267 34.081 39.5547 34.081C39.1347 34.081 38.7507 33.973 38.4027 33.757C38.0607 33.541 37.7877 33.238 37.5837 32.848C37.3857 32.452 37.2867 31.999 37.2867 31.489ZM41.2107 31.507C41.2107 31.201 41.1507 30.94 41.0307 30.724C40.9107 30.502 40.7487 30.334 40.5447 30.22C40.3407 30.1 40.1217 30.04 39.8877 30.04C39.6537 30.04 39.4377 30.097 39.2397 30.211C39.0417 30.325 38.8797 30.493 38.7537 30.715C38.6337 30.931 38.5737 31.189 38.5737 31.489C38.5737 31.789 38.6337 32.053 38.7537 32.281C38.8797 32.503 39.0417 32.674 39.2397 32.794C39.4437 32.914 39.6597 32.974 39.8877 32.974C40.1217 32.974 40.3407 32.917 40.5447 32.803C40.7487 32.683 40.9107 32.515 41.0307 32.299C41.1507 32.077 41.2107 31.813 41.2107 31.507ZM45.6634 28.933C46.0354 28.933 46.3624 29.008 46.6444 29.158C46.9264 29.302 47.1484 29.491 47.3104 29.725V29.014H48.5794V34.036C48.5794 34.498 48.4864 34.909 48.3004 35.269C48.1144 35.635 47.8354 35.923 47.4634 36.133C47.0914 36.349 46.6414 36.457 46.1134 36.457C45.4054 36.457 44.8234 36.292 44.3674 35.962C43.9174 35.632 43.6624 35.182 43.6024 34.612H44.8534C44.9194 34.84 45.0604 35.02 45.2764 35.152C45.4984 35.29 45.7654 35.359 46.0774 35.359C46.4434 35.359 46.7404 35.248 46.9684 35.026C47.1964 34.81 47.3104 34.48 47.3104 34.036V33.262C47.1484 33.496 46.9234 33.691 46.6354 33.847C46.3534 34.003 46.0294 34.081 45.6634 34.081C45.2434 34.081 44.8594 33.973 44.5114 33.757C44.1634 33.541 43.8874 33.238 43.6834 32.848C43.4854 32.452 43.3864 31.999 43.3864 31.489C43.3864 30.985 43.4854 30.538 43.6834 30.148C43.8874 29.758 44.1604 29.458 44.5024 29.248C44.8504 29.038 45.2374 28.933 45.6634 28.933ZM47.3104 31.507C47.3104 31.201 47.2504 30.94 47.1304 30.724C47.0104 30.502 46.8484 30.334 46.6444 30.22C46.4404 30.1 46.2214 30.04 45.9874 30.04C45.7534 30.04 45.5374 30.097 45.3394 30.211C45.1414 30.325 44.9794 30.493 44.8534 30.715C44.7334 30.931 44.6734 31.189 44.6734 31.489C44.6734 31.789 44.7334 32.053 44.8534 32.281C44.9794 32.503 45.1414 32.674 45.3394 32.794C45.5434 32.914 45.7594 32.974 45.9874 32.974C46.2214 32.974 46.4404 32.917 46.6444 32.803C46.8484 32.683 47.0104 32.515 47.1304 32.299C47.2504 32.077 47.3104 31.813 47.3104 31.507ZM54.445 31.399C54.445 31.579 54.433 31.741 54.409 31.885H50.764C50.794 32.245 50.92 32.527 51.142 32.731C51.364 32.935 51.637 33.037 51.961 33.037C52.429 33.037 52.762 32.836 52.96 32.434H54.319C54.175 32.914 53.899 33.31 53.491 33.622C53.083 33.928 52.582 34.081 51.988 34.081C51.508 34.081 51.076 33.976 50.692 33.766C50.314 33.55 50.017 33.247 49.801 32.857C49.591 32.467 49.486 32.017 49.486 31.507C49.486 30.991 49.591 30.538 49.801 30.148C50.011 29.758 50.305 29.458 50.683 29.248C51.061 29.038 51.496 28.933 51.988 28.933C52.462 28.933 52.885 29.035 53.257 29.239C53.635 29.443 53.926 29.734 54.13 30.112C54.34 30.484 54.445 30.913 54.445 31.399ZM53.14 31.039C53.134 30.715 53.017 30.457 52.789 30.265C52.561 30.067 52.282 29.968 51.952 29.968C51.64 29.968 51.376 30.064 51.16 30.256C50.95 30.442 50.821 30.703 50.773 31.039H53.14ZM61.5567 28.942C62.1687 28.942 62.6607 29.131 63.0327 29.509C63.4107 29.881 63.5997 30.403 63.5997 31.075V34H62.3397V31.246C62.3397 30.856 62.2407 30.559 62.0427 30.355C61.8447 30.145 61.5747 30.04 61.2327 30.04C60.8907 30.04 60.6177 30.145 60.4137 30.355C60.2157 30.559 60.1167 30.856 60.1167 31.246V34H58.8567V31.246C58.8567 30.856 58.7577 30.559 58.5597 30.355C58.3617 30.145 58.0917 30.04 57.7497 30.04C57.4017 30.04 57.1257 30.145 56.9217 30.355C56.7237 30.559 56.6247 30.856 56.6247 31.246V34H55.3647V29.014H56.6247V29.617C56.7867 29.407 56.9937 29.242 57.2457 29.122C57.5037 29.002 57.7857 28.942 58.0917 28.942C58.4817 28.942 58.8297 29.026 59.1357 29.194C59.4417 29.356 59.6787 29.59 59.8467 29.896C60.0087 29.608 60.2427 29.377 60.5487 29.203C60.8607 29.029 61.1967 28.942 61.5567 28.942ZM69.4303 31.399C69.4303 31.579 69.4183 31.741 69.3943 31.885H65.7493C65.7793 32.245 65.9053 32.527 66.1273 32.731C66.3493 32.935 66.6223 33.037 66.9463 33.037C67.4143 33.037 67.7473 32.836 67.9453 32.434H69.3043C69.1603 32.914 68.8843 33.31 68.4763 33.622C68.0683 33.928 67.5673 34.081 66.9733 34.081C66.4933 34.081 66.0613 33.976 65.6773 33.766C65.2993 33.55 65.0023 33.247 64.7863 32.857C64.5763 32.467 64.4713 32.017 64.4713 31.507C64.4713 30.991 64.5763 30.538 64.7863 30.148C64.9963 29.758 65.2903 29.458 65.6683 29.248C66.0463 29.038 66.4813 28.933 66.9733 28.933C67.4473 28.933 67.8703 29.035 68.2423 29.239C68.6203 29.443 68.9113 29.734 69.1153 30.112C69.3253 30.484 69.4303 30.913 69.4303 31.399ZM68.1253 31.039C68.1193 30.715 68.0023 30.457 67.7743 30.265C67.5463 30.067 67.2673 29.968 66.9373 29.968C66.6253 29.968 66.3613 30.064 66.1453 30.256C65.9353 30.442 65.8063 30.703 65.7583 31.039H68.1253ZM73.113 28.942C73.707 28.942 74.187 29.131 74.553 29.509C74.919 29.881 75.102 30.403 75.102 31.075V34H73.842V31.246C73.842 30.85 73.743 30.547 73.545 30.337C73.347 30.121 73.077 30.013 72.735 30.013C72.387 30.013 72.111 30.121 71.907 30.337C71.709 30.547 71.61 30.85 71.61 31.246V34H70.35V29.014H71.61V29.635C71.778 29.419 71.991 29.251 72.249 29.131C72.513 29.005 72.801 28.942 73.113 28.942ZM77.7672 30.049V32.461C77.7672 32.629 77.8062 32.752 77.8842 32.83C77.9682 32.902 78.1062 32.938 78.2982 32.938H78.8832V34H78.0912C77.0292 34 76.4982 33.484 76.4982 32.452V30.049H75.9042V29.014H76.4982V27.781H77.7672V29.014H78.8832V30.049H77.7672ZM84.148 34.081C83.668 34.081 83.236 33.976 82.852 33.766C82.468 33.55 82.165 33.247 81.943 32.857C81.727 32.467 81.619 32.017 81.619 31.507C81.619 30.997 81.73 30.547 81.952 30.157C82.18 29.767 82.489 29.467 82.879 29.257C83.269 29.041 83.704 28.933 84.184 28.933C84.664 28.933 85.099 29.041 85.489 29.257C85.879 29.467 86.185 29.767 86.407 30.157C86.635 30.547 86.749 30.997 86.749 31.507C86.749 32.017 86.632 32.467 86.398 32.857C86.17 33.247 85.858 33.55 85.462 33.766C85.072 33.976 84.634 34.081 84.148 34.081ZM84.148 32.983C84.376 32.983 84.589 32.929 84.787 32.821C84.991 32.707 85.153 32.539 85.273 32.317C85.393 32.095 85.453 31.825 85.453 31.507C85.453 31.033 85.327 30.67 85.075 30.418C84.829 30.16 84.526 30.031 84.166 30.031C83.806 30.031 83.503 30.16 83.257 30.418C83.017 30.67 82.897 31.033 82.897 31.507C82.897 31.981 83.014 32.347 83.248 32.605C83.488 32.857 83.788 32.983 84.148 32.983ZM89.9592 30.049H89.0862V34H87.8082V30.049H87.2412V29.014H87.8082V28.762C87.8082 28.15 87.9822 27.7 88.3302 27.412C88.6782 27.124 89.2032 26.989 89.9052 27.007V28.069C89.5992 28.063 89.3862 28.114 89.2662 28.222C89.1462 28.33 89.0862 28.525 89.0862 28.807V29.014H89.9592V30.049ZM18.665 43.718V44.735H16.991V50H15.731V44.735H14.057V43.718H18.665ZM24.2194 47.399C24.2194 47.579 24.2074 47.741 24.1834 47.885H20.5384C20.5684 48.245 20.6944 48.527 20.9164 48.731C21.1384 48.935 21.4114 49.037 21.7354 49.037C22.2034 49.037 22.5364 48.836 22.7344 48.434H24.0934C23.9494 48.914 23.6734 49.31 23.2654 49.622C22.8574 49.928 22.3564 50.081 21.7624 50.081C21.2824 50.081 20.8504 49.976 20.4664 49.766C20.0884 49.55 19.7914 49.247 19.5754 48.857C19.3654 48.467 19.2604 48.017 19.2604 47.507C19.2604 46.991 19.3654 46.538 19.5754 46.148C19.7854 45.758 20.0794 45.458 20.4574 45.248C20.8354 45.038 21.2704 44.933 21.7624 44.933C22.2364 44.933 22.6594 45.035 23.0314 45.239C23.4094 45.443 23.7004 45.734 23.9044 46.112C24.1144 46.484 24.2194 46.913 24.2194 47.399ZM22.9144 47.039C22.9084 46.715 22.7914 46.457 22.5634 46.265C22.3354 46.067 22.0564 45.968 21.7264 45.968C21.4144 45.968 21.1504 46.064 20.9344 46.256C20.7244 46.442 20.5954 46.703 20.5474 47.039H22.9144ZM26.3991 43.34V50H25.1391V43.34H26.3991ZM32.2789 47.399C32.2789 47.579 32.2669 47.741 32.2429 47.885H28.5979C28.6279 48.245 28.7539 48.527 28.9759 48.731C29.1979 48.935 29.4709 49.037 29.7949 49.037C30.2629 49.037 30.5959 48.836 30.7939 48.434H32.1529C32.0089 48.914 31.7329 49.31 31.3249 49.622C30.9169 49.928 30.4159 50.081 29.8219 50.081C29.3419 50.081 28.9099 49.976 28.5259 49.766C28.1479 49.55 27.8509 49.247 27.6349 48.857C27.4249 48.467 27.3199 48.017 27.3199 47.507C27.3199 46.991 27.4249 46.538 27.6349 46.148C27.8449 45.758 28.1389 45.458 28.5169 45.248C28.8949 45.038 29.3299 44.933 29.8219 44.933C30.2959 44.933 30.7189 45.035 31.0909 45.239C31.4689 45.443 31.7599 45.734 31.9639 46.112C32.1739 46.484 32.2789 46.913 32.2789 47.399ZM30.9739 47.039C30.9679 46.715 30.8509 46.457 30.6229 46.265C30.3949 46.067 30.1159 45.968 29.7859 45.968C29.4739 45.968 29.2099 46.064 28.9939 46.256C28.7839 46.442 28.6549 46.703 28.6069 47.039H30.9739ZM35.1516 44.933C35.5236 44.933 35.8506 45.008 36.1326 45.158C36.4146 45.302 36.6366 45.491 36.7986 45.725V45.014H38.0676V50.036C38.0676 50.498 37.9746 50.909 37.7886 51.269C37.6026 51.635 37.3236 51.923 36.9516 52.133C36.5796 52.349 36.1296 52.457 35.6016 52.457C34.8936 52.457 34.3116 52.292 33.8556 51.962C33.4056 51.632 33.1506 51.182 33.0906 50.612H34.3416C34.4076 50.84 34.5486 51.02 34.7646 51.152C34.9866 51.29 35.2536 51.359 35.5656 51.359C35.9316 51.359 36.2286 51.248 36.4566 51.026C36.6846 50.81 36.7986 50.48 36.7986 50.036V49.262C36.6366 49.496 36.4116 49.691 36.1236 49.847C35.8416 50.003 35.5176 50.081 35.1516 50.081C34.7316 50.081 34.3476 49.973 33.9996 49.757C33.6516 49.541 33.3756 49.238 33.1716 48.848C32.9736 48.452 32.8746 47.999 32.8746 47.489C32.8746 46.985 32.9736 46.538 33.1716 46.148C33.3756 45.758 33.6486 45.458 33.9906 45.248C34.3386 45.038 34.7256 44.933 35.1516 44.933ZM36.7986 47.507C36.7986 47.201 36.7386 46.94 36.6186 46.724C36.4986 46.502 36.3366 46.334 36.1326 46.22C35.9286 46.1 35.7096 46.04 35.4756 46.04C35.2416 46.04 35.0256 46.097 34.8276 46.211C34.6296 46.325 34.4676 46.493 34.3416 46.715C34.2216 46.931 34.1616 47.189 34.1616 47.489C34.1616 47.789 34.2216 48.053 34.3416 48.281C34.4676 48.503 34.6296 48.674 34.8276 48.794C35.0316 48.914 35.2476 48.974 35.4756 48.974C35.7096 48.974 35.9286 48.917 36.1326 48.803C36.3366 48.683 36.4986 48.515 36.6186 48.299C36.7386 48.077 36.7986 47.813 36.7986 47.507ZM40.5582 45.788C40.7202 45.524 40.9302 45.317 41.1882 45.167C41.4522 45.017 41.7522 44.942 42.0882 44.942V46.265H41.7552C41.3592 46.265 41.0592 46.358 40.8552 46.544C40.6572 46.73 40.5582 47.054 40.5582 47.516V50H39.2982V45.014H40.5582V45.788ZM42.6129 47.489C42.6129 46.985 42.7119 46.538 42.9099 46.148C43.1139 45.758 43.3869 45.458 43.7289 45.248C44.0769 45.038 44.4639 44.933 44.8899 44.933C45.2619 44.933 45.5859 45.008 45.8619 45.158C46.1439 45.308 46.3689 45.497 46.5369 45.725V45.014H47.8059V50H46.5369V49.271C46.3749 49.505 46.1499 49.7 45.8619 49.856C45.5799 50.006 45.2529 50.081 44.8809 50.081C44.4609 50.081 44.0769 49.973 43.7289 49.757C43.3869 49.541 43.1139 49.238 42.9099 48.848C42.7119 48.452 42.6129 47.999 42.6129 47.489ZM46.5369 47.507C46.5369 47.201 46.4769 46.94 46.3569 46.724C46.2369 46.502 46.0749 46.334 45.8709 46.22C45.6669 46.1 45.4479 46.04 45.2139 46.04C44.9799 46.04 44.7639 46.097 44.5659 46.211C44.3679 46.325 44.2059 46.493 44.0799 46.715C43.9599 46.931 43.8999 47.189 43.8999 47.489C43.8999 47.789 43.9599 48.053 44.0799 48.281C44.2059 48.503 44.3679 48.674 44.5659 48.794C44.7699 48.914 44.9859 48.974 45.2139 48.974C45.4479 48.974 45.6669 48.917 45.8709 48.803C46.0749 48.683 46.2369 48.515 46.3569 48.299C46.4769 48.077 46.5369 47.813 46.5369 47.507ZM55.2285 44.942C55.8405 44.942 56.3325 45.131 56.7045 45.509C57.0825 45.881 57.2715 46.403 57.2715 47.075V50H56.0115V47.246C56.0115 46.856 55.9125 46.559 55.7145 46.355C55.5165 46.145 55.2465 46.04 54.9045 46.04C54.5625 46.04 54.2895 46.145 54.0855 46.355C53.8875 46.559 53.7885 46.856 53.7885 47.246V50H52.5285V47.246C52.5285 46.856 52.4295 46.559 52.2315 46.355C52.0335 46.145 51.7635 46.04 51.4215 46.04C51.0735 46.04 50.7975 46.145 50.5935 46.355C50.3955 46.559 50.2965 46.856 50.2965 47.246V50H49.0365V45.014H50.2965V45.617C50.4585 45.407 50.6655 45.242 50.9175 45.122C51.1755 45.002 51.4575 44.942 51.7635 44.942C52.1535 44.942 52.5015 45.026 52.8075 45.194C53.1135 45.356 53.3505 45.59 53.5185 45.896C53.6805 45.608 53.9145 45.377 54.2205 45.203C54.5325 45.029 54.8685 44.942 55.2285 44.942ZM64.9857 45.608C64.8417 45.344 64.6437 45.143 64.3917 45.005C64.1397 44.867 63.8457 44.798 63.5097 44.798C63.1377 44.798 62.8077 44.882 62.5197 45.05C62.2317 45.218 62.0067 45.458 61.8447 45.77C61.6827 46.082 61.6017 46.442 61.6017 46.85C61.6017 47.27 61.6827 47.636 61.8447 47.948C62.0127 48.26 62.2437 48.5 62.5377 48.668C62.8317 48.836 63.1737 48.92 63.5637 48.92C64.0437 48.92 64.4367 48.794 64.7427 48.542C65.0487 48.284 65.2497 47.927 65.3457 47.471H63.1857V46.508H66.5877V47.606C66.5037 48.044 66.3237 48.449 66.0477 48.821C65.7717 49.193 65.4147 49.493 64.9767 49.721C64.5447 49.943 64.0587 50.054 63.5187 50.054C62.9127 50.054 62.3637 49.919 61.8717 49.649C61.3857 49.373 61.0017 48.992 60.7197 48.506C60.4437 48.02 60.3057 47.468 60.3057 46.85C60.3057 46.232 60.4437 45.68 60.7197 45.194C61.0017 44.702 61.3857 44.321 61.8717 44.051C62.3637 43.775 62.9097 43.637 63.5097 43.637C64.2177 43.637 64.8327 43.811 65.3547 44.159C65.8767 44.501 66.2367 44.984 66.4347 45.608H64.9857ZM68.7799 45.788C68.9419 45.524 69.1519 45.317 69.4099 45.167C69.6739 45.017 69.9739 44.942 70.3099 44.942V46.265H69.9769C69.5809 46.265 69.2809 46.358 69.0769 46.544C68.8789 46.73 68.7799 47.054 68.7799 47.516V50H67.5199V45.014H68.7799V45.788ZM73.3726 50.081C72.8926 50.081 72.4606 49.976 72.0766 49.766C71.6926 49.55 71.3896 49.247 71.1676 48.857C70.9516 48.467 70.8436 48.017 70.8436 47.507C70.8436 46.997 70.9546 46.547 71.1766 46.157C71.4046 45.767 71.7136 45.467 72.1036 45.257C72.4936 45.041 72.9286 44.933 73.4086 44.933C73.8886 44.933 74.3236 45.041 74.7136 45.257C75.1036 45.467 75.4096 45.767 75.6316 46.157C75.8596 46.547 75.9736 46.997 75.9736 47.507C75.9736 48.017 75.8566 48.467 75.6226 48.857C75.3946 49.247 75.0826 49.55 74.6866 49.766C74.2966 49.976 73.8586 50.081 73.3726 50.081ZM73.3726 48.983C73.6006 48.983 73.8136 48.929 74.0116 48.821C74.2156 48.707 74.3776 48.539 74.4976 48.317C74.6176 48.095 74.6776 47.825 74.6776 47.507C74.6776 47.033 74.5516 46.67 74.2996 46.418C74.0536 46.16 73.7506 46.031 73.3906 46.031C73.0306 46.031 72.7276 46.16 72.4816 46.418C72.2416 46.67 72.1216 47.033 72.1216 47.507C72.1216 47.981 72.2386 48.347 72.4726 48.605C72.7126 48.857 73.0126 48.983 73.3726 48.983ZM81.6049 45.014V50H80.3359V49.37C80.1739 49.586 79.9609 49.757 79.6969 49.883C79.4389 50.003 79.1569 50.063 78.8509 50.063C78.4609 50.063 78.1159 49.982 77.8159 49.82C77.5159 49.652 77.2789 49.409 77.1049 49.091C76.9369 48.767 76.8529 48.383 76.8529 47.939V45.014H78.1129V47.759C78.1129 48.155 78.2119 48.461 78.4099 48.677C78.6079 48.887 78.8779 48.992 79.2199 48.992C79.5679 48.992 79.8409 48.887 80.0389 48.677C80.2369 48.461 80.3359 48.155 80.3359 47.759V45.014H81.6049ZM84.1081 45.734C84.2701 45.506 84.4921 45.317 84.7741 45.167C85.0621 45.011 85.3891 44.933 85.7551 44.933C86.1811 44.933 86.5651 45.038 86.9071 45.248C87.2551 45.458 87.5281 45.758 87.7261 46.148C87.9301 46.532 88.0321 46.979 88.0321 47.489C88.0321 47.999 87.9301 48.452 87.7261 48.848C87.5281 49.238 87.2551 49.541 86.9071 49.757C86.5651 49.973 86.1811 50.081 85.7551 50.081C85.3891 50.081 85.0651 50.006 84.7831 49.856C84.5071 49.706 84.2821 49.517 84.1081 49.289V52.376H82.8481V45.014H84.1081V45.734ZM86.7451 47.489C86.7451 47.189 86.6821 46.931 86.5561 46.715C86.4361 46.493 86.2741 46.325 86.0701 46.211C85.8721 46.097 85.6561 46.04 85.4221 46.04C85.1941 46.04 84.9781 46.1 84.7741 46.22C84.5761 46.334 84.4141 46.502 84.2881 46.724C84.1681 46.946 84.1081 47.207 84.1081 47.507C84.1081 47.807 84.1681 48.068 84.2881 48.29C84.4141 48.512 84.5761 48.683 84.7741 48.803C84.9781 48.917 85.1941 48.974 85.4221 48.974C85.6561 48.974 85.8721 48.914 86.0701 48.794C86.2741 48.674 86.4361 48.503 86.5561 48.281C86.6821 48.059 86.7451 47.795 86.7451 47.489ZM90.8557 50.081C90.4477 50.081 90.0817 50.009 89.7577 49.865C89.4337 49.715 89.1757 49.514 88.9837 49.262C88.7977 49.01 88.6957 48.731 88.6777 48.425H89.9467C89.9707 48.617 90.0637 48.776 90.2257 48.902C90.3937 49.028 90.6007 49.091 90.8467 49.091C91.0867 49.091 91.2727 49.043 91.4047 48.947C91.5427 48.851 91.6117 48.728 91.6117 48.578C91.6117 48.416 91.5277 48.296 91.3597 48.218C91.1977 48.134 90.9367 48.044 90.5767 47.948C90.2047 47.858 89.8987 47.765 89.6587 47.669C89.4247 47.573 89.2207 47.426 89.0467 47.228C88.8787 47.03 88.7947 46.763 88.7947 46.427C88.7947 46.151 88.8727 45.899 89.0287 45.671C89.1907 45.443 89.4187 45.263 89.7127 45.131C90.0127 44.999 90.3637 44.933 90.7657 44.933C91.3597 44.933 91.8337 45.083 92.1877 45.383C92.5417 45.677 92.7367 46.076 92.7727 46.58H91.5667C91.5487 46.382 91.4647 46.226 91.3147 46.112C91.1707 45.992 90.9757 45.932 90.7297 45.932C90.5017 45.932 90.3247 45.974 90.1987 46.058C90.0787 46.142 90.0187 46.259 90.0187 46.409C90.0187 46.577 90.1027 46.706 90.2707 46.796C90.4387 46.88 90.6997 46.967 91.0537 47.057C91.4137 47.147 91.7107 47.24 91.9447 47.336C92.1787 47.432 92.3797 47.582 92.5477 47.786C92.7217 47.984 92.8117 48.248 92.8177 48.578C92.8177 48.866 92.7367 49.124 92.5747 49.352C92.4187 49.58 92.1907 49.76 91.8907 49.892C91.5967 50.018 91.2517 50.081 90.8557 50.081Z" fill="#FCFCFC"/>
<defs>
<filter id="filter0_b_68_702" x="-6.26984" y="-6.26984" width="120.381" height="91.5397" filterUnits="userSpaceOnUse" color-interpolation-filters="sRGB">
<feFlood flood-opacity="0" result="BackgroundImageFix"/>
<feGaussianBlur in="BackgroundImage" stdDeviation="3.13492"/>
<feComposite in2="SourceAlpha" operator="in" result="effect1_backgroundBlur_68_702"/>
<feBlend mode="normal" in="SourceGraphic" in2="effect1_backgroundBlur_68_702" result="shape"/>
</filter>
</defs>
</svg>
